<svg width="36" height="36" viewBox="0 0 36 36" fill="none" xmlns="http://www.w3.org/2000/svg">
<g filter="url(#filter0_ii_1484_11577)">
<rect width="36" height="36" rx="10" fill="#FFC107"/>
<path d="M15.0176 8.81182C15.0189 7.27479 16.3764 6 18.0117 6C19.6568 6 21.0039 7.28281 21.0026 8.84761C21.0013 10.4254 19.6756 11.6761 18.0072 11.6749C16.3237 11.673 15.0163 10.421 15.0176 8.81182ZM29.9877 24.4129C29.9538 25.0669 29.5993 25.5612 29.0282 25.9203C28.5755 26.3053 28.0187 26.4954 27.4521 26.6607C26.6923 26.8823 25.9053 26.9557 25.1182 27.0254C25.0805 27.0439 25.0414 27.0482 25.0018 27.0489C24.3942 27.163 23.7698 27.1581 23.1609 27.2642C22.768 27.3327 22.3719 27.387 21.9777 27.4481C21.1334 27.6486 20.332 27.9466 19.5943 28.3897C19.5911 28.3884 19.5878 28.3866 19.5839 28.3847H19.5833C19.5865 28.3866 19.5904 28.3878 19.5937 28.3897C19.3075 28.6377 19.0219 28.8852 18.7357 29.1332C18.6277 29.2603 18.5191 29.3868 18.4111 29.5139C18.0345 30.1495 18.0351 30.1495 17.6338 29.5861C17.2129 28.995 16.6633 28.5402 16.0219 28.1706C15.069 27.6215 14.0048 27.4296 12.9295 27.2741C11.6279 27.0859 10.3029 27.0612 9.01628 26.773C8.10106 26.5682 7.23462 26.2591 6.57113 25.5865C6.21988 25.2298 6.00652 24.8134 6.03579 24.3092C6.02278 22.8345 6.01042 21.3598 6.00001 19.8857C5.99936 19.8364 6.02148 19.787 6.03254 19.7376C6.04425 19.7358 6.054 19.7302 6.06246 19.7222C6.05205 19.7265 6.0423 19.7315 6.03254 19.7376C6.00587 18.5702 6.75717 17.4657 7.90526 16.985C9.1184 16.4772 10.5098 16.7037 11.453 17.5718C12.0878 18.1568 12.415 18.875 12.4228 19.7148C12.4293 20.4429 12.4183 21.1704 12.4157 21.8985C12.4189 22.2144 12.4209 22.5309 12.4267 22.8469C12.4326 23.1609 12.6401 23.4226 12.8795 23.4226C13.1331 23.4226 13.379 23.1467 13.3855 22.8487C13.392 22.5328 13.394 22.2163 13.3979 21.9003C13.3979 21.735 13.3979 21.5696 13.3979 21.4042C13.3979 21.076 13.3979 20.7477 13.3979 20.4195C13.3979 19.5346 13.3972 18.6504 13.3972 17.7656C13.3257 16.7543 13.4441 15.7781 14.0015 14.8859C14.0724 14.7724 14.1609 14.6687 14.2409 14.5601C15.6115 12.5443 18.752 12.0796 20.8088 13.5883C21.6238 14.1856 22.1819 14.9488 22.4545 15.8923C22.513 16.0947 22.5319 16.3075 22.5696 16.5155C22.5956 16.6191 22.6269 16.7129 22.6269 16.8141C22.6282 17.81 22.6262 18.8059 22.6256 19.8012C22.6295 20.7952 22.6379 21.7893 22.634 22.7833C22.6334 23.0406 22.6796 23.2652 22.9638 23.3516C23.2643 23.4429 23.4549 23.2837 23.5935 23.0486C23.5935 21.9645 23.5909 20.8804 23.5967 19.7963C23.598 19.6056 23.6286 19.431 23.6605 19.2249C23.7906 18.0784 24.8834 17.0122 26.1661 16.7796C28.1657 16.4168 29.9753 17.8131 29.9909 19.7413C29.9994 20.7483 29.9877 21.7547 29.9851 22.7617C29.9877 23.3121 30.0156 23.8637 29.9877 24.4129ZM13.4597 21.0852C13.4603 21.0896 13.4603 21.0933 13.461 21.0976C13.472 21.1044 13.4831 21.1099 13.4929 21.1149C13.4825 21.1056 13.4714 21.0957 13.4597 21.0852ZM6.1145 20.7372C6.12491 20.7372 6.13401 20.7366 6.14377 20.7366C6.13271 20.7255 6.1223 20.715 6.1106 20.7027C6.1106 20.7144 6.1106 20.7261 6.1106 20.7378C6.11255 20.7378 6.1132 20.7372 6.1145 20.7372ZM6.46771 21.8769C6.47226 21.8757 6.47746 21.875 6.48202 21.875C6.47811 21.8689 6.47356 21.8639 6.46966 21.8578C6.46966 21.8645 6.46901 21.8707 6.46771 21.8769ZM9.20492 15.8546C10.4018 15.8614 11.3697 14.9667 11.3795 13.845C11.3892 12.6819 10.4603 11.773 9.2524 11.7643C8.01845 11.7557 7.07395 12.6294 7.06875 13.7845C7.06419 14.9495 7.99047 15.8472 9.20492 15.8546ZM26.7567 15.8522C27.9712 15.8639 28.9384 14.9717 28.9489 13.8295C28.9593 12.688 28.0265 11.7785 26.8361 11.7693C25.6301 11.76 24.6544 12.643 24.6407 13.7543C24.6271 14.9112 25.5644 15.8398 26.7567 15.8522Z" fill="white"/>
</g>
<defs>
<filter id="filter0_ii_1484_11577" x="0" y="-5" width="36" height="46" filterUnits="userSpaceOnUse" color-interpolation-filters="sRGB">
<feFlood flood-opacity="0" result="BackgroundImageFix"/>
<feBlend mode="normal" in="SourceGraphic" in2="BackgroundImageFix" result="shape"/>
<feColorMatrix in="SourceAlpha" type="matrix" values="0 0 0 0 0 0 0 0 0 0 0 0 0 0 0 0 0 0 127 0" result="hardAlpha"/>
<feOffset dy="-5"/>
<feGaussianBlur stdDeviation="2.5"/>
<feComposite in2="hardAlpha" operator="arithmetic" k2="-1" k3="1"/>
<feColorMatrix type="matrix" values="0 0 0 0 0 0 0 0 0 0 0 0 0 0 0 0 0 0 0.2 0"/>
<feBlend mode="normal" in2="shape" result="effect1_innerShadow_1484_11577"/>
<feColorMatrix in="SourceAlpha" type="matrix" values="0 0 0 0 0 0 0 0 0 0 0 0 0 0 0 0 0 0 127 0" result="hardAlpha"/>
<feOffset dy="5"/>
<feGaussianBlur stdDeviation="2.5"/>
<feComposite in2="hardAlpha" operator="arithmetic" k2="-1" k3="1"/>
<feColorMatrix type="matrix" values="0 0 0 0 1 0 0 0 0 1 0 0 0 0 1 0 0 0 0.2 0"/>
<feBlend mode="normal" in2="effect1_innerShadow_1484_11577" result="effect2_innerShadow_1484_11577"/>
</filter>
</defs>
</svg>
