<svg width="36" height="36" viewBox="0 0 36 36" fill="none" xmlns="http://www.w3.org/2000/svg">
<g filter="url(#filter0_ii_1484_11421)">
<rect width="36" height="36" rx="10" fill="#248CC9"/>
<path fill-rule="evenodd" clip-rule="evenodd" d="M9.46765 11.9993H12.3897V13.586C12.3897 13.8626 12.6139 14.0868 12.8905 14.0868C13.1671 14.0868 13.3913 13.8626 13.3913 13.586V11.9993H18.636V13.586C18.636 13.8626 18.8602 14.0868 19.1368 14.0868C19.4134 14.0868 19.6376 13.8626 19.6376 13.586V11.9993H22.5596C22.8843 11.9993 23.1532 12.2447 23.1829 12.568L23.654 17.693C23.4311 17.6699 23.205 17.6578 22.976 17.6578C19.3976 17.6578 16.4967 20.5587 16.4967 24.1372C16.4967 25.0173 16.6725 25.8563 16.9904 26.6213H8.89629C8.53906 26.6213 8.23151 26.4856 7.99076 26.2217C7.74996 25.9578 7.64299 25.6391 7.67566 25.2833L8.84435 12.568C8.87407 12.2447 9.14299 11.9993 9.46765 11.9993ZM12.3897 11.9169V10.1317C12.3897 9.13459 12.7973 8.2285 13.4539 7.57192C14.1104 6.91534 15.0165 6.50781 16.0136 6.50781C17.0107 6.50781 17.9168 6.91534 18.5734 7.57192C19.2299 8.2285 19.6375 9.13464 19.6375 10.1317V11.9169H18.636V10.1317C18.636 9.41106 18.3408 8.75552 17.8653 8.28002C17.3897 7.80447 16.7343 7.5093 16.0136 7.5093C15.293 7.5093 14.6375 7.80447 14.1619 8.28002C13.6864 8.75552 13.3912 9.41102 13.3912 10.1317V11.9169H12.3897ZM22.976 18.7828C20.0189 18.7828 17.6216 21.1801 17.6216 24.1372C17.6216 27.0943 20.0189 29.4915 22.976 29.4915C25.9331 29.4915 28.3303 27.0943 28.3303 24.1372C28.3303 21.1801 25.9331 18.7828 22.976 18.7828ZM20.3588 24.4541L21.9607 25.9253C22.1852 26.1318 22.5326 26.1209 22.7437 25.9032L25.6021 23.1664C25.8253 22.9517 25.8322 22.5965 25.6174 22.3732C25.4027 22.15 25.0475 22.1431 24.8242 22.3578L22.3331 24.743L21.119 23.628C20.8909 23.4181 20.5357 23.4329 20.3258 23.661C20.1159 23.8891 20.1306 24.2442 20.3588 24.4541Z" fill="white"/>
</g>
<defs>
<filter id="filter0_ii_1484_11421" x="0" y="-5" width="36" height="46" filterUnits="userSpaceOnUse" color-interpolation-filters="sRGB">
<feFlood flood-opacity="0" result="BackgroundImageFix"/>
<feBlend mode="normal" in="SourceGraphic" in2="BackgroundImageFix" result="shape"/>
<feColorMatrix in="SourceAlpha" type="matrix" values="0 0 0 0 0 0 0 0 0 0 0 0 0 0 0 0 0 0 127 0" result="hardAlpha"/>
<feOffset dy="-5"/>
<feGaussianBlur stdDeviation="2.5"/>
<feComposite in2="hardAlpha" operator="arithmetic" k2="-1" k3="1"/>
<feColorMatrix type="matrix" values="0 0 0 0 0 0 0 0 0 0 0 0 0 0 0 0 0 0 0.2 0"/>
<feBlend mode="normal" in2="shape" result="effect1_innerShadow_1484_11421"/>
<feColorMatrix in="SourceAlpha" type="matrix" values="0 0 0 0 0 0 0 0 0 0 0 0 0 0 0 0 0 0 127 0" result="hardAlpha"/>
<feOffset dy="5"/>
<feGaussianBlur stdDeviation="2.5"/>
<feComposite in2="hardAlpha" operator="arithmetic" k2="-1" k3="1"/>
<feColorMatrix type="matrix" values="0 0 0 0 1 0 0 0 0 1 0 0 0 0 1 0 0 0 0.2 0"/>
<feBlend mode="normal" in2="effect1_innerShadow_1484_11421" result="effect2_innerShadow_1484_11421"/>
</filter>
</defs>
</svg>
