<svg width="36" height="36" viewBox="0 0 36 36" fill="none" xmlns="http://www.w3.org/2000/svg">
<g filter="url(#filter0_ii_1484_11341)">
<path d="M0 10C0 4.47715 4.47715 0 10 0H26C31.5228 0 36 4.47715 36 10V26C36 31.5228 31.5228 36 26 36H10C4.47715 36 0 31.5228 0 26V10Z" fill="#3F51B5"/>
<path d="M14.2455 16.6561C14.5819 17.5604 15.114 18.4374 15.7714 19.0815C16.1441 19.4451 16.5564 19.7327 16.9966 19.9074C17.2987 20.0274 17.6143 20.0934 17.9388 20.0934C18.2631 20.0934 18.5787 20.0279 18.8813 19.9074C19.3366 19.7267 19.7635 19.4252 20.1459 19.0422C20.7879 18.4023 21.3055 17.5376 21.6363 16.6487C21.8895 16.5745 22.1554 16.0993 22.2639 15.4933C22.381 14.8347 22.2706 14.2616 22.0169 14.1651C22.0253 14.0043 22.0315 13.8421 22.0315 13.6753C22.0248 11.2904 20.6263 9.90418 18.4215 9.75634C16.4993 9.62722 15.0507 10.3911 14.3914 11.6607C14.1699 12.0879 14.0424 12.6224 13.993 13.2018C13.9193 13.5047 13.8766 13.8181 13.8766 14.1433H13.8835C13.8835 14.1459 13.8833 14.1483 13.8831 14.151C13.878 14.1515 13.8735 14.1522 13.8691 14.1531C13.5874 14.2023 13.4597 14.8023 13.5833 15.4931C13.6949 16.1281 13.9815 16.6194 14.2455 16.6561Z" fill="white"/>
<path d="M25.5127 22.3443C25.2823 21.8652 25.0322 21.4963 24.7802 21.2155C24.0156 20.3583 23.2454 20.2903 23.0126 20.2366C22.2982 20.0695 21.4339 20.1403 20.9724 19.9963C20.9177 20.4497 19.6018 21.9377 18.7394 22.8723L18.3655 21.4306C18.6463 21.2643 18.7078 20.8985 18.7078 20.5951H17.2901C17.2901 20.8963 17.3513 21.259 17.6261 21.426L17.2586 22.8711C16.3958 21.9375 15.0794 20.4485 15.0259 19.9961C14.5637 20.1401 13.6997 20.0698 12.9852 20.2359C12.7462 20.2915 11.9302 20.3645 11.1401 21.3055C10.9152 21.5739 10.693 21.9147 10.4863 22.3435C11.9904 24.9351 14.7941 26.6827 17.9998 26.6827C21.2052 26.6827 24.0086 24.9355 25.5127 22.3443Z" fill="white"/>
<path d="M18.0002 7.19922C12.0453 7.19922 7.2002 12.0441 7.2002 17.9992C7.2002 23.9541 12.0453 28.7992 18.0002 28.7992C23.9556 28.7992 28.8002 23.9541 28.8002 17.9992C28.8002 12.0441 23.9556 7.19922 18.0002 7.19922ZM8.47076 17.9992C8.47076 12.736 12.7375 8.46954 18.0002 8.46954C23.2634 8.46954 27.5296 12.7358 27.5296 17.9992C27.5296 23.2624 23.2634 27.5287 18.0002 27.5287C12.7375 27.5287 8.47076 23.2624 8.47076 17.9992Z" fill="white"/>
</g>
<defs>
<filter id="filter0_ii_1484_11341" x="0" y="-5" width="36" height="46" filterUnits="userSpaceOnUse" color-interpolation-filters="sRGB">
<feFlood flood-opacity="0" result="BackgroundImageFix"/>
<feBlend mode="normal" in="SourceGraphic" in2="BackgroundImageFix" result="shape"/>
<feColorMatrix in="SourceAlpha" type="matrix" values="0 0 0 0 0 0 0 0 0 0 0 0 0 0 0 0 0 0 127 0" result="hardAlpha"/>
<feOffset dy="-5"/>
<feGaussianBlur stdDeviation="2.5"/>
<feComposite in2="hardAlpha" operator="arithmetic" k2="-1" k3="1"/>
<feColorMatrix type="matrix" values="0 0 0 0 0 0 0 0 0 0 0 0 0 0 0 0 0 0 0.2 0"/>
<feBlend mode="normal" in2="shape" result="effect1_innerShadow_1484_11341"/>
<feColorMatrix in="SourceAlpha" type="matrix" values="0 0 0 0 0 0 0 0 0 0 0 0 0 0 0 0 0 0 127 0" result="hardAlpha"/>
<feOffset dy="5"/>
<feGaussianBlur stdDeviation="2.5"/>
<feComposite in2="hardAlpha" operator="arithmetic" k2="-1" k3="1"/>
<feColorMatrix type="matrix" values="0 0 0 0 1 0 0 0 0 1 0 0 0 0 1 0 0 0 0.2 0"/>
<feBlend mode="normal" in2="effect1_innerShadow_1484_11341" result="effect2_innerShadow_1484_11341"/>
</filter>
</defs>
</svg>
