<svg width="36" height="36" viewBox="0 0 36 36" fill="none" xmlns="http://www.w3.org/2000/svg">
<g filter="url(#filter0_ii_1484_11440)">
<rect width="36" height="36" rx="10" fill="#FFD000"/>
<path d="M13.5 8.5C13.5 7.94772 13.0523 7.5 12.5 7.5C11.9477 7.5 11.5 7.94772 11.5 8.5V9.5C11.5 10.0523 11.9477 10.5 12.5 10.5C13.0523 10.5 13.5 10.0523 13.5 9.5V8.5Z" fill="white"/>
<path d="M24.5 8.5C24.5 7.94772 24.0523 7.5 23.5 7.5C22.9477 7.5 22.5 7.94772 22.5 8.5V9.5C22.5 10.0523 22.9477 10.5 23.5 10.5C24.0523 10.5 24.5 10.0523 24.5 9.5V8.5Z" fill="white"/>
<path d="M8 15V26.5C8 27.6045 8.8955 28.5 10 28.5H26C27.1045 28.5 28 27.6045 28 26.5V15H8ZM14 25C14 25.5525 13.5525 26 13 26H12C11.4475 26 11 25.5525 11 25V24C11 23.4475 11.4475 23 12 23H13C13.5525 23 14 23.4475 14 24V25ZM14 19.5C14 20.0525 13.5525 20.5 13 20.5H12C11.4475 20.5 11 20.0525 11 19.5V18.5C11 17.9475 11.4475 17.5 12 17.5H13C13.5525 17.5 14 17.9475 14 18.5V19.5ZM19.5 25C19.5 25.5525 19.0525 26 18.5 26H17.5C16.9475 26 16.5 25.5525 16.5 25V24C16.5 23.4475 16.9475 23 17.5 23H18.5C19.0525 23 19.5 23.4475 19.5 24V25ZM19.5 19.5C19.5 20.0525 19.0525 20.5 18.5 20.5H17.5C16.9475 20.5 16.5 20.0525 16.5 19.5V18.5C16.5 17.9475 16.9475 17.5 17.5 17.5H18.5C19.0525 17.5 19.5 17.9475 19.5 18.5V19.5ZM25 25C25 25.5525 24.5525 26 24 26H23C22.4475 26 22 25.5525 22 25V24C22 23.4475 22.4475 23 23 23H24C24.5525 23 25 23.4475 25 24V25ZM25 19.5C25 20.0525 24.5525 20.5 24 20.5H23C22.4475 20.5 22 20.0525 22 19.5V18.5C22 17.9475 22.4475 17.5 23 17.5H24C24.5525 17.5 25 17.9475 25 18.5V19.5Z" fill="white"/>
<path d="M28 14V11C28 9.8955 27.1045 9 26 9H25.5V9.5C25.5 10.603 24.603 11.5 23.5 11.5C22.397 11.5 21.5 10.603 21.5 9.5V9H14.5V9.5C14.5 10.603 13.603 11.5 12.5 11.5C11.397 11.5 10.5 10.603 10.5 9.5V9H10C8.8955 9 8 9.8955 8 11V14H28Z" fill="white"/>
</g>
<defs>
<filter id="filter0_ii_1484_11440" x="0" y="-5" width="36" height="46" filterUnits="userSpaceOnUse" color-interpolation-filters="sRGB">
<feFlood flood-opacity="0" result="BackgroundImageFix"/>
<feBlend mode="normal" in="SourceGraphic" in2="BackgroundImageFix" result="shape"/>
<feColorMatrix in="SourceAlpha" type="matrix" values="0 0 0 0 0 0 0 0 0 0 0 0 0 0 0 0 0 0 127 0" result="hardAlpha"/>
<feOffset dy="-5"/>
<feGaussianBlur stdDeviation="2.5"/>
<feComposite in2="hardAlpha" operator="arithmetic" k2="-1" k3="1"/>
<feColorMatrix type="matrix" values="0 0 0 0 0 0 0 0 0 0 0 0 0 0 0 0 0 0 0.2 0"/>
<feBlend mode="normal" in2="shape" result="effect1_innerShadow_1484_11440"/>
<feColorMatrix in="SourceAlpha" type="matrix" values="0 0 0 0 0 0 0 0 0 0 0 0 0 0 0 0 0 0 127 0" result="hardAlpha"/>
<feOffset dy="5"/>
<feGaussianBlur stdDeviation="2.5"/>
<feComposite in2="hardAlpha" operator="arithmetic" k2="-1" k3="1"/>
<feColorMatrix type="matrix" values="0 0 0 0 1 0 0 0 0 1 0 0 0 0 1 0 0 0 0.2 0"/>
<feBlend mode="normal" in2="effect1_innerShadow_1484_11440" result="effect2_innerShadow_1484_11440"/>
</filter>
</defs>
</svg>
