<svg width="80" height="59" viewBox="0 0 80 59" fill="none" xmlns="http://www.w3.org/2000/svg">
<path d="M5.84915 0L7.1313 4.54007L11.6983 5.81466L7.1313 7.08926L5.84915 11.6293L4.567 7.08926L0 5.81466L4.567 4.54007L5.84915 0Z" fill="#009EB4"/>
<path d="M74.1499 47.3711L75.4321 51.9112L79.9991 53.1858L75.4321 54.4604L74.1499 59.0004L72.8678 54.4604L68.3008 53.1858L72.8678 51.9112L74.1499 47.3711Z" fill="#009EB4"/>
<path d="M8.84961 55.0576C9.81004 55.0577 10.5838 55.8308 10.584 56.7783C10.584 57.726 9.81017 58.4999 8.84961 58.5C7.889 58.5 7.11523 57.7261 7.11523 56.7783C7.11545 55.8307 7.88914 55.0576 8.84961 55.0576Z" fill="#F4C63B" stroke="#F4C63B"/>
<path d="M74.1514 9.96582C75.0465 9.96594 75.7676 10.6866 75.7676 11.5693C75.7676 12.4521 75.0465 13.1727 74.1514 13.1729C73.2561 13.1729 72.5352 12.4522 72.5352 11.5693C72.5352 10.6865 73.2561 9.96582 74.1514 9.96582Z" fill="#F4C63B" stroke="#F4C63B"/>
<path d="M58.1993 13.252H53.3312V19.2546C53.3312 20.598 52.1255 21.6922 50.642 21.6922H48.8073C47.3239 21.6922 46.1181 20.6003 46.1181 19.2546V13.252H34.1367V19.2546C34.1367 20.598 32.9286 21.6922 31.4475 21.6922H29.6104C28.127 21.6922 26.9212 20.6003 26.9212 19.2546V13.252H22.0508C21.2414 13.252 20.584 13.9094 20.584 14.7188V48.425C20.584 49.232 21.2414 49.8942 22.0508 49.8942H58.1993C59.011 49.8942 59.6685 49.232 59.6685 48.425V14.7188C59.6709 13.9094 59.011 13.252 58.1993 13.252ZM57.6866 47.8316C57.6866 48.0808 57.4777 48.2897 57.2238 48.2897H23.0311C22.7771 48.2897 22.5682 48.0808 22.5682 47.8316V27.0539C22.5682 26.7999 22.7747 26.5911 23.0311 26.5911H57.2214C57.4754 26.5911 57.6842 26.7999 57.6842 27.0539L57.6866 47.8316Z" fill="#009EB4"/>
<path d="M29.6114 19.2871H31.4462C32.1202 19.2871 32.6685 18.8527 32.6685 18.3187V10.4743C32.6685 9.93784 32.1202 9.50586 31.4462 9.50586H29.6114C28.935 9.50586 28.3867 9.93784 28.3867 10.4743V18.3211C28.3867 18.8527 28.935 19.2871 29.6114 19.2871Z" fill="#F4C63B"/>
<path d="M48.8087 19.2871H50.6434C51.3199 19.2871 51.8682 18.8527 51.8682 18.3187V10.4743C51.8682 9.93784 51.3223 9.50586 50.6434 9.50586H48.8087C48.1323 9.50586 47.584 9.93784 47.584 10.4743V18.3211C47.5887 18.8527 48.1323 19.2871 48.8087 19.2871Z" fill="#F4C63B"/>
<path d="M48.5291 29.4612C48.2087 29.1431 47.6936 29.1431 47.3756 29.4612L37.8104 39.0312L32.883 34.0658C32.5649 33.7501 32.0522 33.7501 31.7342 34.0658L30.0063 35.7913C29.6906 36.107 29.6906 36.6268 30.0063 36.9401L37.2289 44.2126C37.5445 44.5282 38.062 44.5282 38.38 44.2126L50.2547 32.3355C50.5751 32.0198 50.5751 31.5 50.2547 31.182L48.5291 29.4612Z" fill="#F4C63B"/>
</svg>
