<svg width="15" height="15" viewBox="0 0 15 15" fill="none" xmlns="http://www.w3.org/2000/svg">
<path d="M11.1179 7.4995C13.1646 7.4995 14.8237 5.84035 14.8237 3.79369C14.8237 1.74704 13.1646 0.0878906 11.1179 0.0878906C9.07127 0.0878906 7.41211 1.74704 7.41211 3.79369C7.41211 4.3865 7.5513 4.94681 7.79877 5.4437C7.86459 5.57574 7.88645 5.72666 7.84836 5.86917L7.62764 6.69408C7.53181 7.05221 7.8594 7.3798 8.21753 7.28397L9.04244 7.06325C9.18497 7.02516 9.33587 7.04702 9.46794 7.11283C9.96482 7.36031 10.5251 7.4995 11.1179 7.4995Z" fill="#F4C63B"/>
<path d="M9.63477 3.79482H12.5994H9.63477ZM11.1171 5.27714V2.3125V5.27714Z" fill="#414141"/>
<path d="M9.63477 3.79482H12.5994M11.1171 5.27714V2.3125" stroke="white" stroke-width="1.04634" stroke-linecap="round"/>
<path d="M4.47483 4.02823L4.95585 4.89015C5.38994 5.66798 5.21568 6.68835 4.53198 7.37207C4.53198 7.37207 3.70275 8.20143 5.20629 9.70502C6.70936 11.2081 7.53924 10.3793 7.53924 10.3793C8.22296 9.69561 9.24331 9.52136 10.0212 9.95546L10.8831 10.4365C12.0576 11.092 12.1963 12.7391 11.164 13.7716C10.5436 14.3919 9.78362 14.8746 8.94351 14.9064C7.52931 14.9601 5.12756 14.6022 2.71836 12.193C0.309162 9.78373 -0.0487594 7.382 0.00485614 5.96779C0.0367038 5.12769 0.519407 4.36772 1.13977 3.74737C2.17217 2.71497 3.81933 2.85369 4.47483 4.02823Z" fill="#009EB4"/>
</svg>
