<svg width="13" height="12" viewBox="0 0 13 12" fill="none" xmlns="http://www.w3.org/2000/svg">
<path d="M11.4058 5.12456C11.2304 5.02257 11.0728 4.89268 10.9391 4.73999C10.9527 4.5274 11.0033 4.31883 11.0888 4.12371C11.2459 3.68027 11.4236 3.17795 11.1384 2.78744C10.8533 2.39693 10.3148 2.40935 9.84215 2.42016C9.63332 2.44164 9.42235 2.4274 9.2183 2.37803C9.10959 2.20114 9.03195 2.00695 8.98875 1.80388C8.8548 1.34747 8.70195 0.831654 8.23258 0.677179C7.77996 0.531346 7.36082 0.852179 6.9903 1.13412C6.83041 1.28013 6.64516 1.39564 6.44369 1.47494C6.24012 1.39628 6.0528 1.28074 5.89114 1.13412C5.5217 0.853799 5.10418 0.529725 4.6494 0.677719C4.18111 0.830034 4.02826 1.34747 3.89323 1.80388C3.85009 2.0063 3.77322 2.20002 3.66583 2.37695C3.46141 2.42618 3.25017 2.44079 3.04091 2.42016C2.56668 2.40719 2.0325 2.39315 1.74462 2.78744C1.45673 3.18173 1.63659 3.68027 1.79431 4.12317C1.88097 4.318 1.93235 4.52666 1.94608 4.73945C1.81271 4.89234 1.65527 5.02243 1.47996 5.12456C1.08458 5.39462 0.635742 5.70195 0.635742 6.20102C0.635742 6.7001 1.08458 7.00635 1.47996 7.27749C1.65523 7.37945 1.81267 7.50935 1.94608 7.66206C1.9338 7.87477 1.88387 8.08361 1.79863 8.27888C1.64199 8.72178 1.46483 9.22409 1.74948 9.6146C2.03412 10.0051 2.571 9.99269 3.04577 9.98189C3.25478 9.96038 3.46593 9.97463 3.67016 10.024C3.77839 10.2011 3.85582 10.3952 3.89917 10.5982C4.03312 11.0546 4.18597 11.5704 4.65534 11.7249C4.73059 11.749 4.80911 11.7614 4.88813 11.7616C5.26795 11.7071 5.62097 11.5344 5.89709 11.2679C6.05697 11.1219 6.24222 11.0064 6.44369 10.9271C6.64727 11.0058 6.83458 11.1213 6.99624 11.2679C7.36622 11.5504 7.78536 11.8729 8.23852 11.7243C8.70681 11.572 8.85966 11.0546 8.99469 10.5987C9.03798 10.3959 9.11542 10.2019 9.22371 10.0251C9.42735 9.97552 9.63793 9.96091 9.84647 9.98189C10.3207 9.99323 10.8549 10.0089 11.1428 9.6146C11.4307 9.22031 11.2508 8.72178 11.0931 8.27834C11.007 8.08368 10.9556 7.87548 10.9413 7.66314C11.0747 7.5101 11.2324 7.38001 11.408 7.27803C11.8033 7.00797 12.2522 6.7001 12.2522 6.20102C12.2522 5.70195 11.8017 5.39516 11.4058 5.12456Z" fill="white"/>
<path d="M5.81508 7.70009C5.76188 7.70019 5.70918 7.68974 5.66005 7.66934C5.61091 7.64895 5.5663 7.61901 5.52881 7.58126L4.44857 6.50101C4.37701 6.42422 4.33806 6.32265 4.33991 6.21771C4.34176 6.11276 4.38427 6.01263 4.45849 5.93841C4.53271 5.86419 4.63284 5.82168 4.73779 5.81982C4.84274 5.81797 4.94431 5.85693 5.0211 5.92848L5.85289 6.76027L7.73252 5.35055C7.81847 5.28609 7.9265 5.25841 8.03286 5.2736C8.13922 5.2888 8.23518 5.34562 8.29965 5.43157C8.36411 5.51752 8.39179 5.62556 8.37659 5.73191C8.3614 5.83827 8.30458 5.93424 8.21863 5.9987L6.05813 7.61907C5.988 7.67163 5.90272 7.70005 5.81508 7.70009Z" fill="#009EB4"/>
</svg>
