<svg width="14" height="14" viewBox="0 0 14 14" fill="none" xmlns="http://www.w3.org/2000/svg">
<path d="M0 7C0 3.13401 3.13401 0 7 0C10.866 0 14 3.13401 14 7C14 10.866 10.866 14 7 14C3.13401 14 0 10.866 0 7Z" fill="#F4C63B"/>
<mask id="mask0_672_26608" style="mask-type:alpha" maskUnits="userSpaceOnUse" x="1" y="1" width="12" height="12">
<rect x="1" y="1" width="12" height="12" fill="#D9D9D9"/>
</mask>
<g mask="url(#mask0_672_26608)">
<path d="M5.7751 8.575L10.0126 4.3375C10.1126 4.2375 10.2314 4.1875 10.3689 4.1875C10.5064 4.1875 10.6251 4.2375 10.7251 4.3375C10.8251 4.4375 10.8751 4.55625 10.8751 4.69375C10.8751 4.83125 10.8251 4.95 10.7251 5.05L6.1251 9.65C6.0251 9.75 5.90844 9.8 5.7751 9.8C5.64177 9.8 5.5251 9.75 5.4251 9.65L3.2751 7.5C3.1751 7.4 3.12719 7.28125 3.13135 7.14375C3.13552 7.00625 3.1876 6.8875 3.2876 6.7875C3.3876 6.6875 3.50635 6.6375 3.64385 6.6375C3.78135 6.6375 3.9001 6.6875 4.0001 6.7875L5.7751 8.575Z" fill="white"/>
</g>
</svg>
