<svg width="66" height="66" viewBox="0 0 66 66" fill="none" xmlns="http://www.w3.org/2000/svg">
<path fill-rule="evenodd" clip-rule="evenodd" d="M21.4152 6.08947C19.6508 5.56012 17.875 6.88136 17.875 8.72347V60.5005H27.5V50.8755C27.5 49.3566 28.7312 48.1255 30.25 48.1255H35.75C37.2688 48.1255 38.5 49.3566 38.5 50.8755V60.5005H48.125V16.1485C48.125 14.934 47.3283 13.8634 46.1651 13.5145L21.4152 6.08947ZM27.5 22.0004C26.7406 22.0004 26.125 22.6161 26.125 23.3754V26.1254C26.125 26.8848 26.7406 27.5004 27.5 27.5004H30.25C31.0093 27.5004 31.625 26.8848 31.625 26.1254V23.3754C31.625 22.6161 31.0093 22.0004 30.25 22.0004H27.5ZM26.125 31.6254C26.125 30.8662 26.7406 30.2504 27.5 30.2504H30.25C31.0093 30.2504 31.625 30.8662 31.625 31.6254V34.3754C31.625 35.1347 31.0093 35.7504 30.25 35.7504H27.5C26.7406 35.7504 26.125 35.1347 26.125 34.3754V31.6254ZM27.5 38.5004C26.7406 38.5004 26.125 39.1162 26.125 39.8754V42.6254C26.125 43.3847 26.7406 44.0004 27.5 44.0004H30.25C31.0093 44.0004 31.625 43.3847 31.625 42.6254V39.8754C31.625 39.1162 31.0093 38.5004 30.25 38.5004H27.5ZM34.375 23.3754C34.375 22.6161 34.9907 22.0004 35.75 22.0004H38.5C39.2593 22.0004 39.875 22.6161 39.875 23.3754V26.1254C39.875 26.8848 39.2593 27.5004 38.5 27.5004H35.75C34.9907 27.5004 34.375 26.8848 34.375 26.1254V23.3754ZM35.75 30.2504C34.9907 30.2504 34.375 30.8662 34.375 31.6254V34.3754C34.375 35.1347 34.9907 35.7504 35.75 35.7504H38.5C39.2593 35.7504 39.875 35.1347 39.875 34.3754V31.6254C39.875 30.8662 39.2593 30.2504 38.5 30.2504H35.75ZM34.375 39.8754C34.375 39.1162 34.9907 38.5004 35.75 38.5004H38.5C39.2593 38.5004 39.875 39.1162 39.875 39.8754V42.6254C39.875 43.3847 39.2593 44.0004 38.5 44.0004H35.75C34.9907 44.0004 34.375 43.3847 34.375 42.6254V39.8754Z" fill="#E5E5E5"/>
<path d="M15.125 60.5V13.75H11C9.48123 13.75 8.25 14.9812 8.25 16.5V57.75H6.875C6.11562 57.75 5.5 58.3657 5.5 59.125C5.5 59.8843 6.11562 60.5 6.875 60.5H15.125Z" fill="#CECECE"/>
<path d="M59.125 60.5H50.875V24.1484L56.3643 27.2852C57.2212 27.775 57.75 28.686 57.75 29.673V57.75H59.125C59.8843 57.75 60.5 58.3657 60.5 59.125C60.5 59.8843 59.8843 60.5 59.125 60.5Z" fill="#CECECE"/>
<path d="M35.75 60.5V50.875H30.25V60.5H35.75Z" fill="#E5E5E5"/>
</svg>
