<svg width="66" height="66" viewBox="0 0 66 66" fill="none" xmlns="http://www.w3.org/2000/svg">
<path fill-rule="evenodd" clip-rule="evenodd" d="M21.4152 6.08898C19.6508 5.55963 17.875 6.88087 17.875 8.72298V60.5H27.5V50.875C27.5 49.3561 28.7312 48.125 30.25 48.125H35.75C37.2688 48.125 38.5 49.3561 38.5 50.875V60.5H48.125V16.148C48.125 14.9336 47.3283 13.8629 46.1651 13.514L21.4152 6.08898ZM27.5 22C26.7406 22 26.125 22.6156 26.125 23.375V26.125C26.125 26.8843 26.7406 27.5 27.5 27.5H30.25C31.0093 27.5 31.625 26.8843 31.625 26.125V23.375C31.625 22.6156 31.0093 22 30.25 22H27.5ZM26.125 31.625C26.125 30.8657 26.7406 30.25 27.5 30.25H30.25C31.0093 30.25 31.625 30.8657 31.625 31.625V34.375C31.625 35.1342 31.0093 35.75 30.25 35.75H27.5C26.7406 35.75 26.125 35.1342 26.125 34.375V31.625ZM27.5 38.5C26.7406 38.5 26.125 39.1157 26.125 39.875V42.625C26.125 43.3842 26.7406 44 27.5 44H30.25C31.0093 44 31.625 43.3842 31.625 42.625V39.875C31.625 39.1157 31.0093 38.5 30.25 38.5H27.5ZM34.375 23.375C34.375 22.6156 34.9907 22 35.75 22H38.5C39.2593 22 39.875 22.6156 39.875 23.375V26.125C39.875 26.8843 39.2593 27.5 38.5 27.5H35.75C34.9907 27.5 34.375 26.8843 34.375 26.125V23.375ZM35.75 30.25C34.9907 30.25 34.375 30.8657 34.375 31.625V34.375C34.375 35.1342 34.9907 35.75 35.75 35.75H38.5C39.2593 35.75 39.875 35.1342 39.875 34.375V31.625C39.875 30.8657 39.2593 30.25 38.5 30.25H35.75ZM34.375 39.875C34.375 39.1157 34.9907 38.5 35.75 38.5H38.5C39.2593 38.5 39.875 39.1157 39.875 39.875V42.625C39.875 43.3842 39.2593 44 38.5 44H35.75C34.9907 44 34.375 43.3842 34.375 42.625V39.875Z" fill="#009EB4"/>
<path d="M15.125 60.5V13.75H11C9.48123 13.75 8.25 14.9812 8.25 16.5V57.75H6.875C6.11562 57.75 5.5 58.3657 5.5 59.125C5.5 59.8843 6.11562 60.5 6.875 60.5H15.125Z" fill="#009EB4"/>
<path d="M59.125 60.5H50.875V24.1484L56.3643 27.2852C57.2212 27.775 57.75 28.686 57.75 29.673V57.75H59.125C59.8843 57.75 60.5 58.3657 60.5 59.125C60.5 59.8843 59.8843 60.5 59.125 60.5Z" fill="#009EB4"/>
<path d="M35.75 60.5V50.875H30.25V60.5H35.75Z" fill="#009EB4"/>
</svg>
