<svg width="36" height="36" viewBox="0 0 36 36" fill="none" xmlns="http://www.w3.org/2000/svg">
<g filter="url(#filter0_ii_1484_11478)">
<path d="M0 10C0 4.47715 4.47715 0 10 0H26C31.5228 0 36 4.47715 36 10V26C36 31.5228 31.5228 36 26 36H10C4.47715 36 0 31.5228 0 26V10Z" fill="#FF5722"/>
<path fill-rule="evenodd" clip-rule="evenodd" d="M19.3605 21.8247L20.425 22.1622L19.4097 22.8719L19.7472 23.2267L19.803 23.6772C19.8841 24.3414 19.871 24.505 20.5403 24.3841C22.0619 24.1103 22.4191 24.0119 23.1953 25.6581L23.2591 25.8841L28.6881 25.7711C28.1313 24.3067 27.2519 22.8958 27.5772 21.3039L28.4449 20.4362C31.1247 15.9386 26.5713 11.7212 22.7191 13.0619C21.6813 13.4233 20.6941 14.1888 19.9127 15.4614C19.7266 15.7642 19.607 16.1162 19.6281 16.7833V18.0109L19.6666 18.9569L19.1191 19.7941C18.707 20.425 18.6752 20.238 19.1069 20.837L19.3595 21.1877C19.4842 21.3752 19.3595 21.6475 19.3595 21.8242L19.3605 21.8247ZM17.0125 13.5639C17.1414 13.6928 17.1414 13.9 17.0125 14.0289C16.885 14.1564 16.6764 14.1564 16.5489 14.0289L14.8999 12.3784C14.771 12.2509 14.771 12.0437 14.8999 11.9148C15.0274 11.7873 15.236 11.7873 15.3635 11.9148L17.0125 13.5639ZM19.451 14.0289C19.3235 14.1564 19.1149 14.1564 18.9874 14.0289C18.8585 13.9 18.8585 13.6928 18.9874 13.5639L20.6364 11.9148C20.7639 11.7873 20.9725 11.7873 21.1 11.9148C21.2289 12.0437 21.2289 12.2509 21.1 12.3784L19.451 14.0289ZM18.3283 13.7964C18.3283 13.9769 18.1806 14.1245 18.0002 14.1245C17.8197 14.1245 17.672 13.9769 17.672 13.7964V10.4453C17.672 10.2634 17.8197 10.1172 18.0002 10.1172C18.1806 10.1172 18.3283 10.2634 18.3283 10.4453V13.7964ZM16.6394 21.8247L15.5749 22.1622L16.5902 22.8719L16.2527 23.2267L16.1969 23.6772C16.1158 24.3414 16.1289 24.505 15.4595 24.3841C13.938 24.1103 13.5808 24.0119 12.8045 25.6581L12.7408 25.8841L7.31174 25.7711C7.86861 24.3067 8.74799 22.8958 8.42267 21.3039L7.55502 20.4362C4.8747 15.9386 9.42861 11.7212 13.2803 13.0619C14.3181 13.4233 15.3053 14.1888 16.0867 15.4614C16.2728 15.7642 16.3924 16.1162 16.3713 16.7833V18.0109L16.3328 18.9569L16.8803 19.7941C17.2924 20.425 17.3242 20.238 16.8925 20.837L16.6399 21.1877C16.5152 21.3752 16.6399 21.6475 16.6399 21.8242L16.6394 21.8247ZM9.21861 18.8697H12.0091V20.2647L14.7981 17.4742L12.0091 14.6852V16.0802H9.21861V18.8692V18.8697ZM26.7817 18.8697H23.9913V20.2647L21.2022 17.4742L23.9913 14.6852V16.0802H26.7817V18.8692V18.8697Z" fill="white"/>
</g>
<defs>
<filter id="filter0_ii_1484_11478" x="0" y="-5" width="36" height="46" filterUnits="userSpaceOnUse" color-interpolation-filters="sRGB">
<feFlood flood-opacity="0" result="BackgroundImageFix"/>
<feBlend mode="normal" in="SourceGraphic" in2="BackgroundImageFix" result="shape"/>
<feColorMatrix in="SourceAlpha" type="matrix" values="0 0 0 0 0 0 0 0 0 0 0 0 0 0 0 0 0 0 127 0" result="hardAlpha"/>
<feOffset dy="-5"/>
<feGaussianBlur stdDeviation="2.5"/>
<feComposite in2="hardAlpha" operator="arithmetic" k2="-1" k3="1"/>
<feColorMatrix type="matrix" values="0 0 0 0 0 0 0 0 0 0 0 0 0 0 0 0 0 0 0.2 0"/>
<feBlend mode="normal" in2="shape" result="effect1_innerShadow_1484_11478"/>
<feColorMatrix in="SourceAlpha" type="matrix" values="0 0 0 0 0 0 0 0 0 0 0 0 0 0 0 0 0 0 127 0" result="hardAlpha"/>
<feOffset dy="5"/>
<feGaussianBlur stdDeviation="2.5"/>
<feComposite in2="hardAlpha" operator="arithmetic" k2="-1" k3="1"/>
<feColorMatrix type="matrix" values="0 0 0 0 1 0 0 0 0 1 0 0 0 0 1 0 0 0 0.2 0"/>
<feBlend mode="normal" in2="effect1_innerShadow_1484_11478" result="effect2_innerShadow_1484_11478"/>
</filter>
</defs>
</svg>
