<svg width="11" height="13" viewBox="0 0 11 13" fill="none" xmlns="http://www.w3.org/2000/svg">
<path fill-rule="evenodd" clip-rule="evenodd" d="M3.65034 5.85009C3.29136 5.85009 3.00035 6.14109 3.00035 6.50008C3.00035 6.85907 3.29136 7.15007 3.65034 7.15007H7.55028C7.90927 7.15007 8.20027 6.85907 8.20027 6.50008C8.20027 6.14109 7.90927 5.85009 7.55028 5.85009H3.65034ZM3.65034 7.80006C3.29136 7.80006 3.00035 8.09106 3.00035 8.45005C3.00035 8.80904 3.29136 9.10005 3.65034 9.10005H7.55028C7.90927 9.10005 8.20027 8.80904 8.20027 8.45005C8.20027 8.09106 7.90927 7.80006 7.55028 7.80006H3.65034ZM5.91361 8.96183e-05C6.35482 -0.000586373 6.74637 -0.00118435 7.10803 0.148619C7.46968 0.298423 7.74619 0.575735 8.05766 0.888206C8.67489 1.50733 9.2931 2.12552 9.91221 2.74275C10.2247 3.05426 10.502 3.33073 10.6518 3.69238C10.8016 4.05404 10.801 4.44562 10.8003 4.88684C10.7978 6.52218 10.8002 8.15749 10.8002 9.79287C10.8003 10.3691 10.8003 10.8656 10.7469 11.2631C10.6895 11.6892 10.5604 12.0976 10.2291 12.4289C9.89785 12.7601 9.4894 12.8894 9.06333 12.9466C8.66573 13.0001 8.16927 13.0001 7.59305 13H3.60757C3.03136 13.0001 2.53488 13.0001 2.1373 12.9466C1.71123 12.8894 1.30281 12.7601 0.971525 12.4289C0.640252 12.0976 0.511072 11.6892 0.453789 11.2631C0.400334 10.8656 0.40036 10.3691 0.400392 9.79287L0.400399 3.25015C0.400399 3.23583 0.400392 3.22157 0.400392 3.20736C0.40036 2.63115 0.400334 2.13468 0.453789 1.73709C0.511072 1.31102 0.640251 0.902597 0.971532 0.571322C1.30281 0.240041 1.71123 0.110861 2.1373 0.0535775C2.53487 0.00012215 3.03135 0.000148164 3.60756 0.000180663C4.37625 0.000226163 5.14493 0.0012726 5.91361 8.96183e-05Z" fill="#009EB4"/>
</svg>
