<svg width="36" height="36" viewBox="0 0 36 36" fill="none" xmlns="http://www.w3.org/2000/svg">
<g filter="url(#filter0_ii_1484_11592)">
<rect width="36" height="36" rx="10" fill="#B02761"/>
<path d="M22 8H14C10.5 8 9 10 9 13V23C9 26 10.5 28 14 28H22C25.5 28 27 26 27 23V13C27 10 25.5 8 22 8ZM14 18.25H18C18.41 18.25 18.75 18.59 18.75 19C18.75 19.41 18.41 19.75 18 19.75H14C13.59 19.75 13.25 19.41 13.25 19C13.25 18.59 13.59 18.25 14 18.25ZM22 23.75H14C13.59 23.75 13.25 23.41 13.25 23C13.25 22.59 13.59 22.25 14 22.25H22C22.41 22.25 22.75 22.59 22.75 23C22.75 23.41 22.41 23.75 22 23.75ZM24.5 15.25H22.5C20.98 15.25 19.75 14.02 19.75 12.5V10.5C19.75 10.09 20.09 9.75 20.5 9.75C20.91 9.75 21.25 10.09 21.25 10.5V12.5C21.25 13.19 21.81 13.75 22.5 13.75H24.5C24.91 13.75 25.25 14.09 25.25 14.5C25.25 14.91 24.91 15.25 24.5 15.25Z" fill="white"/>
</g>
<defs>
<filter id="filter0_ii_1484_11592" x="0" y="-5" width="36" height="46" filterUnits="userSpaceOnUse" color-interpolation-filters="sRGB">
<feFlood flood-opacity="0" result="BackgroundImageFix"/>
<feBlend mode="normal" in="SourceGraphic" in2="BackgroundImageFix" result="shape"/>
<feColorMatrix in="SourceAlpha" type="matrix" values="0 0 0 0 0 0 0 0 0 0 0 0 0 0 0 0 0 0 127 0" result="hardAlpha"/>
<feOffset dy="-5"/>
<feGaussianBlur stdDeviation="2.5"/>
<feComposite in2="hardAlpha" operator="arithmetic" k2="-1" k3="1"/>
<feColorMatrix type="matrix" values="0 0 0 0 0 0 0 0 0 0 0 0 0 0 0 0 0 0 0.2 0"/>
<feBlend mode="normal" in2="shape" result="effect1_innerShadow_1484_11592"/>
<feColorMatrix in="SourceAlpha" type="matrix" values="0 0 0 0 0 0 0 0 0 0 0 0 0 0 0 0 0 0 127 0" result="hardAlpha"/>
<feOffset dy="5"/>
<feGaussianBlur stdDeviation="2.5"/>
<feComposite in2="hardAlpha" operator="arithmetic" k2="-1" k3="1"/>
<feColorMatrix type="matrix" values="0 0 0 0 1 0 0 0 0 1 0 0 0 0 1 0 0 0 0.2 0"/>
<feBlend mode="normal" in2="effect1_innerShadow_1484_11592" result="effect2_innerShadow_1484_11592"/>
</filter>
</defs>
</svg>
