<svg width="17" height="13" viewBox="0 0 17 13" fill="none" xmlns="http://www.w3.org/2000/svg">
<path fill-rule="evenodd" clip-rule="evenodd" d="M6.72667 5.85137L2.06739 1.19007C2.02047 1.14314 2.0273 1.06587 2.08174 1.02791C2.55696 0.696517 3.13516 0.5 3.75803 0.5H13.3897C14.0126 0.5 14.5908 0.696483 15.066 1.02791C15.1204 1.06587 15.1272 1.14314 15.0803 1.19007L10.421 5.85137C9.404 6.86649 7.74287 6.86561 6.72667 5.85137Z" fill="#F4C63B"/>
<path d="M0.822266 3.43573C0.822266 2.94595 0.943699 2.48319 1.1576 2.07645C1.19105 2.01282 1.27583 1.99995 1.32666 2.05078L5.92696 6.65108C7.38372 8.10996 9.76315 8.11081 11.2208 6.65108L15.8211 2.05078C15.8719 1.99995 15.9567 2.01282 15.9902 2.07645C16.204 2.48319 16.3255 2.94599 16.3255 3.43573V9.56424C16.3255 11.1842 15.0077 12.5 13.3897 12.5H3.75803C2.14008 12.5 0.822266 11.1842 0.822266 9.56424V3.43573Z" fill="#009EB4"/>
</svg>
