<svg width="36" height="36" viewBox="0 0 36 36" fill="none" xmlns="http://www.w3.org/2000/svg">
<g filter="url(#filter0_ii_1484_11461)">
<rect width="36" height="36" rx="10" fill="#E2574C"/>
<g clip-path="url(#clip0_1484_11461)">
<path d="M18 30C24.6274 30 30 24.6274 30 18C30 11.3726 24.6274 6 18 6C11.3726 6 6 11.3726 6 18C6 24.6274 11.3726 30 18 30Z" fill="white"/>
<path fill-rule="evenodd" clip-rule="evenodd" d="M18.6362 13.6676C20.025 12.1655 22.3021 12.1604 23.6957 13.6676C25.0872 15.1725 25.0872 17.6347 23.6958 19.1396C21.9193 21.0609 20.1432 22.9821 18.3667 24.9033C18.2686 25.0094 18.1442 25.0638 17.9996 25.0638C17.855 25.0638 17.7306 25.0094 17.6325 24.9033C15.8561 22.9821 14.0797 21.0609 12.3033 19.1397C10.9119 17.6349 10.9119 15.1725 12.3033 13.6678C13.6948 12.1628 15.9715 12.1628 17.3629 13.6677L17.9995 14.3562L18.6362 13.6676Z" fill="#E26D63"/>
</g>
</g>
<defs>
<filter id="filter0_ii_1484_11461" x="0" y="-5" width="36" height="46" filterUnits="userSpaceOnUse" color-interpolation-filters="sRGB">
<feFlood flood-opacity="0" result="BackgroundImageFix"/>
<feBlend mode="normal" in="SourceGraphic" in2="BackgroundImageFix" result="shape"/>
<feColorMatrix in="SourceAlpha" type="matrix" values="0 0 0 0 0 0 0 0 0 0 0 0 0 0 0 0 0 0 127 0" result="hardAlpha"/>
<feOffset dy="-5"/>
<feGaussianBlur stdDeviation="2.5"/>
<feComposite in2="hardAlpha" operator="arithmetic" k2="-1" k3="1"/>
<feColorMatrix type="matrix" values="0 0 0 0 0 0 0 0 0 0 0 0 0 0 0 0 0 0 0.2 0"/>
<feBlend mode="normal" in2="shape" result="effect1_innerShadow_1484_11461"/>
<feColorMatrix in="SourceAlpha" type="matrix" values="0 0 0 0 0 0 0 0 0 0 0 0 0 0 0 0 0 0 127 0" result="hardAlpha"/>
<feOffset dy="5"/>
<feGaussianBlur stdDeviation="2.5"/>
<feComposite in2="hardAlpha" operator="arithmetic" k2="-1" k3="1"/>
<feColorMatrix type="matrix" values="0 0 0 0 1 0 0 0 0 1 0 0 0 0 1 0 0 0 0.2 0"/>
<feBlend mode="normal" in2="effect1_innerShadow_1484_11461" result="effect2_innerShadow_1484_11461"/>
</filter>
<clipPath id="clip0_1484_11461">
<rect width="24" height="24" fill="white" transform="translate(6 6)"/>
</clipPath>
</defs>
</svg>
