<svg width="12" height="10" viewBox="0 0 12 10" fill="none" xmlns="http://www.w3.org/2000/svg">
<path fill-rule="evenodd" clip-rule="evenodd" d="M4.7683 0.574219H7.08312C9.26541 0.574219 10.3568 0.574219 11.0345 1.25246C11.7122 1.9307 11.7127 3.02156 11.7127 5.20385C11.7127 7.38614 11.7127 8.47757 11.0345 9.15524C10.3563 9.8329 9.26541 9.83348 7.08312 9.83348H4.7683C2.58601 9.83348 1.49457 9.83348 0.816913 9.15524C0.139251 8.477 0.138672 7.38614 0.138672 5.20385C0.138672 3.02156 0.138672 1.93012 0.816913 1.25246C1.49515 0.574797 2.58601 0.574219 4.7683 0.574219ZM6.64909 3.46774C6.64909 3.35263 6.69482 3.24223 6.77621 3.16083C6.85761 3.07944 6.96801 3.03371 7.08312 3.03371H9.97663C10.0917 3.03371 10.2021 3.07944 10.2835 3.16083C10.3649 3.24223 10.4107 3.35263 10.4107 3.46774C10.4107 3.58285 10.3649 3.69324 10.2835 3.77464C10.2021 3.85604 10.0917 3.90177 9.97663 3.90177H7.08312C6.96801 3.90177 6.85761 3.85604 6.77621 3.77464C6.69482 3.69324 6.64909 3.58285 6.64909 3.46774ZM7.22779 5.20385C7.22779 5.08874 7.27352 4.97834 7.35492 4.89694C7.43631 4.81555 7.54671 4.76982 7.66182 4.76982H9.97663C10.0917 4.76982 10.2021 4.81555 10.2835 4.89694C10.3649 4.97834 10.4107 5.08874 10.4107 5.20385C10.4107 5.31896 10.3649 5.42936 10.2835 5.51075C10.2021 5.59215 10.0917 5.63788 9.97663 5.63788H7.66182C7.54671 5.63788 7.43631 5.59215 7.35492 5.51075C7.27352 5.42936 7.22779 5.31896 7.22779 5.20385ZM7.8065 6.93996C7.8065 6.82485 7.85222 6.71445 7.93362 6.63306C8.01502 6.55166 8.12541 6.50593 8.24052 6.50593H9.97663C10.0917 6.50593 10.2021 6.55166 10.2835 6.63306C10.3649 6.71445 10.4107 6.82485 10.4107 6.93996C10.4107 7.05507 10.3649 7.16547 10.2835 7.24686C10.2021 7.32826 10.0917 7.37399 9.97663 7.37399H8.24052C8.12541 7.37399 8.01502 7.32826 7.93362 7.24686C7.85222 7.16547 7.8065 7.05507 7.8065 6.93996ZM5.34701 3.46774C5.34701 3.7747 5.22506 4.06909 5.00801 4.28615C4.79095 4.5032 4.49656 4.62514 4.1896 4.62514C3.88263 4.62514 3.58824 4.5032 3.37119 4.28615C3.15413 4.06909 3.03219 3.7747 3.03219 3.46774C3.03219 3.16077 3.15413 2.86638 3.37119 2.64933C3.58824 2.43227 3.88263 2.31033 4.1896 2.31033C4.49656 2.31033 4.79095 2.43227 5.00801 2.64933C5.22506 2.86638 5.34701 3.16077 5.34701 3.46774ZM4.1896 8.09737C6.50441 8.09737 6.50441 7.57943 6.50441 6.93996C6.50441 6.30049 5.46853 5.78255 4.1896 5.78255C2.91066 5.78255 1.87478 6.30049 1.87478 6.93996C1.87478 7.57943 1.87478 8.09737 4.1896 8.09737Z" fill="white"/>
</svg>
