<svg width="11" height="13" viewBox="0 0 11 13" fill="none" xmlns="http://www.w3.org/2000/svg">
<path d="M10.2535 4.42195C9.63832 1.71756 7.27708 0.5 5.20294 0.5C5.20294 0.5 5.20294 0.5 5.19708 0.5C3.12878 0.5 0.761678 1.71171 0.146466 4.4161C-0.539055 7.43658 1.31244 9.99463 2.98816 11.6044C3.60923 12.2015 4.40609 12.5 5.20294 12.5C5.99978 12.5 6.79663 12.2015 7.41184 11.6044C9.08756 9.99463 10.9391 7.44244 10.2535 4.42195ZM5.20294 7.35463C4.18344 7.35463 3.35729 6.52927 3.35729 5.51073C3.35729 4.4922 4.18344 3.66683 5.20294 3.66683C6.22243 3.66683 7.04857 4.4922 7.04857 5.51073C7.04857 6.52927 6.22243 7.35463 5.20294 7.35463Z" fill="#009EB4"/>
</svg>
