<svg width="36" height="36" viewBox="0 0 36 36" fill="none" xmlns="http://www.w3.org/2000/svg">
<g filter="url(#filter0_ii_1484_11396)">
<rect width="36" height="36" rx="10" fill="#DFC3AB"/>
<g clip-path="url(#clip0_1484_11396)">
<path d="M28.4039 18.3109C28.3074 18.1134 28.3074 17.8868 28.4039 17.6892L29.299 15.8581C29.7974 14.8385 29.4025 13.6233 28.4001 13.0914L26.5996 12.1361C26.4054 12.0331 26.2722 11.8497 26.2342 11.6332L25.8821 9.62557C25.686 8.50779 24.652 7.75667 23.5286 7.91562L21.5105 8.20109C21.2927 8.23184 21.0773 8.16181 20.9193 8.00895L19.4544 6.59183C18.6387 5.80275 17.3609 5.8027 16.5453 6.59183L15.0803 8.00909C14.9223 8.162 14.7069 8.23189 14.4891 8.20123L12.471 7.91576C11.3472 7.75672 10.3136 8.50793 10.1175 9.62571L9.76541 11.6332C9.7274 11.8498 9.59422 12.0331 9.40002 12.1362L7.59956 13.0915C6.5971 13.6233 6.20223 14.8386 6.7006 15.8582L7.59567 17.6893C7.69224 17.8869 7.69224 18.1135 7.59567 18.311L6.70055 20.1421C6.20218 21.1617 6.59705 22.3769 7.59952 22.9088L9.39998 23.8641C9.59422 23.9672 9.7274 24.1505 9.76541 24.3671L10.1175 26.3747C10.296 27.3922 11.1686 28.1058 12.1713 28.1057C12.2701 28.1057 12.3703 28.0988 12.4711 28.0846L14.4892 27.7991C14.7068 27.7682 14.9223 27.8384 15.0804 27.9912L16.5453 29.4083C16.9532 29.8029 17.4764 30.0002 17.9998 30.0001C18.5231 30.0001 19.0466 29.8028 19.4543 29.4083L20.9193 27.9912C21.0773 27.8384 21.2927 27.7685 21.5105 27.7991L23.5286 28.0846C24.6525 28.2436 25.686 27.4924 25.8821 26.3746L26.2342 24.3671C26.2722 24.1505 26.4054 23.9672 26.5996 23.8641L28.4001 22.9088C29.4025 22.377 29.7974 21.1617 29.299 20.1421L28.4039 18.3109ZM15.2313 11.7711C16.6306 11.7711 17.7691 12.9096 17.7691 14.3089C17.7691 15.7082 16.6306 16.8466 15.2313 16.8466C13.832 16.8466 12.6936 15.7082 12.6936 14.3089C12.6936 12.9096 13.832 11.7711 15.2313 11.7711ZM13.9215 23.0571C13.7863 23.1923 13.6092 23.2599 13.4321 23.2599C13.255 23.2599 13.0778 23.1923 12.9427 23.0571C12.6724 22.7869 12.6724 22.3486 12.9427 22.0784L22.0781 12.943C22.3483 12.6727 22.7866 12.6727 23.0569 12.943C23.3272 13.2133 23.3272 13.6515 23.0569 13.9218L13.9215 23.0571ZM20.7682 24.2291C19.3689 24.2291 18.2304 23.0907 18.2304 21.6914C18.2304 20.2921 19.3689 19.1536 20.7682 19.1536C22.1675 19.1536 23.3059 20.2921 23.3059 21.6914C23.3059 23.0907 22.1675 24.2291 20.7682 24.2291Z" fill="white"/>
<path d="M20.7688 20.5391C20.1327 20.5391 19.6152 21.0565 19.6152 21.6926C19.6152 22.3286 20.1327 22.846 20.7688 22.846C21.4048 22.846 21.9223 22.3286 21.9223 21.6926C21.9223 21.0565 21.4048 20.5391 20.7688 20.5391Z" fill="white"/>
<path d="M15.2316 13.1562C14.5956 13.1562 14.0781 13.6737 14.0781 14.3097C14.0781 14.9458 14.5956 15.4633 15.2316 15.4633C15.8677 15.4633 16.3852 14.9458 16.3852 14.3097C16.3851 13.6737 15.8677 13.1562 15.2316 13.1562Z" fill="white"/>
</g>
</g>
<defs>
<filter id="filter0_ii_1484_11396" x="0" y="-5" width="36" height="46" filterUnits="userSpaceOnUse" color-interpolation-filters="sRGB">
<feFlood flood-opacity="0" result="BackgroundImageFix"/>
<feBlend mode="normal" in="SourceGraphic" in2="BackgroundImageFix" result="shape"/>
<feColorMatrix in="SourceAlpha" type="matrix" values="0 0 0 0 0 0 0 0 0 0 0 0 0 0 0 0 0 0 127 0" result="hardAlpha"/>
<feOffset dy="-5"/>
<feGaussianBlur stdDeviation="2.5"/>
<feComposite in2="hardAlpha" operator="arithmetic" k2="-1" k3="1"/>
<feColorMatrix type="matrix" values="0 0 0 0 0 0 0 0 0 0 0 0 0 0 0 0 0 0 0.2 0"/>
<feBlend mode="normal" in2="shape" result="effect1_innerShadow_1484_11396"/>
<feColorMatrix in="SourceAlpha" type="matrix" values="0 0 0 0 0 0 0 0 0 0 0 0 0 0 0 0 0 0 127 0" result="hardAlpha"/>
<feOffset dy="5"/>
<feGaussianBlur stdDeviation="2.5"/>
<feComposite in2="hardAlpha" operator="arithmetic" k2="-1" k3="1"/>
<feColorMatrix type="matrix" values="0 0 0 0 1 0 0 0 0 1 0 0 0 0 1 0 0 0 0.2 0"/>
<feBlend mode="normal" in2="effect1_innerShadow_1484_11396" result="effect2_innerShadow_1484_11396"/>
</filter>
<clipPath id="clip0_1484_11396">
<rect width="24" height="24" fill="white" transform="translate(6 6)"/>
</clipPath>
</defs>
</svg>
