<svg width="16" height="16" viewBox="0 0 16 16" fill="none" xmlns="http://www.w3.org/2000/svg">
<path d="M7.10767 10.3751L10.0392 4.36785L10.1517 4.42285C10.5127 4.5991 10.6634 5.03635 10.4872 5.39735L8.78043 8.8946C8.62918 9.20485 8.75792 9.5791 9.06817 9.7306C9.37467 9.8796 9.75417 9.7501 9.90417 9.4431L11.6107 5.9456C12.0889 4.9651 11.6804 3.7781 10.6999 3.2996L10.5807 3.24135C10.9987 2.20785 10.4324 0.946604 9.26592 0.377604C8.05417 -0.213896 6.65042 0.162854 6.13617 1.21635L2.71342 8.2306C1.86467 9.9701 1.64992 11.9519 2.09267 13.9614C2.13367 14.1476 2.25767 14.3049 2.42892 14.3886C2.59992 14.4721 2.80117 14.4729 2.97267 14.3909C4.82917 13.5029 6.25892 12.1144 7.10767 10.3751ZM7.25942 1.7646C7.39117 1.49435 7.70692 1.34685 8.06842 1.34685C8.27842 1.34685 8.50367 1.3966 8.71742 1.50085C9.29967 1.78485 9.61543 2.3856 9.40718 2.8126L6.05767 9.6766C5.25817 9.52685 4.51992 9.1666 3.91017 8.6286L7.25942 1.7646ZM3.17342 12.8631C3.05092 11.8196 3.13792 10.7999 3.42442 9.84335C4.01517 10.2896 4.68367 10.6159 5.39917 10.8071C4.82142 11.6216 4.07117 12.3176 3.17342 12.8631Z" fill="#272727"/>
<path d="M14.0741 14.3555C13.9291 14.0423 13.5576 13.9063 13.2444 14.051C12.7084 14.2995 12.1421 14.476 11.5609 14.5763C11.4414 14.597 11.3576 14.5983 11.3064 14.5935C11.3049 14.5875 11.3036 14.581 11.3021 14.575C11.2739 14.4533 11.2349 14.2865 11.1266 14.118C10.8581 13.6985 10.2941 13.5173 9.75664 13.676C9.47589 13.759 9.23914 13.9285 8.98389 14.0648C8.71089 14.2105 8.39289 14.2713 8.07939 14.238C7.99164 13.91 7.79489 13.6115 7.53264 13.417C7.27539 13.226 6.96814 13.1455 6.66689 13.193C6.34214 13.2428 6.10514 13.4233 5.94839 13.5425L4.31964 14.782C4.04514 14.9913 3.99189 15.3833 4.20089 15.658C4.40589 15.9273 4.80864 15.981 5.07689 15.7768C5.65414 15.3375 6.23189 14.8993 6.80814 14.4585C6.83414 14.6753 6.99189 15.051 7.15389 15.2023C7.55839 15.58 8.14114 15.592 8.65364 15.4823C8.78614 15.4538 10.1214 15.0228 10.0899 14.882C10.2726 15.6948 11.0241 15.9368 11.7724 15.8083C12.4621 15.6895 13.1339 15.48 13.7694 15.1855C14.0829 15.04 14.2191 14.6685 14.0741 14.3555Z" fill="#272727"/>
</svg>
