<svg width="36" height="36" viewBox="0 0 36 36" fill="none" xmlns="http://www.w3.org/2000/svg">
<g filter="url(#filter0_ii_1484_11629)">
<rect width="36" height="36" rx="10" fill="#FF9800"/>
<path d="M22 12V13H22.75C24.5449 13 26 14.4551 26 16.25V23.75C26 25.5449 24.5449 27 22.75 27H13.25C11.4551 27 10 25.5449 10 23.75V16.25C10 14.4551 11.4551 13 13.25 13H14V12C14 9.79086 15.7909 8 18 8C20.2091 8 22 9.79086 22 12ZM15.5 12V13H20.5V12C20.5 10.6193 19.3807 9.5 18 9.5C16.6193 9.5 15.5 10.6193 15.5 12ZM18 21.5C18.8284 21.5 19.5 20.8284 19.5 20C19.5 19.1716 18.8284 18.5 18 18.5C17.1716 18.5 16.5 19.1716 16.5 20C16.5 20.8284 17.1716 21.5 18 21.5Z" fill="white"/>
</g>
<defs>
<filter id="filter0_ii_1484_11629" x="0" y="-5" width="36" height="46" filterUnits="userSpaceOnUse" color-interpolation-filters="sRGB">
<feFlood flood-opacity="0" result="BackgroundImageFix"/>
<feBlend mode="normal" in="SourceGraphic" in2="BackgroundImageFix" result="shape"/>
<feColorMatrix in="SourceAlpha" type="matrix" values="0 0 0 0 0 0 0 0 0 0 0 0 0 0 0 0 0 0 127 0" result="hardAlpha"/>
<feOffset dy="-5"/>
<feGaussianBlur stdDeviation="2.5"/>
<feComposite in2="hardAlpha" operator="arithmetic" k2="-1" k3="1"/>
<feColorMatrix type="matrix" values="0 0 0 0 0 0 0 0 0 0 0 0 0 0 0 0 0 0 0.2 0"/>
<feBlend mode="normal" in2="shape" result="effect1_innerShadow_1484_11629"/>
<feColorMatrix in="SourceAlpha" type="matrix" values="0 0 0 0 0 0 0 0 0 0 0 0 0 0 0 0 0 0 127 0" result="hardAlpha"/>
<feOffset dy="5"/>
<feGaussianBlur stdDeviation="2.5"/>
<feComposite in2="hardAlpha" operator="arithmetic" k2="-1" k3="1"/>
<feColorMatrix type="matrix" values="0 0 0 0 1 0 0 0 0 1 0 0 0 0 1 0 0 0 0.2 0"/>
<feBlend mode="normal" in2="effect1_innerShadow_1484_11629" result="effect2_innerShadow_1484_11629"/>
</filter>
</defs>
</svg>
