<svg width="36" height="36" viewBox="0 0 36 36" fill="none" xmlns="http://www.w3.org/2000/svg">
<g filter="url(#filter0_ii_1484_11561)">
<rect width="36" height="36" rx="10" fill="#00BCD4"/>
<path d="M18.0122 8.25C18.7462 8.25846 19.4773 8.34326 20.1937 8.50304C20.5064 8.57279 20.7403 8.83351 20.7758 9.15196L20.946 10.6788C21.0231 11.3799 21.615 11.9108 22.3206 11.9116C22.5103 11.9119 22.6979 11.8724 22.8732 11.7948L24.2738 11.1796C24.5651 11.0516 24.9055 11.1214 25.1229 11.3536C26.1351 12.4346 26.8889 13.7311 27.3277 15.1456C27.4223 15.4506 27.3134 15.782 27.0564 15.9715L25.8149 16.8866C25.4607 17.1468 25.2516 17.56 25.2516 17.9995C25.2516 18.4389 25.4607 18.8521 25.8157 19.1129L27.0582 20.0283C27.3153 20.2177 27.4243 20.5492 27.3297 20.8543C26.8911 22.2685 26.1377 23.5649 25.1261 24.6461C24.9089 24.8783 24.5688 24.9483 24.2775 24.8206L22.8712 24.2045C22.4688 24.0284 22.0068 24.0542 21.6265 24.274C21.2463 24.4937 20.9933 24.8812 20.945 25.3177L20.7759 26.8444C20.741 27.1592 20.5122 27.4182 20.204 27.4915C18.7556 27.8361 17.2465 27.8361 15.798 27.4915C15.4899 27.4182 15.261 27.1592 15.2262 26.8444L15.0574 25.32C15.0078 24.8843 14.7543 24.498 14.3744 24.279C13.9945 24.06 13.5332 24.0343 13.1322 24.2094L11.7256 24.8256C11.4342 24.9533 11.094 24.8833 10.8768 24.6509C9.86462 23.5685 9.11119 22.2705 8.6732 20.8548C8.57886 20.5499 8.68786 20.2186 8.94485 20.0293L10.1882 19.1133C10.5423 18.8531 10.7515 18.4399 10.7515 18.0005C10.7515 17.561 10.5423 17.1478 10.1877 16.8873L8.94516 15.9728C8.6878 15.7834 8.5787 15.4518 8.67337 15.1466C9.11212 13.7321 9.86594 12.4356 10.8781 11.3546C11.0956 11.1224 11.4359 11.0526 11.7272 11.1806L13.1276 11.7957C13.5306 11.9726 13.9938 11.9458 14.3758 11.7227C14.7561 11.5021 15.0093 11.1142 15.0582 10.6776L15.2282 9.15196C15.2638 8.83335 15.4979 8.57254 15.8108 8.50294C16.5281 8.34342 17.26 8.25865 18.0122 8.25ZM17.9997 15C16.3428 15 14.9997 16.3431 14.9997 18C14.9997 19.6568 16.3428 21 17.9997 21C19.6565 21 20.9997 19.6568 20.9997 18C20.9997 16.3431 19.6565 15 17.9997 15Z" fill="white"/>
</g>
<defs>
<filter id="filter0_ii_1484_11561" x="0" y="-5" width="36" height="46" filterUnits="userSpaceOnUse" color-interpolation-filters="sRGB">
<feFlood flood-opacity="0" result="BackgroundImageFix"/>
<feBlend mode="normal" in="SourceGraphic" in2="BackgroundImageFix" result="shape"/>
<feColorMatrix in="SourceAlpha" type="matrix" values="0 0 0 0 0 0 0 0 0 0 0 0 0 0 0 0 0 0 127 0" result="hardAlpha"/>
<feOffset dy="-5"/>
<feGaussianBlur stdDeviation="2.5"/>
<feComposite in2="hardAlpha" operator="arithmetic" k2="-1" k3="1"/>
<feColorMatrix type="matrix" values="0 0 0 0 0 0 0 0 0 0 0 0 0 0 0 0 0 0 0.2 0"/>
<feBlend mode="normal" in2="shape" result="effect1_innerShadow_1484_11561"/>
<feColorMatrix in="SourceAlpha" type="matrix" values="0 0 0 0 0 0 0 0 0 0 0 0 0 0 0 0 0 0 127 0" result="hardAlpha"/>
<feOffset dy="5"/>
<feGaussianBlur stdDeviation="2.5"/>
<feComposite in2="hardAlpha" operator="arithmetic" k2="-1" k3="1"/>
<feColorMatrix type="matrix" values="0 0 0 0 1 0 0 0 0 1 0 0 0 0 1 0 0 0 0.2 0"/>
<feBlend mode="normal" in2="effect1_innerShadow_1484_11561" result="effect2_innerShadow_1484_11561"/>
</filter>
</defs>
</svg>
