<svg width="36" height="36" viewBox="0 0 36 36" fill="none" xmlns="http://www.w3.org/2000/svg">
<g filter="url(#filter0_ii_1484_11495)">
<rect width="36" height="36" rx="10" fill="#B02761"/>
<g clip-path="url(#clip0_1484_11495)">
<path d="M16.5705 21.1447C16.1128 21.1447 15.6824 20.9663 15.3582 20.6426C12.7973 18.0815 12.7973 13.9142 15.3582 11.3532L18.7903 7.92108C20.0289 6.68222 21.6783 6 23.4348 6C25.1914 6 26.8407 6.68222 28.0793 7.92108C30.6402 10.4821 30.6402 14.6493 28.0793 17.2103L25.7914 19.4984C25.4676 19.8223 25.0373 20.0006 24.579 20.0008C24.1213 20.0008 23.691 19.8224 23.3667 19.4987C23.043 19.1748 22.8643 18.7442 22.8643 18.2861C22.8643 17.8281 23.0429 17.3975 23.3667 17.0736L25.6546 14.7855C26.8787 13.5615 26.8787 11.57 25.6546 10.346C25.063 9.75436 24.2743 9.42839 23.4348 9.42839C22.5953 9.42839 21.8067 9.75436 21.215 10.346L17.7829 13.7782C16.5588 15.0021 16.5588 16.9936 17.7829 18.2175C18.4515 18.8861 18.4515 19.974 17.7829 20.6425C17.4585 20.9664 17.0282 21.1447 16.5705 21.1447Z" fill="white"/>
<path d="M12.5661 30C10.8096 30 9.16016 29.3178 7.92163 28.079C5.36076 25.5179 5.36076 21.3507 7.92163 18.7897L9.63801 17.0735C9.96173 16.7497 10.3926 16.5714 10.8503 16.5714C11.308 16.5714 11.7389 16.7498 12.0627 17.0737C12.3864 17.3975 12.565 17.8281 12.565 18.2861C12.565 18.7442 12.3864 19.1748 12.0627 19.4987L10.3463 21.2148C9.12224 22.4385 9.12224 24.4301 10.3463 25.654C10.9379 26.2457 11.7266 26.5716 12.5661 26.5716C13.4056 26.5716 14.1943 26.2458 14.7859 25.654L18.2181 22.2219C19.4421 20.998 19.4421 19.0064 18.2181 17.7825C17.8943 17.4586 17.7157 17.028 17.7157 16.57C17.7157 16.112 17.8943 15.6814 18.2181 15.3575C18.5418 15.0337 18.9727 14.8555 19.4304 14.8555C19.8881 14.8555 20.319 15.0336 20.6427 15.3574C23.2036 17.9186 23.2036 22.0858 20.6427 24.6468L17.2106 28.079C15.972 29.3178 14.3226 30 12.5661 30Z" fill="white"/>
</g>
</g>
<defs>
<filter id="filter0_ii_1484_11495" x="0" y="-5" width="36" height="46" filterUnits="userSpaceOnUse" color-interpolation-filters="sRGB">
<feFlood flood-opacity="0" result="BackgroundImageFix"/>
<feBlend mode="normal" in="SourceGraphic" in2="BackgroundImageFix" result="shape"/>
<feColorMatrix in="SourceAlpha" type="matrix" values="0 0 0 0 0 0 0 0 0 0 0 0 0 0 0 0 0 0 127 0" result="hardAlpha"/>
<feOffset dy="-5"/>
<feGaussianBlur stdDeviation="2.5"/>
<feComposite in2="hardAlpha" operator="arithmetic" k2="-1" k3="1"/>
<feColorMatrix type="matrix" values="0 0 0 0 0 0 0 0 0 0 0 0 0 0 0 0 0 0 0.2 0"/>
<feBlend mode="normal" in2="shape" result="effect1_innerShadow_1484_11495"/>
<feColorMatrix in="SourceAlpha" type="matrix" values="0 0 0 0 0 0 0 0 0 0 0 0 0 0 0 0 0 0 127 0" result="hardAlpha"/>
<feOffset dy="5"/>
<feGaussianBlur stdDeviation="2.5"/>
<feComposite in2="hardAlpha" operator="arithmetic" k2="-1" k3="1"/>
<feColorMatrix type="matrix" values="0 0 0 0 1 0 0 0 0 1 0 0 0 0 1 0 0 0 0.2 0"/>
<feBlend mode="normal" in2="effect1_innerShadow_1484_11495" result="effect2_innerShadow_1484_11495"/>
</filter>
<clipPath id="clip0_1484_11495">
<rect width="24" height="24" fill="white" transform="translate(6 6)"/>
</clipPath>
</defs>
</svg>
