<svg width="19" height="19" viewBox="0 0 19 19" fill="none" xmlns="http://www.w3.org/2000/svg">
<path d="M8.95816 10.9033C8.7446 11.226 8.56957 11.4852 8.41504 11.7395C8.11868 12.2556 7.86047 12.795 7.47519 13.2571C7.40839 13.3384 7.3874 13.4301 7.33335 13.519C7.19921 13.7682 7.05241 14.0097 6.92612 14.2463C6.80746 14.47 6.70156 14.7016 6.55972 14.9635C6.45259 14.968 6.31225 14.9697 6.18738 14.946C5.98346 14.9091 5.91269 14.7964 5.9955 14.6031C6.1014 14.3715 6.22783 14.1349 6.38461 13.9343C6.5337 13.7464 6.63189 13.5275 6.69695 13.306C6.77522 13.0055 6.91697 12.7435 7.097 12.5047C7.1715 12.4107 7.22064 12.3013 7.27748 12.1792C7.43749 11.8586 7.59754 11.5382 7.75754 11.2176C7.95892 10.8004 8.18075 10.3781 8.39761 9.93547C8.21195 9.83998 8.0611 9.88756 7.89262 9.90706C7.67058 9.92874 7.44349 9.92998 7.22916 9.93897C7.18824 9.94895 7.14241 9.93846 7.08881 9.94073C6.08511 10.1315 5.07642 10.3016 4.08546 10.5C3.63084 10.5893 3.16849 10.6911 2.71895 10.8008C2.37152 10.8855 2.01633 10.9831 1.68656 11.0959C1.42589 11.1811 1.19554 11.3022 0.93488 11.3874C0.564282 11.5103 0.391233 11.4226 0.21256 11.0006C0.674881 10.8987 0.970783 10.4692 1.44082 10.3545C1.82917 10.2598 2.2252 10.1524 2.60848 10.0373C3.4519 9.76662 4.33525 9.65938 5.2036 9.49095C5.99016 9.34238 6.77912 9.24746 7.54077 8.99667C7.60207 8.98172 7.65845 8.94629 7.76838 8.90869C7.67438 8.83419 7.60589 8.77507 7.54231 8.73642C6.95713 8.46778 6.45685 8.05926 5.91031 7.72705C5.63066 7.55706 5.34328 7.39974 5.07134 7.21708C4.93151 7.13209 4.79447 7.01394 4.69822 6.88585C4.50076 6.60919 4.28022 6.3707 3.96742 6.19793C3.67508 6.02024 3.62243 5.84896 3.78254 5.52844C3.89971 5.56481 4.00405 5.59351 4.11352 5.64256C4.56885 5.86712 5.02419 6.09168 5.45915 6.32122C5.83544 6.53259 6.19921 6.73622 6.55232 6.98571C6.99446 7.28931 7.49071 7.50389 8.00963 7.7671C8.10057 7.47425 7.98723 7.23122 7.91962 6.99864C7.88201 6.88871 7.82893 6.80423 7.79132 6.69431C7.46253 5.74598 7.14159 4.78492 6.82055 3.82383C6.58478 3.1234 6.38986 2.41309 6.35844 1.66289C6.35617 1.6093 6.34122 1.548 6.33124 1.50708C6.257 1.11383 6.31923 0.925323 6.79759 0.711296C6.94337 0.643266 7.06825 0.666957 7.13628 0.812739C7.23973 1.0149 7.34311 1.21702 7.38525 1.43412C7.51164 2.0854 7.70706 2.70898 7.91512 3.34034C7.93007 3.40165 7.95779 3.47071 7.97274 3.53201C8.21972 4.5003 8.46676 5.46867 8.71374 6.43696C8.84113 6.91475 8.96841 7.39258 9.11626 7.86531C9.15387 7.97523 9.21201 8.08015 9.29001 8.26684C9.38271 8.11433 9.44951 8.03301 9.49088 7.93637C9.90937 6.99019 10.4325 6.07218 10.938 5.12615C11.0876 4.85146 11.1989 4.55363 11.3231 4.2635C11.4395 3.98612 11.5659 3.74957 11.8094 3.54942C12.0607 3.33655 12.3208 3.33804 12.5905 3.46713C12.6745 3.5008 12.743 3.55983 12.8447 3.62165C12.0369 5.23704 11.2319 6.81917 10.4163 8.44717C10.5208 8.47584 10.592 8.50175 10.666 8.49455C11.4294 8.38412 12.2156 8.32233 12.9391 8.04837C13.0772 7.99302 13.2202 7.9582 13.3633 7.92324C14.2013 7.71885 15.0342 7.49404 15.8848 7.29737C16.5184 7.14285 17.162 7.02914 17.7928 6.90784C17.9282 6.8857 18.0586 6.84303 18.1443 7.01703C18.2251 7.17058 18.2014 7.29545 18.0755 7.44526C17.9419 7.60774 17.7806 7.70122 17.5635 7.74338C16.9454 7.87245 16.3273 8.0016 15.7268 8.15887C15.1595 8.31882 14.5972 8.4993 14.035 8.6798C13.9864 8.70246 13.9378 8.72517 13.8764 8.74007C13.5853 8.78947 13.2588 8.78248 12.9826 8.89303C12.7065 9.00373 12.4557 9.12985 12.1647 9.17915C11.7382 9.2507 11.314 9.37582 10.8848 9.48044C10.912 9.63625 11.0495 9.66765 11.1385 9.72171C11.7155 10.0898 12.2924 10.458 12.8772 10.8134L14.428 11.7561C14.5423 11.8256 14.649 11.9078 14.7557 11.9901C14.8624 12.0724 14.9332 12.1851 14.8559 12.3121C14.7913 12.447 14.6887 12.5586 14.5103 12.5372C14.3777 12.5262 14.2478 12.4821 14.1257 12.4253C13.9068 12.3272 13.6753 12.2212 13.4669 12.0771C13.1061 11.8404 12.7192 11.6748 12.3091 11.5475C12.2252 11.5138 12.1412 11.4803 12.0727 11.4211C11.4835 10.9586 10.7601 10.7452 10.1246 10.3589C10.1119 10.3512 10.0787 10.3484 10.0251 10.3507C10.0324 10.4247 10.0192 10.5037 10.0468 10.5727C10.1143 10.8052 10.1692 11.0301 10.2649 11.2449C10.4989 11.805 10.6181 12.3822 10.7168 12.9644C10.8626 13.7842 11.0288 14.5989 11.1619 15.411C11.2579 16.0264 11.3052 16.6644 11.3681 17.2771C11.3897 17.4991 11.4241 17.729 11.4535 17.9383C11.4707 18.0532 11.4725 18.1936 11.3244 18.208C11.2505 18.2152 11.1388 18.1125 11.1112 18.0435C10.8544 17.4349 10.5977 16.8262 10.5122 16.165C10.4417 15.565 10.3176 14.9674 10.1858 14.3824C10.101 14.035 9.95497 13.7025 9.84206 13.3727C9.7895 13.2014 9.72416 13.0225 9.70476 12.854C9.63094 12.3739 9.46767 11.9266 9.20234 11.5041C9.1214 11.3506 9.07654 11.1667 8.95816 10.9032L8.95816 10.9033Z" fill="#009EB4"/>
</svg>
