<svg width="34" height="33" viewBox="0 0 34 33" fill="none" xmlns="http://www.w3.org/2000/svg">
<path d="M16.5303 19.1196C16.1363 19.7152 15.8133 20.1934 15.5281 20.6626C14.9812 21.6149 14.5048 22.6104 13.7938 23.463C13.6706 23.613 13.6318 23.7822 13.5321 23.9463C13.2846 24.4062 13.0137 24.8519 12.7806 25.2883C12.5617 25.7013 12.3663 26.1285 12.1045 26.6118C11.9068 26.6201 11.6479 26.6233 11.4175 26.5796C11.0412 26.5115 10.9106 26.3035 11.0634 25.9467C11.2588 25.5195 11.4921 25.0829 11.7814 24.7128C12.0565 24.366 12.2377 23.9621 12.3578 23.5533C12.5022 22.9987 12.7638 22.5153 13.096 22.0746C13.2334 21.9012 13.3241 21.6993 13.429 21.474C13.7243 20.8825 14.0196 20.2912 14.3148 19.6996C14.6864 18.9298 15.0958 18.1506 15.496 17.3337C15.1534 17.1575 14.875 17.2453 14.5641 17.2813C14.1544 17.3213 13.7353 17.3236 13.3398 17.3402C13.2643 17.3586 13.1797 17.3392 13.0809 17.3434C11.2287 17.6954 9.36743 18.0094 7.53884 18.3754C6.69994 18.5402 5.84676 18.728 5.01723 18.9305C4.37614 19.0869 3.72071 19.2668 3.1122 19.475C2.63118 19.6323 2.20612 19.8557 1.72513 20.013C1.04128 20.2397 0.721952 20.0779 0.392251 19.2992C1.24536 19.1111 1.79138 18.3186 2.65872 18.107C3.37535 17.9322 4.10614 17.734 4.81338 17.5216C6.36973 17.0221 7.99976 16.8242 9.60212 16.5135C11.0535 16.2393 12.5094 16.0641 13.9148 15.6014C14.028 15.5738 14.132 15.5084 14.3348 15.439C14.1614 15.3015 14.035 15.1925 13.9177 15.1211C12.8379 14.6254 11.9147 13.8716 10.9062 13.2586C10.3902 12.9449 9.85986 12.6546 9.35805 12.3175C9.10003 12.1607 8.84716 11.9427 8.66954 11.7063C8.30518 11.1958 7.89822 10.7557 7.32101 10.4369C6.78157 10.109 6.68442 9.79295 6.97985 9.20151C7.19606 9.26863 7.38861 9.32158 7.5906 9.4121C8.43083 9.82648 9.27105 10.2409 10.0737 10.6644C10.768 11.0544 11.4393 11.4302 12.0909 11.8906C12.9067 12.4508 13.8225 12.8468 14.78 13.3325C14.9478 12.7921 14.7387 12.3436 14.6139 11.9144C14.5445 11.7116 14.4466 11.5557 14.3772 11.3529C13.7705 9.60293 13.1782 7.82952 12.5858 6.05604C12.1508 4.76355 11.7911 3.45282 11.7331 2.0685C11.7289 1.9696 11.7013 1.85648 11.6829 1.78098C11.5459 1.05532 11.6608 0.707479 12.5435 0.31254C12.8125 0.187006 13.0429 0.230722 13.1684 0.49973C13.3593 0.872777 13.5501 1.24573 13.6279 1.64635C13.8611 2.84815 14.2217 3.99883 14.6056 5.16387C14.6332 5.27699 14.6844 5.40443 14.712 5.51755C15.1677 7.30431 15.6236 9.09122 16.0793 10.878C16.3144 11.7596 16.5492 12.6414 16.8221 13.5137C16.8915 13.7165 16.9987 13.9101 17.1427 14.2546C17.3137 13.9732 17.437 13.8231 17.5133 13.6448C18.2856 11.8989 19.251 10.2049 20.1837 8.45918C20.4597 7.9523 20.6652 7.40273 20.8943 6.86735C21.109 6.35551 21.3423 5.91899 21.7916 5.54967C22.2553 5.15687 22.7353 5.15962 23.233 5.39782C23.3879 5.45995 23.5144 5.56888 23.7021 5.68295C22.2115 8.66381 20.726 11.5833 19.221 14.5874C19.4138 14.6403 19.5451 14.6881 19.6818 14.6748C21.0905 14.471 22.5411 14.357 23.8762 13.8515C24.131 13.7493 24.395 13.6851 24.659 13.6206C26.2053 13.2434 27.7422 12.8286 29.312 12.4657C30.481 12.1805 31.6687 11.9707 32.8328 11.7469C33.0826 11.706 33.3231 11.6273 33.4813 11.9484C33.6304 12.2317 33.5866 12.4621 33.3543 12.7386C33.1077 13.0384 32.8102 13.2109 32.4095 13.2887C31.269 13.5269 30.1284 13.7652 29.0203 14.0554C27.9735 14.3505 26.936 14.6836 25.8985 15.0167C25.8087 15.0585 25.7192 15.1004 25.6059 15.1279C25.0687 15.219 24.4662 15.2061 23.9566 15.4101C23.447 15.6144 22.9843 15.8471 22.4472 15.9381C21.6602 16.0701 20.8775 16.301 20.0855 16.494C20.1357 16.7816 20.3895 16.8395 20.5536 16.9393C21.6185 17.6186 22.683 18.2979 23.762 18.9538L26.6236 20.6932C26.8347 20.8215 27.0315 20.9732 27.2284 21.1252C27.4253 21.2769 27.5559 21.4848 27.4134 21.7193C27.2941 21.9681 27.1048 22.1742 26.7755 22.1346C26.5308 22.1143 26.2912 22.033 26.0658 21.9282C25.662 21.747 25.2348 21.5515 24.8503 21.2857C24.1844 20.8489 23.4704 20.5433 22.7138 20.3084C22.5589 20.2463 22.4039 20.1843 22.2775 20.0752C21.1902 19.2216 19.8555 18.8279 18.6827 18.1151C18.6593 18.1008 18.5981 18.0957 18.4992 18.0999C18.5126 18.2364 18.4882 18.3823 18.5392 18.5096C18.6638 18.9387 18.765 19.3535 18.9416 19.75C19.3735 20.7834 19.5934 21.8486 19.7755 22.923C20.0445 24.4356 20.3513 25.9391 20.5969 27.4375C20.7739 28.5732 20.8614 29.7505 20.9772 30.881C21.0173 31.2907 21.0807 31.7149 21.1349 32.1012C21.1667 32.3132 21.17 32.5722 20.8968 32.5988C20.7603 32.6122 20.5542 32.4226 20.5032 32.2953C20.0295 31.1722 19.5558 30.049 19.398 28.8289C19.2679 27.7218 19.0388 26.6191 18.7956 25.5396C18.6392 24.8985 18.3697 24.285 18.1614 23.6763C18.0644 23.3603 17.9438 23.0301 17.908 22.7192C17.7718 21.8334 17.4705 21.0079 16.9809 20.2283C16.8315 19.945 16.7488 19.6056 16.5303 19.1195L16.5303 19.1196Z" fill="white"/>
</svg>
