<svg width="24" height="24" viewBox="0 0 24 24" fill="none" xmlns="http://www.w3.org/2000/svg">
<g clip-path="url(#clip0_1823_13021)">
<path d="M9.06108 23.2654C9.06108 23.6711 8.73217 24 8.32646 24H0.735596C0.32989 24 0.000976562 23.6711 0.000976562 23.2654C0.000976562 22.8597 0.32989 22.5308 0.735596 22.5308H8.32646C8.73217 22.5308 9.06108 22.8597 9.06108 23.2654ZM23.9985 4.53249C23.9985 5.74667 23.5284 6.88538 22.6749 7.7389C22.4678 7.94612 22.0929 8.18629 21.3322 8.66683C19.901 9.5709 17.5765 11.0394 15.3847 13.1079L17.2834 15.0065C17.8396 15.5628 18.146 16.3047 18.146 17.0956C18.146 17.8863 17.8395 18.6282 17.2833 19.1845L17.1215 19.3464C17.1214 19.3464 17.1214 19.3465 17.1213 19.3465C16.0587 20.409 14.4258 20.5621 13.199 19.8054L11.5802 21.4242C11.4367 21.5676 11.2487 21.6393 11.0608 21.6393C10.8727 21.6393 10.6848 21.5676 10.5413 21.4242L2.57587 13.4591C2.4381 13.3213 2.36067 13.1345 2.36067 12.9396C2.36067 12.7447 2.43805 12.5579 2.57587 12.4201L4.19452 10.8016C3.88804 10.305 3.72417 9.7308 3.72417 9.13037C3.72422 8.27821 4.05431 7.4788 4.65371 6.8794L4.81586 6.71734C5.9677 5.56556 7.84186 5.56546 8.99379 6.71734L10.8925 8.61594C12.9615 6.42394 14.4299 4.09965 15.3341 2.66842C15.8145 1.90794 16.0547 1.53319 16.2618 1.32602C18.0299 -0.442008 20.9069 -0.442008 22.6749 1.32602C23.5284 2.17955 23.9985 3.31831 23.9985 4.53249ZM12.0996 18.827L5.17313 11.9008L4.13424 12.9396L11.0607 19.8658L12.0996 18.827ZM7.95489 7.75629C7.66545 7.4668 7.28512 7.32203 6.90488 7.32203C6.52454 7.32203 6.1443 7.4668 5.85471 7.75634L5.69256 7.91845C5.37075 8.24021 5.19351 8.6707 5.19346 9.13042C5.19346 9.59014 5.3707 10.0205 5.69256 10.3424L13.6581 18.3076C14.3264 18.9759 15.4138 18.976 16.0822 18.3077L16.2442 18.1457C16.5231 17.8668 16.6767 17.4939 16.6767 17.0955C16.6767 16.6971 16.5232 16.3242 16.2444 16.0455L7.95489 7.75629ZM22.5293 4.53249C22.5293 3.71074 22.212 2.94096 21.636 2.36497C20.4408 1.1698 18.496 1.1698 17.3008 2.36497C17.1956 2.47281 16.8666 2.99361 16.5762 3.45319C15.6383 4.9378 14.1129 7.3524 11.9319 9.65533L14.3453 12.0687C16.6482 9.88791 19.0629 8.3626 20.5476 7.42473C21.0072 7.13436 21.5282 6.80525 21.6363 6.69976C22.212 6.12397 22.5293 5.35423 22.5293 4.53249Z" fill="#009EB4"/>
</g>
<defs>
<clipPath id="clip0_1823_13021">
<rect width="24" height="24" fill="white"/>
</clipPath>
</defs>
</svg>
