<svg width="24" height="24" viewBox="0 0 24 24" fill="none" xmlns="http://www.w3.org/2000/svg">
<g clip-path="url(#clip0_1823_13009)">
<path d="M0.703125 7.43123C1.09144 7.43123 1.40625 7.11642 1.40625 6.72811V1.40625H6.72811C7.11642 1.40625 7.43123 1.09144 7.43123 0.703125C7.43123 0.314812 7.11642 0 6.72811 0H0.703125C0.314812 0 0 0.314812 0 0.703125V6.72811C0 7.11642 0.314812 7.43123 0.703125 7.43123Z" fill="#009EB4"/>
<path d="M6.72811 22.5953H1.40625V17.2734C1.40625 16.8851 1.09144 16.5703 0.703125 16.5703C0.314812 16.5703 0 16.8851 0 17.2734V23.2984C0 23.6867 0.314812 24.0015 0.703125 24.0015H6.72811C7.11642 24.0015 7.43123 23.6867 7.43123 23.2984C7.43123 22.9101 7.11642 22.5953 6.72811 22.5953Z" fill="#009EB4"/>
<path d="M23.2965 0H17.2715C16.8832 0 16.5684 0.314812 16.5684 0.703125C16.5684 1.09144 16.8832 1.40625 17.2715 1.40625H22.5933V6.72811C22.5933 7.11642 22.9082 7.43123 23.2965 7.43123C23.6848 7.43123 23.9996 7.11642 23.9996 6.72811V0.703125C23.9996 0.314812 23.6848 0 23.2965 0Z" fill="#009EB4"/>
<path d="M23.2965 16.5703C22.9082 16.5703 22.5933 16.8851 22.5933 17.2734V22.5953H17.2715C16.8832 22.5953 16.5684 22.9101 16.5684 23.2984C16.5684 23.6867 16.8832 24.0015 17.2715 24.0015H23.2965C23.6848 24.0015 23.9996 23.6867 23.9996 23.2984V17.2734C23.9996 16.8851 23.6848 16.5703 23.2965 16.5703Z" fill="#009EB4"/>
<path d="M23.2966 9.79208C18.6349 9.79208 16.041 13.5577 15.0123 13.5577C14.5982 13.5577 14.8208 12.5451 14.9262 12.2238C15.0778 11.7689 14.7387 11.2984 14.2592 11.2984C13.623 11.2984 13.1328 11.8726 12.4544 12.6674C11.8958 13.3219 11.0516 14.3109 10.4935 14.3109C9.58672 14.3109 10.86 11.3379 11.1224 10.8097C11.2314 10.5918 11.2198 10.3329 11.0916 10.1256C10.9635 9.91827 10.7372 9.79213 10.4935 9.79213C9.80601 9.79213 9.36229 10.5044 7.77435 13.2276C7.14637 14.3047 6.43452 15.5254 5.78741 16.4818C5.07683 17.532 4.68763 17.8966 4.51579 18.0214C4.3259 17.4871 4.3536 15.7775 5.30085 12.5563C6.10954 9.80633 7.26055 7.19141 7.97816 6.47371C8.25276 6.19911 8.25276 5.75394 7.97816 5.47935C7.70361 5.2048 7.2584 5.2048 6.9838 5.47935C5.93057 6.53258 4.75297 9.53352 4.06462 11.7833C2.59672 16.5803 2.61674 19.4827 4.46849 19.4827C5.59644 19.4827 6.7274 17.8017 8.81249 14.2384C8.94965 15.2332 9.63983 15.7171 10.4935 15.7171C11.652 15.7171 12.6305 14.6249 13.4258 13.6952C13.5 14.0309 13.8071 14.964 15.0123 14.964C16.9731 14.964 18.9365 11.1983 23.2966 11.1983C23.6849 11.1983 23.9998 10.8835 23.9998 10.4952C23.9998 10.1069 23.6849 9.79208 23.2966 9.79208Z" fill="#009EB4"/>
</g>
<defs>
<clipPath id="clip0_1823_13009">
<rect width="24" height="24" fill="white"/>
</clipPath>
</defs>
</svg>
