<svg width="36" height="36" viewBox="0 0 36 36" fill="none" xmlns="http://www.w3.org/2000/svg">
<g filter="url(#filter0_ii_1484_11381)">
<path d="M0 10C0 4.47715 4.47715 0 10 0H26C31.5228 0 36 4.47715 36 10V26C36 31.5228 31.5228 36 26 36H10C4.47715 36 0 31.5228 0 26V10Z" fill="#8BC34A"/>
<path d="M23.7545 20.0002C24.9966 20.0002 26.0034 21.007 26.0034 22.2491V23.1675C26.0034 23.7409 25.8242 24.2999 25.4908 24.7664C23.9449 26.9296 21.4206 28.0013 18.0004 28.0013C14.5794 28.0013 12.0564 26.9292 10.5143 24.7648C10.1823 24.2989 10.0039 23.7411 10.0039 23.169V22.2491C10.0039 21.007 11.0108 20.0002 12.2528 20.0002H23.7545ZM18.0004 8.00488C20.7618 8.00488 23.0004 10.2435 23.0004 13.0049C23.0004 15.7663 20.7618 18.0049 18.0004 18.0049C15.2389 18.0049 13.0004 15.7663 13.0004 13.0049C13.0004 10.2435 15.2389 8.00488 18.0004 8.00488Z" fill="white"/>
</g>
<defs>
<filter id="filter0_ii_1484_11381" x="0" y="-5" width="36" height="46" filterUnits="userSpaceOnUse" color-interpolation-filters="sRGB">
<feFlood flood-opacity="0" result="BackgroundImageFix"/>
<feBlend mode="normal" in="SourceGraphic" in2="BackgroundImageFix" result="shape"/>
<feColorMatrix in="SourceAlpha" type="matrix" values="0 0 0 0 0 0 0 0 0 0 0 0 0 0 0 0 0 0 127 0" result="hardAlpha"/>
<feOffset dy="-5"/>
<feGaussianBlur stdDeviation="2.5"/>
<feComposite in2="hardAlpha" operator="arithmetic" k2="-1" k3="1"/>
<feColorMatrix type="matrix" values="0 0 0 0 0 0 0 0 0 0 0 0 0 0 0 0 0 0 0.2 0"/>
<feBlend mode="normal" in2="shape" result="effect1_innerShadow_1484_11381"/>
<feColorMatrix in="SourceAlpha" type="matrix" values="0 0 0 0 0 0 0 0 0 0 0 0 0 0 0 0 0 0 127 0" result="hardAlpha"/>
<feOffset dy="5"/>
<feGaussianBlur stdDeviation="2.5"/>
<feComposite in2="hardAlpha" operator="arithmetic" k2="-1" k3="1"/>
<feColorMatrix type="matrix" values="0 0 0 0 1 0 0 0 0 1 0 0 0 0 1 0 0 0 0.2 0"/>
<feBlend mode="normal" in2="effect1_innerShadow_1484_11381" result="effect2_innerShadow_1484_11381"/>
</filter>
</defs>
</svg>
