<svg width="268" height="46" viewBox="0 0 268 46" fill="none" xmlns="http://www.w3.org/2000/svg">
<g filter="url(#filter0_ii_997_34352)">
<rect y="0.5" width="45" height="45" rx="11.25" fill="#009EB4"/>
<rect x="0.5" y="1" width="44" height="44" rx="10.75" stroke="black" stroke-opacity="0.2"/>
<path fill-rule="evenodd" clip-rule="evenodd" d="M16.4362 17.067H23.2516V11.9707H11.3398V23.8825C11.3398 30.461 16.673 35.7942 23.2516 35.7942C29.8302 35.7942 35.1634 30.461 35.1634 23.8825C35.1634 17.8876 30.7346 12.9279 24.9707 12.0948V17.2858C27.9033 18.0471 30.067 20.7109 30.067 23.8825C30.067 27.6481 27.0172 30.6977 23.2516 30.6979C19.486 30.6979 16.4362 27.6481 16.4362 23.8825H23.2516V21.3268V18.7861H16.4362V17.067Z" fill="white"/>
</g>
<path d="M54.3711 27V8.08398H66.6855V10.9531H57.7988V16.0312H66.0254V18.8623H57.7988V24.1309H66.7363V27H54.3711ZM68.8872 27V8.08398H75.9839C77.4396 8.08398 78.6584 8.35482 79.6401 8.89648C80.6304 9.43815 81.3794 10.1829 81.8872 11.1309C82.395 12.0788 82.6489 13.1536 82.6489 14.3555C82.6489 15.5658 82.3908 16.6449 81.8745 17.5928C81.3667 18.5322 80.6135 19.2728 79.6148 19.8145C78.6161 20.3477 77.3888 20.6143 75.9331 20.6143H71.2359V17.7959H75.4634C76.3182 17.7959 77.0165 17.652 77.5581 17.3643C78.1082 17.068 78.5103 16.6618 78.7642 16.1455C79.0265 15.6208 79.1577 15.0241 79.1577 14.3555C79.1577 13.6784 79.0265 13.0859 78.7642 12.5781C78.5103 12.0618 78.1082 11.6641 77.5581 11.3848C77.0165 11.097 76.314 10.9531 75.4507 10.9531H72.315V27H68.8872ZM84.2031 27V12.8066H87.4405V15.1934H87.5928C87.8467 14.3639 88.291 13.7292 88.9258 13.2891C89.5606 12.8405 90.2842 12.6162 91.0967 12.6162C91.2744 12.6162 91.4776 12.6247 91.7061 12.6416C91.9431 12.6585 92.1377 12.6797 92.2901 12.7051V15.7773C92.1462 15.7266 91.9219 15.6842 91.6172 15.6504C91.3125 15.6165 91.0205 15.5996 90.7412 15.5996C90.1234 15.5996 89.5733 15.7308 89.0908 15.9932C88.6084 16.2555 88.2276 16.6152 87.9483 17.0723C87.6774 17.5293 87.542 18.0625 87.542 18.6719V27H84.2031ZM98.8335 27.2793C97.4455 27.2793 96.2437 26.9746 95.2281 26.3652C94.2124 25.7559 93.4253 24.901 92.8667 23.8008C92.3166 22.7005 92.0415 21.4225 92.0415 19.9668C92.0415 18.5026 92.3166 17.2204 92.8667 16.1201C93.4253 15.0114 94.2124 14.1523 95.2281 13.543C96.2437 12.9336 97.4455 12.6289 98.8335 12.6289C100.222 12.6289 101.423 12.9336 102.439 13.543C103.455 14.1523 104.242 15.0114 104.8 16.1201C105.359 17.2204 105.638 18.5026 105.638 19.9668C105.638 21.4225 105.359 22.7005 104.8 23.8008C104.242 24.901 103.455 25.7559 102.439 26.3652C101.423 26.9746 100.222 27.2793 98.8335 27.2793ZM98.8335 24.5879C99.6037 24.5879 100.238 24.3848 100.738 23.9785C101.237 23.5638 101.61 23.0052 101.855 22.3027C102.109 21.6003 102.236 20.8216 102.236 19.9668C102.236 19.0951 102.109 18.3079 101.855 17.6055C101.61 16.903 101.237 16.3486 100.738 15.9424C100.238 15.5277 99.6037 15.3203 98.8335 15.3203C98.0803 15.3203 97.4497 15.5277 96.9419 15.9424C96.4341 16.3486 96.0533 16.903 95.7994 17.6055C95.5539 18.3079 95.4312 19.0951 95.4312 19.9668C95.4312 20.8216 95.5539 21.6003 95.7994 22.3027C96.0533 23.0052 96.4341 23.5638 96.9419 23.9785C97.4497 24.3848 98.0803 24.5879 98.8335 24.5879ZM113.35 27.2793C111.936 27.2793 110.722 26.9704 109.706 26.3525C108.69 25.7262 107.912 24.863 107.37 23.7627C106.828 22.6624 106.558 21.3971 106.558 19.9668C106.558 18.5195 106.833 17.2458 107.383 16.1455C107.933 15.0452 108.716 14.1862 109.731 13.5684C110.747 12.9421 111.945 12.6289 113.324 12.6289C114.484 12.6289 115.508 12.8405 116.397 13.2637C117.285 13.6868 117.992 14.2835 118.517 15.0537C119.05 15.8154 119.355 16.7083 119.431 17.7324H116.231C116.147 17.2754 115.982 16.8649 115.736 16.501C115.491 16.137 115.169 15.8493 114.772 15.6377C114.382 15.4261 113.917 15.3203 113.375 15.3203C112.689 15.3203 112.089 15.5065 111.572 15.8789C111.064 16.2428 110.667 16.7676 110.379 17.4531C110.091 18.1387 109.947 18.9596 109.947 19.916C109.947 20.8809 110.087 21.7145 110.366 22.417C110.646 23.111 111.043 23.6484 111.56 24.0293C112.076 24.4017 112.681 24.5879 113.375 24.5879C114.111 24.5879 114.733 24.3721 115.241 23.9404C115.758 23.5088 116.088 22.9121 116.231 22.1504H119.431C119.355 23.1576 119.058 24.0462 118.542 24.8164C118.026 25.5866 117.328 26.1917 116.447 26.6318C115.567 27.0635 114.535 27.2793 113.35 27.2793ZM129.961 21.0459V12.8066H133.299V27H130.062V24.4736H129.91C129.588 25.2692 129.063 25.9209 128.336 26.4287C127.608 26.9365 126.711 27.1862 125.644 27.1777C124.713 27.1777 123.892 26.9746 123.181 26.5684C122.479 26.1536 121.924 25.5485 121.518 24.7529C121.12 23.9489 120.921 22.9798 120.921 21.8457V12.8066H124.26V21.3379C124.26 22.2266 124.506 22.9375 124.997 23.4707C125.496 24.0039 126.148 24.2663 126.952 24.2578C127.443 24.2578 127.917 24.1393 128.374 23.9023C128.839 23.6654 129.22 23.3099 129.516 22.8359C129.812 22.362 129.961 21.7653 129.961 21.0459ZM135.463 27V12.8066H138.7V15.1934H138.853C139.107 14.3639 139.551 13.7292 140.186 13.2891C140.82 12.8405 141.544 12.6162 142.357 12.6162C142.534 12.6162 142.737 12.6247 142.966 12.6416C143.203 12.6585 143.398 12.6797 143.55 12.7051V15.7773C143.406 15.7266 143.182 15.6842 142.877 15.6504C142.572 15.6165 142.28 15.5996 142.001 15.5996C141.383 15.5996 140.833 15.7308 140.351 15.9932C139.868 16.2555 139.487 16.6152 139.208 17.0723C138.937 17.5293 138.802 18.0625 138.802 18.6719V27H135.463ZM150.195 27.2793C148.773 27.2793 147.546 26.9831 146.513 26.3906C145.481 25.7897 144.685 24.9434 144.127 23.8516C143.576 22.7598 143.301 21.4733 143.301 19.9922C143.301 18.528 143.576 17.2458 144.127 16.1455C144.677 15.0368 145.451 14.1735 146.45 13.5557C147.448 12.9378 148.625 12.6289 149.979 12.6289C150.851 12.6289 151.676 12.7686 152.455 13.0479C153.242 13.3271 153.936 13.7588 154.537 14.3428C155.146 14.9268 155.624 15.6715 155.971 16.5771C156.318 17.4743 156.492 18.5449 156.492 19.7891V20.8301H144.863V18.583H154.829L153.267 19.2432C153.267 18.4391 153.144 17.7409 152.899 17.1484C152.654 16.5475 152.29 16.0778 151.807 15.7393C151.325 15.4007 150.724 15.2314 150.004 15.2314C149.285 15.2314 148.671 15.4007 148.164 15.7393C147.656 16.0778 147.271 16.5348 147.008 17.1104C146.746 17.6774 146.615 18.3122 146.615 19.0146V20.5762C146.615 21.4395 146.763 22.18 147.059 22.7979C147.364 23.4072 147.787 23.8727 148.329 24.1943C148.879 24.516 149.518 24.6768 150.246 24.6768C150.72 24.6768 151.151 24.609 151.541 24.4736C151.938 24.3382 152.277 24.1351 152.556 23.8643C152.844 23.585 153.064 23.2422 153.216 22.8359L156.339 23.2041C156.136 24.0251 155.76 24.7445 155.21 25.3623C154.668 25.9717 153.97 26.4456 153.115 26.7842C152.268 27.1143 151.295 27.2793 150.195 27.2793Z" fill="#414141"/>
<path d="M53.0185 31.1214H53.9695L55.8807 34.3345H55.9638L57.8658 31.1214H58.826L56.3331 35.1655V38H55.5021V35.1655L53.0185 31.1214ZM61.7917 38.0923C61.207 38.0923 60.6853 37.9492 60.2267 37.663C59.7682 37.3768 59.4066 36.9705 59.1419 36.4442C58.8803 35.9149 58.7495 35.2886 58.7495 34.5653C58.7495 33.839 58.8803 33.2112 59.1419 32.6818C59.4066 32.1525 59.7682 31.7447 60.2267 31.4585C60.6853 31.1722 61.207 31.0291 61.7917 31.0291C62.3796 31.0291 62.9012 31.1722 63.3567 31.4585C63.8122 31.7447 64.1708 32.1525 64.4324 32.6818C64.694 33.2112 64.8248 33.839 64.8248 34.5653C64.8248 35.2886 64.694 35.9149 64.4324 36.4442C64.1708 36.9705 63.8122 37.3768 63.3567 37.663C62.9012 37.9492 62.3796 38.0923 61.7917 38.0923ZM61.7917 37.3168C62.2072 37.3168 62.5827 37.2121 62.9182 37.0028C63.2567 36.7905 63.5244 36.4796 63.7214 36.0703C63.9215 35.661 64.0215 35.1593 64.0215 34.5653C64.0215 33.9683 63.9215 33.4651 63.7214 33.0558C63.5244 32.6433 63.2567 32.3325 62.9182 32.1232C62.5827 31.9109 62.2072 31.8047 61.7917 31.8047C61.3762 31.8047 60.9992 31.9109 60.6607 32.1232C60.3222 32.3325 60.0529 32.6433 59.8528 33.0558C59.6528 33.4651 59.5527 33.9683 59.5527 34.5653C59.5527 35.1593 59.6528 35.661 59.8528 36.0703C60.0529 36.4796 60.3222 36.7905 60.6607 37.0028C60.9992 37.2121 61.3762 37.3168 61.7917 37.3168ZM70.1772 31.1214H71.0082V35.6733C71.0082 36.1442 70.8974 36.5643 70.6758 36.9336C70.4573 37.2998 70.148 37.5891 69.7479 37.8015C69.3478 38.0138 68.8784 38.12 68.3399 38.12C67.8013 38.12 67.3304 38.0138 66.9272 37.8015C66.5271 37.5891 66.2163 37.2998 65.9947 36.9336C65.7731 36.5643 65.6623 36.1442 65.6623 35.6733V31.1214H66.4933V35.6087C66.4933 35.9441 66.5671 36.2427 66.7149 36.5043C66.8626 36.7659 67.0749 36.9721 67.3519 37.1229C67.6289 37.2706 67.9582 37.3445 68.3399 37.3445C68.7215 37.3445 69.0493 37.2706 69.3232 37.1229C69.5971 36.9721 69.8079 36.7659 69.9556 36.5043C70.1033 36.2427 70.1772 35.9441 70.1772 35.6087V31.1214ZM72.1135 38V31.1214H74.4402C74.9788 31.1214 75.4189 31.2138 75.7605 31.3984C76.1052 31.58 76.3606 31.8308 76.5268 32.1509C76.693 32.4679 76.7761 32.8295 76.7761 33.2358C76.7761 33.639 76.693 33.9975 76.5268 34.3114C76.3637 34.6254 76.1098 34.8716 75.7651 35.0501C75.4235 35.2255 74.9849 35.3132 74.4494 35.3132H72.5751V34.5653H74.4217C74.791 34.5653 75.088 34.5115 75.3127 34.4038C75.5374 34.296 75.7005 34.1437 75.802 33.9467C75.9036 33.7467 75.9544 33.5097 75.9544 33.2358C75.9544 32.9588 75.9021 32.7172 75.7974 32.511C75.6959 32.3048 75.5327 32.1448 75.3081 32.0309C75.0834 31.917 74.7849 31.8601 74.4125 31.8601H72.9444V38H72.1135ZM76.0744 38L74.4125 34.907H75.3542L77.0439 38H76.0744ZM79.7069 38V31.1214H82.1167C82.5937 31.1214 82.9876 31.2045 83.2985 31.3707C83.6093 31.5339 83.8402 31.7539 83.991 32.0309C84.1448 32.3079 84.2218 32.6141 84.2218 32.9496C84.2218 33.245 84.1695 33.4897 84.0648 33.6836C83.9602 33.8744 83.8232 34.0268 83.654 34.1406C83.4847 34.2514 83.3016 34.3345 83.1046 34.3899V34.4545C83.317 34.4669 83.5293 34.5407 83.7417 34.6761C83.954 34.8116 84.131 35.0039 84.2726 35.2532C84.4172 35.5025 84.4895 35.8087 84.4895 36.1719C84.4895 36.5166 84.4111 36.8274 84.2541 37.1044C84.0971 37.3783 83.8494 37.5968 83.5109 37.7599C83.1754 37.92 82.7353 38 82.1905 38H79.7069ZM80.5378 37.2614H82.1905C82.7353 37.2614 83.1215 37.1552 83.3493 36.9428C83.5801 36.7305 83.6955 36.4735 83.6955 36.1719C83.6955 35.938 83.6355 35.7225 83.5155 35.5256C83.3985 35.3286 83.2308 35.1701 83.0123 35.0501C82.7938 34.93 82.5352 34.87 82.2367 34.87H80.5378V37.2614ZM80.5378 34.1499H82.089C82.3383 34.1499 82.5645 34.1006 82.7676 34.0021C82.9707 33.9006 83.1308 33.7605 83.2477 33.582C83.3677 33.4005 83.4278 33.1896 83.4278 32.9496C83.4278 32.648 83.3231 32.391 83.1138 32.1786C82.9046 31.9663 82.5722 31.8601 82.1167 31.8601H80.5378V34.1499ZM89.8143 31.1214H90.6453V35.6733C90.6453 36.1442 90.5345 36.5643 90.3129 36.9336C90.0944 37.2998 89.7851 37.5891 89.385 37.8015C88.9849 38.0138 88.5155 38.12 87.9769 38.12C87.4384 38.12 86.9675 38.0138 86.5643 37.8015C86.1642 37.5891 85.8534 37.2998 85.6318 36.9336C85.4102 36.5643 85.2994 36.1442 85.2994 35.6733V31.1214H86.1304V35.6087C86.1304 35.9441 86.2042 36.2427 86.3519 36.5043C86.4997 36.7659 86.712 36.9721 86.989 37.1229C87.266 37.2706 87.5953 37.3445 87.9769 37.3445C88.3586 37.3445 88.6863 37.2706 88.9603 37.1229C89.2342 36.9721 89.445 36.7659 89.5927 36.5043C89.7404 36.2427 89.8143 35.9441 89.8143 35.6087V31.1214ZM93.9295 38.12C93.4371 38.12 93.0109 38.0415 92.6508 37.8846C92.2907 37.7246 92.0075 37.503 91.8013 37.2198C91.5982 36.9336 91.4828 36.6027 91.4551 36.2273H92.3138C92.3384 36.4858 92.4261 36.6997 92.5769 36.869C92.7308 37.0382 92.9262 37.1644 93.1632 37.2475C93.4002 37.3306 93.6556 37.3722 93.9295 37.3722C94.2465 37.3722 94.5312 37.3198 94.7836 37.2152C95.039 37.1106 95.2406 36.9644 95.3883 36.7766C95.5361 36.5889 95.6099 36.3688 95.6099 36.1165C95.6099 35.8887 95.5453 35.7041 95.416 35.5625C95.2868 35.4209 95.1175 35.3055 94.9082 35.2163C94.702 35.127 94.4774 35.0485 94.2342 34.9808L93.394 34.7408C92.8554 34.5869 92.4292 34.3668 92.1153 34.0806C91.8044 33.7913 91.649 33.4143 91.649 32.9496C91.649 32.5649 91.7521 32.2294 91.9583 31.9432C92.1676 31.6539 92.4492 31.4292 92.8031 31.2692C93.1601 31.1091 93.5571 31.0291 93.9942 31.0291C94.4374 31.0291 94.8313 31.1091 95.176 31.2692C95.5207 31.4261 95.7946 31.6416 95.9977 31.9155C96.2008 32.1863 96.3086 32.4941 96.3209 32.8388H95.5084C95.4684 32.5002 95.3052 32.2371 95.019 32.0494C94.7359 31.8616 94.385 31.7678 93.9665 31.7678C93.6649 31.7678 93.4002 31.817 93.1724 31.9155C92.9447 32.014 92.7677 32.1494 92.6415 32.3217C92.5154 32.4941 92.4523 32.6911 92.4523 32.9126C92.4523 33.1558 92.5277 33.3527 92.6785 33.5036C92.8293 33.6513 93.0078 33.7667 93.214 33.8498C93.4233 33.9329 93.6125 33.9991 93.7818 34.0483L94.4743 34.2422C94.6528 34.2914 94.8513 34.3576 95.0698 34.4407C95.2914 34.5238 95.5038 34.6361 95.7069 34.7777C95.9131 34.9193 96.0824 35.1009 96.2147 35.3224C96.347 35.541 96.4132 35.8118 96.4132 36.1349C96.4132 36.5043 96.3163 36.8397 96.1224 37.1413C95.9285 37.4399 95.6469 37.6784 95.2775 37.8569C94.9082 38.0323 94.4589 38.12 93.9295 38.12ZM98.054 31.1214V38H97.223V31.1214H98.054ZM104.625 31.1214V38H103.803L100.064 32.5987H99.9903V38H99.1593V31.1214H99.9626L103.73 36.532H103.794V31.1214H104.625ZM105.731 38V31.1214H109.885V31.8601H106.561V34.1591H109.664V34.8977H106.561V37.2614H109.932V38H105.731ZM113.003 38.12C112.511 38.12 112.085 38.0415 111.725 37.8846C111.365 37.7246 111.081 37.503 110.875 37.2198C110.672 36.9336 110.557 36.6027 110.529 36.2273H111.388C111.412 36.4858 111.5 36.6997 111.651 36.869C111.805 37.0382 112 37.1644 112.237 37.2475C112.474 37.3306 112.73 37.3722 113.003 37.3722C113.32 37.3722 113.605 37.3198 113.857 37.2152C114.113 37.1106 114.314 36.9644 114.462 36.7766C114.61 36.5889 114.684 36.3688 114.684 36.1165C114.684 35.8887 114.619 35.7041 114.49 35.5625C114.361 35.4209 114.191 35.3055 113.982 35.2163C113.776 35.127 113.551 35.0485 113.308 34.9808L112.468 34.7408C111.929 34.5869 111.503 34.3668 111.189 34.0806C110.878 33.7913 110.723 33.4143 110.723 32.9496C110.723 32.5649 110.826 32.2294 111.032 31.9432C111.241 31.6539 111.523 31.4292 111.877 31.2692C112.234 31.1091 112.631 31.0291 113.068 31.0291C113.511 31.0291 113.905 31.1091 114.25 31.2692C114.595 31.4261 114.868 31.6416 115.072 31.9155C115.275 32.1863 115.382 32.4941 115.395 32.8388H114.582C114.542 32.5002 114.379 32.2371 114.093 32.0494C113.81 31.8616 113.459 31.7678 113.04 31.7678C112.739 31.7678 112.474 31.817 112.246 31.9155C112.019 32.014 111.842 32.1494 111.715 32.3217C111.589 32.4941 111.526 32.6911 111.526 32.9126C111.526 33.1558 111.602 33.3527 111.752 33.5036C111.903 33.6513 112.082 33.7667 112.288 33.8498C112.497 33.9329 112.686 33.9991 112.856 34.0483L113.548 34.2422C113.727 34.2914 113.925 34.3576 114.144 34.4407C114.365 34.5238 114.578 34.6361 114.781 34.7777C114.987 34.9193 115.156 35.1009 115.289 35.3224C115.421 35.541 115.487 35.8118 115.487 36.1349C115.487 36.5043 115.39 36.8397 115.196 37.1413C115.002 37.4399 114.721 37.6784 114.351 37.8569C113.982 38.0323 113.533 38.12 113.003 38.12ZM118.476 38.12C117.983 38.12 117.557 38.0415 117.197 37.8846C116.837 37.7246 116.554 37.503 116.348 37.2198C116.145 36.9336 116.029 36.6027 116.001 36.2273H116.86C116.885 36.4858 116.972 36.6997 117.123 36.869C117.277 37.0382 117.473 37.1644 117.71 37.2475C117.947 37.3306 118.202 37.3722 118.476 37.3722C118.793 37.3722 119.078 37.3198 119.33 37.2152C119.585 37.1106 119.787 36.9644 119.935 36.7766C120.082 36.5889 120.156 36.3688 120.156 36.1165C120.156 35.8887 120.092 35.7041 119.962 35.5625C119.833 35.4209 119.664 35.3055 119.455 35.2163C119.248 35.127 119.024 35.0485 118.781 34.9808L117.94 34.7408C117.402 34.5869 116.976 34.3668 116.662 34.0806C116.351 33.7913 116.195 33.4143 116.195 32.9496C116.195 32.5649 116.298 32.2294 116.505 31.9432C116.714 31.6539 116.996 31.4292 117.349 31.2692C117.706 31.1091 118.104 31.0291 118.541 31.0291C118.984 31.0291 119.378 31.1091 119.722 31.2692C120.067 31.4261 120.341 31.6416 120.544 31.9155C120.747 32.1863 120.855 32.4941 120.867 32.8388H120.055C120.015 32.5002 119.852 32.2371 119.565 32.0494C119.282 31.8616 118.931 31.7678 118.513 31.7678C118.211 31.7678 117.947 31.817 117.719 31.9155C117.491 32.014 117.314 32.1494 117.188 32.3217C117.062 32.4941 116.999 32.6911 116.999 32.9126C116.999 33.1558 117.074 33.3527 117.225 33.5036C117.376 33.6513 117.554 33.7667 117.76 33.8498C117.97 33.9329 118.159 33.9991 118.328 34.0483L119.021 34.2422C119.199 34.2914 119.398 34.3576 119.616 34.4407C119.838 34.5238 120.05 34.6361 120.253 34.7777C120.459 34.9193 120.629 35.1009 120.761 35.3224C120.893 35.541 120.96 35.8118 120.96 36.1349C120.96 36.5043 120.863 36.8397 120.669 37.1413C120.475 37.4399 120.193 37.6784 119.824 37.8569C119.455 38.0323 119.005 38.12 118.476 38.12ZM123.872 38V31.1214H126.199C126.737 31.1214 127.177 31.2184 127.519 31.4123C127.864 31.6062 128.119 31.8678 128.285 32.1971C128.451 32.5264 128.534 32.8942 128.534 33.3004C128.534 33.7036 128.451 34.0714 128.285 34.4038C128.122 34.7362 127.868 35.0008 127.523 35.1978C127.182 35.3917 126.743 35.4886 126.208 35.4886H124.546V34.75H126.18C126.549 34.75 126.846 34.6869 127.071 34.5607C127.296 34.4345 127.459 34.2622 127.56 34.0437C127.662 33.8221 127.713 33.5743 127.713 33.3004C127.713 33.0234 127.662 32.7772 127.56 32.5618C127.459 32.3433 127.294 32.1725 127.066 32.0494C126.842 31.9232 126.543 31.8601 126.171 31.8601H124.703V38H123.872ZM128.901 38H128.024L130.554 31.1214H131.413L133.933 38H133.065L131.006 32.2109H130.951L128.901 38ZM129.224 35.3132H132.742V36.0518H129.224V35.3132ZM134.448 38V31.1214H136.774C137.313 31.1214 137.753 31.2138 138.095 31.3984C138.439 31.58 138.695 31.8308 138.861 32.1509C139.027 32.4679 139.11 32.8295 139.11 33.2358C139.11 33.639 139.027 33.9975 138.861 34.3114C138.698 34.6254 138.444 34.8716 138.099 35.0501C137.758 35.2255 137.319 35.3132 136.783 35.3132H134.909V34.5653H136.756C137.125 34.5653 137.422 34.5115 137.647 34.4038C137.871 34.296 138.035 34.1437 138.136 33.9467C138.238 33.7467 138.288 33.5097 138.288 33.2358C138.288 32.9588 138.236 32.7172 138.131 32.511C138.03 32.3048 137.867 32.1448 137.642 32.0309C137.417 31.917 137.119 31.8601 136.747 31.8601H135.278V38H134.448ZM138.408 38L136.747 34.907H137.688L139.378 38H138.408ZM145.404 31.1214V38H144.583L140.843 32.5987H140.769V38H139.938V31.1214H140.742L144.509 36.532H144.573V31.1214H145.404ZM146.51 38V31.1214H150.664V31.8601H147.341V34.1591H150.443V34.8977H147.341V37.2614H150.711V38H146.51ZM151.604 38V31.1214H153.93C154.469 31.1214 154.909 31.2138 155.251 31.3984C155.595 31.58 155.851 31.8308 156.017 32.1509C156.183 32.4679 156.266 32.8295 156.266 33.2358C156.266 33.639 156.183 33.9975 156.017 34.3114C155.854 34.6254 155.6 34.8716 155.255 35.0501C154.914 35.2255 154.475 35.3132 153.94 35.3132H152.065V34.5653H153.912C154.281 34.5653 154.578 34.5115 154.803 34.4038C155.027 34.296 155.191 34.1437 155.292 33.9467C155.394 33.7467 155.445 33.5097 155.445 33.2358C155.445 32.9588 155.392 32.7172 155.288 32.511C155.186 32.3048 155.023 32.1448 154.798 32.0309C154.574 31.917 154.275 31.8601 153.903 31.8601H152.435V38H151.604ZM155.565 38L153.903 34.907H154.844L156.534 38H155.565Z" fill="#F4C63B"/>
<defs>
<filter id="filter0_ii_997_34352" x="0" y="0.5" width="45" height="47.6471" filterUnits="userSpaceOnUse" color-interpolation-filters="sRGB">
<feFlood flood-opacity="0" result="BackgroundImageFix"/>
<feBlend mode="normal" in="SourceGraphic" in2="BackgroundImageFix" result="shape"/>
<feColorMatrix in="SourceAlpha" type="matrix" values="0 0 0 0 0 0 0 0 0 0 0 0 0 0 0 0 0 0 127 0" result="hardAlpha"/>
<feOffset dy="2.64706"/>
<feGaussianBlur stdDeviation="1.76471"/>
<feComposite in2="hardAlpha" operator="arithmetic" k2="-1" k3="1"/>
<feColorMatrix type="matrix" values="0 0 0 0 1 0 0 0 0 1 0 0 0 0 1 0 0 0 0.4 0"/>
<feBlend mode="normal" in2="shape" result="effect1_innerShadow_997_34352"/>
<feColorMatrix in="SourceAlpha" type="matrix" values="0 0 0 0 0 0 0 0 0 0 0 0 0 0 0 0 0 0 127 0" result="hardAlpha"/>
<feOffset dy="2.64706"/>
<feGaussianBlur stdDeviation="1.76471"/>
<feComposite in2="hardAlpha" operator="arithmetic" k2="-1" k3="1"/>
<feColorMatrix type="matrix" values="0 0 0 0 0 0 0 0 0 0 0 0 0 0 0 0 0 0 0.1 0"/>
<feBlend mode="normal" in2="effect1_innerShadow_997_34352" result="effect2_innerShadow_997_34352"/>
</filter>
</defs>
</svg>
