<svg width="167" height="59" viewBox="0 0 167 59" fill="none" xmlns="http://www.w3.org/2000/svg">
<rect x="0.47541" y="1.04377" width="165.557" height="57.0492" rx="9.03279" fill="white"/>
<rect x="0.47541" y="1.04377" width="165.557" height="57.0492" rx="9.03279" stroke="#E5E5E5" stroke-width="0.95082"/>
<g filter="url(#filter0_ii_997_35459)">
<rect x="8.55737" y="8.1748" width="42.7869" height="42.7869" rx="10.6967" fill="#009EB4"/>
<rect x="9.03278" y="8.65021" width="41.8361" height="41.8361" rx="10.2213" stroke="black" stroke-opacity="0.2" stroke-width="0.95082"/>
<path fill-rule="evenodd" clip-rule="evenodd" d="M24.1804 23.9267H30.6607V19.0811H19.3347V30.407C19.3347 36.662 24.4056 41.7329 30.6607 41.7329C36.9157 41.7329 41.9866 36.662 41.9866 30.407C41.9866 24.707 37.7756 19.9912 32.2952 19.199V24.1348C35.0836 24.8586 37.1409 27.3914 37.1409 30.407C37.1409 33.9874 34.2411 36.8871 30.6607 36.8872C27.0802 36.8872 24.1804 33.9874 24.1804 30.407H30.6607V27.977V25.5613H24.1804V23.9267Z" fill="white"/>
</g>
<path d="M60.2546 33.167V15.1813H71.9634V17.9093H63.5137V22.7377H71.3357V25.4295H63.5137V30.439H72.0117V33.167H60.2546ZM74.0568 33.167V15.1813H80.8045C82.1886 15.1813 83.3474 15.4388 84.2809 15.9538C85.2224 16.4688 85.9346 17.177 86.4175 18.0783C86.9003 18.9796 87.1417 20.0016 87.1417 21.1443C87.1417 22.2951 86.8963 23.3211 86.4054 24.2224C85.9226 25.1157 85.2063 25.8198 84.2568 26.3348C83.3072 26.8418 82.1403 27.0953 80.7562 27.0953H76.2899V24.4156H80.3096C81.1223 24.4156 81.7862 24.2787 82.3013 24.0051C82.8243 23.7235 83.2066 23.3372 83.448 22.8463C83.6975 22.3474 83.8222 21.7801 83.8222 21.1443C83.8222 20.5005 83.6975 19.9372 83.448 19.4544C83.2066 18.9635 82.8243 18.5853 82.3013 18.3197C81.7862 18.0461 81.1183 17.9093 80.2975 17.9093H77.316V33.167H74.0568ZM88.6195 33.167V19.6717H91.6976V21.941H91.8424C92.0839 21.1524 92.5063 20.5488 93.1099 20.1304C93.7134 19.7039 94.4015 19.4906 95.174 19.4906C95.343 19.4906 95.5361 19.4987 95.7534 19.5147C95.9787 19.5308 96.1638 19.551 96.3087 19.5751V22.4963C96.1719 22.448 95.9586 22.4078 95.6689 22.3756C95.3792 22.3434 95.1016 22.3273 94.836 22.3273C94.2486 22.3273 93.7255 22.452 93.2668 22.7015C92.8081 22.9509 92.446 23.293 92.1804 23.7275C91.9229 24.1621 91.7942 24.669 91.7942 25.2484V33.167H88.6195ZM102.53 33.4326C101.211 33.4326 100.068 33.1429 99.1022 32.5634C98.1365 31.984 97.3881 31.1713 96.857 30.1251C96.3339 29.079 96.0724 27.8638 96.0724 26.4797C96.0724 25.0875 96.3339 23.8683 96.857 22.8222C97.3881 21.768 98.1365 20.9512 99.1022 20.3718C100.068 19.7924 101.211 19.5027 102.53 19.5027C103.85 19.5027 104.993 19.7924 105.958 20.3718C106.924 20.9512 107.673 21.768 108.204 22.8222C108.735 23.8683 109 25.0875 109 26.4797C109 27.8638 108.735 29.079 108.204 30.1251C107.673 31.1713 106.924 31.984 105.958 32.5634C104.993 33.1429 103.85 33.4326 102.53 33.4326ZM102.53 30.8735C103.263 30.8735 103.866 30.6804 104.341 30.2941C104.816 29.8998 105.17 29.3687 105.403 28.7007C105.645 28.0328 105.765 27.2925 105.765 26.4797C105.765 25.6508 105.645 24.9024 105.403 24.2345C105.17 23.5666 104.816 23.0395 104.341 22.6532C103.866 22.2589 103.263 22.0617 102.53 22.0617C101.814 22.0617 101.215 22.2589 100.732 22.6532C100.249 23.0395 99.8868 23.5666 99.6454 24.2345C99.412 24.9024 99.2953 25.6508 99.2953 26.4797C99.2953 27.2925 99.412 28.0328 99.6454 28.7007C99.8868 29.3687 100.249 29.8998 100.732 30.2941C101.215 30.6804 101.814 30.8735 102.53 30.8735ZM116.333 33.4326C114.989 33.4326 113.834 33.1388 112.868 32.5514C111.903 31.9559 111.162 31.135 110.647 30.0889C110.132 29.0428 109.875 27.8397 109.875 26.4797C109.875 25.1036 110.136 23.8925 110.659 22.8463C111.182 21.8002 111.927 20.9834 112.892 20.3959C113.858 19.8004 114.997 19.5027 116.308 19.5027C117.411 19.5027 118.385 19.7039 119.23 20.1062C120.075 20.5086 120.747 21.0759 121.245 21.8082C121.752 22.5325 122.042 23.3815 122.115 24.3552H119.073C118.992 23.9206 118.835 23.5303 118.602 23.1843C118.369 22.8383 118.063 22.5647 117.685 22.3635C117.314 22.1623 116.872 22.0617 116.357 22.0617C115.705 22.0617 115.134 22.2388 114.643 22.5928C114.16 22.9389 113.782 23.4378 113.508 24.0896C113.234 24.7415 113.098 25.5221 113.098 26.4314C113.098 27.3488 113.23 28.1415 113.496 28.8094C113.761 29.4693 114.14 29.9803 114.631 30.3424C115.121 30.6965 115.697 30.8735 116.357 30.8735C117.057 30.8735 117.648 30.6683 118.131 30.2579C118.622 29.8475 118.936 29.2801 119.073 28.5559H122.115C122.042 29.5135 121.76 30.3585 121.27 31.0908C120.779 31.8231 120.115 32.3985 119.278 32.8169C118.441 33.2273 117.459 33.4326 116.333 33.4326ZM132.126 27.5057V19.6717H135.301V33.167H132.223V30.7649H132.078C131.772 31.5213 131.273 32.141 130.581 32.6238C129.889 33.1066 129.036 33.344 128.022 33.336C127.137 33.336 126.357 33.1429 125.681 32.7566C125.013 32.3623 124.486 31.7869 124.099 31.0304C123.721 30.2659 123.532 29.3445 123.532 28.2662V19.6717H126.707V27.7833C126.707 28.6283 126.94 29.3043 127.407 29.8113C127.882 30.3182 128.501 30.5677 129.266 30.5597C129.732 30.5597 130.183 30.447 130.618 30.2217C131.06 29.9964 131.422 29.6584 131.704 29.2077C131.986 28.7571 132.126 28.1897 132.126 27.5057ZM137.358 33.167V19.6717H140.436V21.941H140.581C140.823 21.1524 141.245 20.5488 141.849 20.1304C142.452 19.7039 143.14 19.4906 143.913 19.4906C144.082 19.4906 144.275 19.4987 144.492 19.5147C144.718 19.5308 144.903 19.551 145.048 19.5751V22.4963C144.911 22.448 144.697 22.4078 144.408 22.3756C144.118 22.3434 143.84 22.3273 143.575 22.3273C142.987 22.3273 142.464 22.452 142.006 22.7015C141.547 22.9509 141.185 23.293 140.919 23.7275C140.662 24.1621 140.533 24.669 140.533 25.2484V33.167H137.358ZM151.366 33.4326C150.014 33.4326 148.847 33.1509 147.865 32.5876C146.883 32.0162 146.127 31.2115 145.596 30.1734C145.073 29.1353 144.811 27.9121 144.811 26.5038C144.811 25.1116 145.073 23.8925 145.596 22.8463C146.119 21.7921 146.855 20.9713 147.805 20.3839C148.754 19.7964 149.873 19.5027 151.161 19.5027C151.989 19.5027 152.774 19.6355 153.514 19.901C154.263 20.1666 154.923 20.577 155.494 21.1323C156.073 21.6875 156.528 22.3957 156.858 23.2567C157.188 24.1098 157.353 25.1277 157.353 26.3107V27.3005H146.296V25.164H155.772L154.287 25.7916C154.287 25.0271 154.17 24.3632 153.937 23.7999C153.703 23.2286 153.357 22.7819 152.899 22.4601C152.44 22.1382 151.869 21.9772 151.185 21.9772C150.501 21.9772 149.917 22.1382 149.434 22.4601C148.952 22.7819 148.585 23.2165 148.336 23.7637C148.086 24.3029 147.962 24.9064 147.962 25.5744V27.0591C147.962 27.8799 148.103 28.5841 148.384 29.1715C148.674 29.7509 149.076 30.1935 149.591 30.4993C150.114 30.8051 150.722 30.958 151.414 30.958C151.865 30.958 152.275 30.8936 152.645 30.7649C153.023 30.6361 153.345 30.443 153.611 30.1855C153.885 29.9199 154.094 29.594 154.239 29.2077L157.208 29.5578C157.015 30.3384 156.657 31.0224 156.134 31.6098C155.619 32.1892 154.955 32.6399 154.142 32.9618C153.337 33.2756 152.412 33.4326 151.366 33.4326Z" fill="#414141"/>
<path d="M58.9685 37.4304H59.8727L61.6899 40.4855H61.7689L63.5774 37.4304H64.4904L62.1201 41.2756V43.9707H61.33V41.2756L58.9685 37.4304ZM67.3103 44.0585C66.7543 44.0585 66.2583 43.9224 65.8223 43.6503C65.3862 43.3781 65.0424 42.9919 64.7907 42.4915C64.542 41.9881 64.4176 41.3926 64.4176 40.705C64.4176 40.0144 64.542 39.4174 64.7907 38.9141C65.0424 38.4107 65.3862 38.023 65.8223 37.7509C66.2583 37.4787 66.7543 37.3427 67.3103 37.3427C67.8692 37.3427 68.3652 37.4787 68.7983 37.7509C69.2314 38.023 69.5723 38.4107 69.821 38.9141C70.0698 39.4174 70.1941 40.0144 70.1941 40.705C70.1941 41.3926 70.0698 41.9881 69.821 42.4915C69.5723 42.9919 69.2314 43.3781 68.7983 43.6503C68.3652 43.9224 67.8692 44.0585 67.3103 44.0585ZM67.3103 43.3211C67.7053 43.3211 68.0623 43.2216 68.3813 43.0226C68.7032 42.8207 68.9578 42.5251 69.1451 42.1359C69.3353 41.7467 69.4304 41.2697 69.4304 40.705C69.4304 40.1373 69.3353 39.6588 69.1451 39.2696C68.9578 38.8775 68.7032 38.5819 68.3813 38.3829C68.0623 38.181 67.7053 38.0801 67.3103 38.0801C66.9152 38.0801 66.5568 38.181 66.2349 38.3829C65.913 38.5819 65.6569 38.8775 65.4667 39.2696C65.2765 39.6588 65.1814 40.1373 65.1814 40.705C65.1814 41.2697 65.2765 41.7467 65.4667 42.1359C65.6569 42.5251 65.913 42.8207 66.2349 43.0226C66.5568 43.2216 66.9152 43.3211 67.3103 43.3211ZM75.2834 37.4304H76.0735V41.7584C76.0735 42.2061 75.9681 42.6056 75.7574 42.9567C75.5497 43.305 75.2556 43.58 74.8751 43.782C74.4947 43.9839 74.0485 44.0848 73.5364 44.0848C73.0243 44.0848 72.5765 43.9839 72.1932 43.782C71.8128 43.58 71.5172 43.305 71.3065 42.9567C71.0958 42.6056 70.9905 42.2061 70.9905 41.7584V37.4304H71.7806V41.697C71.7806 42.0159 71.8508 42.2998 71.9913 42.5485C72.1317 42.7973 72.3337 42.9933 72.597 43.1367C72.8604 43.2772 73.1735 43.3474 73.5364 43.3474C73.8992 43.3474 74.2109 43.2772 74.4713 43.1367C74.7318 42.9933 74.9322 42.7973 75.0727 42.5485C75.2131 42.2998 75.2834 42.0159 75.2834 41.697V37.4304ZM77.1244 43.9707V37.4304H79.3367C79.8488 37.4304 80.2672 37.5182 80.592 37.6938C80.9198 37.8665 81.1627 38.105 81.3207 38.4093C81.4787 38.7107 81.5577 39.0545 81.5577 39.4408C81.5577 39.8241 81.4787 40.1651 81.3207 40.4635C81.1656 40.762 80.9242 40.9961 80.5964 41.1659C80.2716 41.3327 79.8546 41.4161 79.3454 41.4161H77.5633V40.705H79.3191C79.6703 40.705 79.9527 40.6538 80.1663 40.5513C80.3799 40.4489 80.535 40.3041 80.6316 40.1168C80.7281 39.9266 80.7764 39.7012 80.7764 39.4408C80.7764 39.1774 80.7267 38.9477 80.6272 38.7517C80.5306 38.5556 80.3755 38.4034 80.1619 38.2952C79.9483 38.1869 79.6644 38.1328 79.3103 38.1328H77.9145V43.9707H77.1244ZM80.8905 43.9707L79.3103 41.0298H80.2058L81.8123 43.9707H80.8905ZM84.3443 43.9707V37.4304H86.6356C87.0892 37.4304 87.4638 37.5095 87.7593 37.6675C88.0549 37.8226 88.2744 38.0318 88.4177 38.2952C88.5641 38.5585 88.6372 38.8497 88.6372 39.1687C88.6372 39.4496 88.5875 39.6822 88.488 39.8666C88.3885 40.048 88.2583 40.1929 88.0973 40.3011C87.9364 40.4065 87.7623 40.4855 87.575 40.5382V40.5996C87.7769 40.6113 87.9788 40.6816 88.1807 40.8103C88.3826 40.9391 88.5509 41.122 88.6855 41.359C88.823 41.596 88.8918 41.8872 88.8918 42.2325C88.8918 42.5602 88.8172 42.8558 88.6679 43.1192C88.5187 43.3796 88.2831 43.5874 87.9612 43.7425C87.6423 43.8946 87.2238 43.9707 86.7059 43.9707H84.3443ZM85.1344 43.2684H86.7059C87.2238 43.2684 87.5911 43.1674 87.8076 42.9655C88.0271 42.7636 88.1368 42.5193 88.1368 42.2325C88.1368 42.0101 88.0798 41.8052 87.9656 41.618C87.8544 41.4307 87.695 41.28 87.4872 41.1659C87.2794 41.0517 87.0336 40.9947 86.7498 40.9947H85.1344V43.2684ZM85.1344 40.3099H86.6093C86.8463 40.3099 87.0614 40.2631 87.2545 40.1695C87.4477 40.0729 87.5998 39.9397 87.711 39.77C87.8252 39.5974 87.8822 39.3969 87.8822 39.1687C87.8822 38.8819 87.7827 38.6375 87.5838 38.4356C87.3848 38.2337 87.0687 38.1328 86.6356 38.1328H85.1344V40.3099ZM93.9547 37.4304H94.7448V41.7584C94.7448 42.2061 94.6394 42.6056 94.4287 42.9567C94.221 43.305 93.9269 43.58 93.5465 43.782C93.1661 43.9839 92.7198 44.0848 92.2077 44.0848C91.6956 44.0848 91.2479 43.9839 90.8645 43.782C90.4841 43.58 90.1886 43.305 89.9779 42.9567C89.7672 42.6056 89.6618 42.2061 89.6618 41.7584V37.4304H90.4519V41.697C90.4519 42.0159 90.5222 42.2998 90.6626 42.5485C90.8031 42.7973 91.005 42.9933 91.2684 43.1367C91.5317 43.2772 91.8448 43.3474 92.2077 43.3474C92.5706 43.3474 92.8822 43.2772 93.1426 43.1367C93.4031 42.9933 93.6035 42.7973 93.744 42.5485C93.8845 42.2998 93.9547 42.0159 93.9547 41.697V37.4304ZM97.8675 44.0848C97.3993 44.0848 96.994 44.0102 96.6517 43.861C96.3093 43.7088 96.0401 43.4981 95.844 43.2289C95.6509 42.9567 95.5411 42.6422 95.5148 42.2852H96.3312C96.3546 42.531 96.438 42.7343 96.5814 42.8953C96.7277 43.0562 96.9136 43.1762 97.1389 43.2552C97.3642 43.3342 97.6071 43.3737 97.8675 43.3737C98.1689 43.3737 98.4396 43.324 98.6796 43.2245C98.9225 43.125 99.1141 42.986 99.2546 42.8075C99.3951 42.629 99.4653 42.4198 99.4653 42.1798C99.4653 41.9633 99.4038 41.7877 99.2809 41.6531C99.158 41.5185 98.9971 41.4087 98.7981 41.3239C98.602 41.239 98.3884 41.1644 98.1572 41.1L97.3584 40.8718C96.8463 40.7254 96.441 40.5162 96.1425 40.2441C95.8469 39.969 95.6992 39.6105 95.6992 39.1687C95.6992 38.8029 95.7972 38.4839 95.9933 38.2118C96.1922 37.9367 96.46 37.7231 96.7965 37.5709C97.136 37.4187 97.5135 37.3427 97.929 37.3427C98.3504 37.3427 98.7249 37.4187 99.0527 37.5709C99.3804 37.7201 99.6409 37.925 99.834 38.1854C100.027 38.4429 100.13 38.7356 100.141 39.0633H99.3687C99.3307 38.7414 99.1756 38.4912 98.9034 38.3127C98.6342 38.1342 98.3006 38.045 97.9027 38.045C97.6159 38.045 97.3642 38.0918 97.1477 38.1854C96.9311 38.2791 96.7629 38.4078 96.6429 38.5717C96.5229 38.7356 96.4629 38.9229 96.4629 39.1335C96.4629 39.3647 96.5346 39.552 96.678 39.6954C96.8214 39.8359 96.9911 39.9456 97.1872 40.0246C97.3862 40.1036 97.5661 40.1665 97.7271 40.2133L98.3855 40.3977C98.5552 40.4445 98.744 40.5074 98.9517 40.5864C99.1624 40.6655 99.3643 40.7723 99.5575 40.9069C99.7535 41.0415 99.9145 41.2141 100.04 41.4248C100.166 41.6326 100.229 41.8901 100.229 42.1974C100.229 42.5485 100.137 42.8675 99.9525 43.1543C99.7682 43.4381 99.5004 43.6649 99.1493 43.8346C98.7981 44.0014 98.3709 44.0848 97.8675 44.0848ZM101.789 37.4304V43.9707H100.999V37.4304H101.789ZM108.037 37.4304V43.9707H107.256L103.7 38.8351H103.63V43.9707H102.84V37.4304H103.604L107.186 42.5749H107.247V37.4304H108.037ZM109.088 43.9707V37.4304H113.039V38.1328H109.878V40.3187H112.828V41.021H109.878V43.2684H113.083V43.9707H109.088ZM116.003 44.0848C115.535 44.0848 115.13 44.0102 114.787 43.861C114.445 43.7088 114.176 43.4981 113.98 43.2289C113.787 42.9567 113.677 42.6422 113.651 42.2852H114.467C114.49 42.531 114.574 42.7343 114.717 42.8953C114.864 43.0562 115.049 43.1762 115.275 43.2552C115.5 43.3342 115.743 43.3737 116.003 43.3737C116.305 43.3737 116.575 43.324 116.815 43.2245C117.058 43.125 117.25 42.986 117.39 42.8075C117.531 42.629 117.601 42.4198 117.601 42.1798C117.601 41.9633 117.54 41.7877 117.417 41.6531C117.294 41.5185 117.133 41.4087 116.934 41.3239C116.738 41.239 116.524 41.1644 116.293 41.1L115.494 40.8718C114.982 40.7254 114.577 40.5162 114.278 40.2441C113.983 39.969 113.835 39.6105 113.835 39.1687C113.835 38.8029 113.933 38.4839 114.129 38.2118C114.328 37.9367 114.596 37.7231 114.932 37.5709C115.272 37.4187 115.649 37.3427 116.065 37.3427C116.486 37.3427 116.861 37.4187 117.189 37.5709C117.516 37.7201 117.777 37.925 117.97 38.1854C118.163 38.4429 118.265 38.7356 118.277 39.0633H117.505C117.467 38.7414 117.311 38.4912 117.039 38.3127C116.77 38.1342 116.436 38.045 116.038 38.045C115.752 38.045 115.5 38.0918 115.283 38.1854C115.067 38.2791 114.899 38.4078 114.779 38.5717C114.659 38.7356 114.599 38.9229 114.599 39.1335C114.599 39.3647 114.67 39.552 114.814 39.6954C114.957 39.8359 115.127 39.9456 115.323 40.0246C115.522 40.1036 115.702 40.1665 115.863 40.2133L116.521 40.3977C116.691 40.4445 116.88 40.5074 117.088 40.5864C117.298 40.6655 117.5 40.7723 117.693 40.9069C117.889 41.0415 118.05 41.2141 118.176 41.4248C118.302 41.6326 118.365 41.8901 118.365 42.1974C118.365 42.5485 118.273 42.8675 118.088 43.1543C117.904 43.4381 117.636 43.6649 117.285 43.8346C116.934 44.0014 116.507 44.0848 116.003 44.0848ZM121.207 44.0848C120.738 44.0848 120.333 44.0102 119.991 43.861C119.648 43.7088 119.379 43.4981 119.183 43.2289C118.99 42.9567 118.88 42.6422 118.854 42.2852H119.67C119.694 42.531 119.777 42.7343 119.921 42.8953C120.067 43.0562 120.253 43.1762 120.478 43.2552C120.703 43.3342 120.946 43.3737 121.207 43.3737C121.508 43.3737 121.779 43.324 122.019 43.2245C122.262 43.125 122.453 42.986 122.594 42.8075C122.734 42.629 122.804 42.4198 122.804 42.1798C122.804 41.9633 122.743 41.7877 122.62 41.6531C122.497 41.5185 122.336 41.4087 122.137 41.3239C121.941 41.239 121.728 41.1644 121.496 41.1L120.698 40.8718C120.185 40.7254 119.78 40.5162 119.482 40.2441C119.186 39.969 119.038 39.6105 119.038 39.1687C119.038 38.8029 119.136 38.4839 119.332 38.2118C119.531 37.9367 119.799 37.7231 120.136 37.5709C120.475 37.4187 120.853 37.3427 121.268 37.3427C121.69 37.3427 122.064 37.4187 122.392 37.5709C122.72 37.7201 122.98 37.925 123.173 38.1854C123.366 38.4429 123.469 38.7356 123.48 39.0633H122.708C122.67 38.7414 122.515 38.4912 122.243 38.3127C121.973 38.1342 121.64 38.045 121.242 38.045C120.955 38.045 120.703 38.0918 120.487 38.1854C120.27 38.2791 120.102 38.4078 119.982 38.5717C119.862 38.7356 119.802 38.9229 119.802 39.1335C119.802 39.3647 119.874 39.552 120.017 39.6954C120.161 39.8359 120.33 39.9456 120.526 40.0246C120.725 40.1036 120.905 40.1665 121.066 40.2133L121.725 40.3977C121.894 40.4445 122.083 40.5074 122.291 40.5864C122.502 40.6655 122.704 40.7723 122.897 40.9069C123.093 41.0415 123.254 41.2141 123.379 41.4248C123.505 41.6326 123.568 41.8901 123.568 42.1974C123.568 42.5485 123.476 42.8675 123.292 43.1543C123.107 43.4381 122.84 43.6649 122.488 43.8346C122.137 44.0014 121.71 44.0848 121.207 44.0848ZM126.337 43.9707V37.4304H128.55C129.062 37.4304 129.48 37.5226 129.805 37.707C130.133 37.8913 130.376 38.1401 130.534 38.4532C130.692 38.7663 130.771 39.116 130.771 39.5023C130.771 39.8856 130.692 40.2353 130.534 40.5513C130.378 40.8674 130.137 41.119 129.809 41.3063C129.485 41.4907 129.068 41.5828 128.558 41.5828H126.978V40.8805H128.532C128.883 40.8805 129.166 40.8206 129.379 40.7006C129.593 40.5806 129.748 40.4167 129.844 40.209C129.941 39.9983 129.989 39.7627 129.989 39.5023C129.989 39.2389 129.941 39.0048 129.844 38.7999C129.748 38.5922 129.591 38.4298 129.375 38.3127C129.161 38.1927 128.877 38.1328 128.523 38.1328H127.127V43.9707H126.337ZM131.119 43.9707H130.285L132.691 37.4304H133.507L135.904 43.9707H135.079L133.121 38.4663H133.068L131.119 43.9707ZM131.427 41.4161H134.771V42.1184H131.427V41.4161ZM136.393 43.9707V37.4304H138.605C139.117 37.4304 139.536 37.5182 139.86 37.6938C140.188 37.8665 140.431 38.105 140.589 38.4093C140.747 38.7107 140.826 39.0545 140.826 39.4408C140.826 39.8241 140.747 40.1651 140.589 40.4635C140.434 40.762 140.193 40.9961 139.865 41.1659C139.54 41.3327 139.123 41.4161 138.614 41.4161H136.832V40.705H138.588C138.939 40.705 139.221 40.6538 139.435 40.5513C139.648 40.4489 139.803 40.3041 139.9 40.1168C139.997 39.9266 140.045 39.7012 140.045 39.4408C140.045 39.1774 139.995 38.9477 139.896 38.7517C139.799 38.5556 139.644 38.4034 139.43 38.2952C139.217 38.1869 138.933 38.1328 138.579 38.1328H137.183V43.9707H136.393ZM140.159 43.9707L138.579 41.0298H139.474L141.081 43.9707H140.159ZM146.811 37.4304V43.9707H146.029L142.474 38.8351H142.404V43.9707H141.614V37.4304H142.377L145.959 42.5749H146.021V37.4304H146.811ZM147.862 43.9707V37.4304H151.812V38.1328H148.652V40.3187H151.602V41.021H148.652V43.2684H151.856V43.9707H147.862ZM152.705 43.9707V37.4304H154.917C155.43 37.4304 155.848 37.5182 156.173 37.6938C156.501 37.8665 156.743 38.105 156.901 38.4093C157.059 38.7107 157.139 39.0545 157.139 39.4408C157.139 39.8241 157.059 40.1651 156.901 40.4635C156.746 40.762 156.505 40.9961 156.177 41.1659C155.852 41.3327 155.435 41.4161 154.926 41.4161H153.144V40.705H154.9C155.251 40.705 155.533 40.6538 155.747 40.5513C155.961 40.4489 156.116 40.3041 156.212 40.1168C156.309 39.9266 156.357 39.7012 156.357 39.4408C156.357 39.1774 156.307 38.9477 156.208 38.7517C156.111 38.5556 155.956 38.4034 155.743 38.2952C155.529 38.1869 155.245 38.1328 154.891 38.1328H153.495V43.9707H152.705ZM156.471 43.9707L154.891 41.0298H155.787L157.393 43.9707H156.471Z" fill="#F4C63B"/>
<defs>
<filter id="filter0_ii_997_35459" x="8.55737" y="8.1748" width="42.7869" height="45.304" filterUnits="userSpaceOnUse" color-interpolation-filters="sRGB">
<feFlood flood-opacity="0" result="BackgroundImageFix"/>
<feBlend mode="normal" in="SourceGraphic" in2="BackgroundImageFix" result="shape"/>
<feColorMatrix in="SourceAlpha" type="matrix" values="0 0 0 0 0 0 0 0 0 0 0 0 0 0 0 0 0 0 127 0" result="hardAlpha"/>
<feOffset dy="2.51688"/>
<feGaussianBlur stdDeviation="1.67792"/>
<feComposite in2="hardAlpha" operator="arithmetic" k2="-1" k3="1"/>
<feColorMatrix type="matrix" values="0 0 0 0 1 0 0 0 0 1 0 0 0 0 1 0 0 0 0.4 0"/>
<feBlend mode="normal" in2="shape" result="effect1_innerShadow_997_35459"/>
<feColorMatrix in="SourceAlpha" type="matrix" values="0 0 0 0 0 0 0 0 0 0 0 0 0 0 0 0 0 0 127 0" result="hardAlpha"/>
<feOffset dy="2.51688"/>
<feGaussianBlur stdDeviation="1.67792"/>
<feComposite in2="hardAlpha" operator="arithmetic" k2="-1" k3="1"/>
<feColorMatrix type="matrix" values="0 0 0 0 0 0 0 0 0 0 0 0 0 0 0 0 0 0 0.1 0"/>
<feBlend mode="normal" in2="effect1_innerShadow_997_35459" result="effect2_innerShadow_997_35459"/>
</filter>
</defs>
</svg>
