<svg width="21" height="20" viewBox="0 0 21 20" fill="none" xmlns="http://www.w3.org/2000/svg">
    <path fill-rule="evenodd" clip-rule="evenodd" d="M18.9105 7.85966C18.8522 7.85696 18.7939 7.85596 18.7355 7.85666H16.3005C14.3085 7.85666 12.6025 9.43766 12.6025 11.4997C12.6025 13.5617 14.3085 15.1427 16.3015 15.1427H18.7345C18.7959 15.1433 18.8542 15.142 18.9095 15.1387C19.3206 15.112 19.7079 14.937 19.9996 14.6462C20.2914 14.3554 20.4676 13.9686 20.4955 13.5577C20.4995 13.4987 20.4995 13.4357 20.4995 13.3777V9.62166C20.4995 9.56366 20.4995 9.50066 20.4955 9.44166C20.4676 9.03088 20.2915 8.6442 20 8.35343C19.7085 8.06266 19.3214 7.88757 18.9105 7.86066M16.0875 12.4717C16.6005 12.4717 17.0175 12.0377 17.0175 11.5007C17.0175 10.9637 16.6005 10.5297 16.0875 10.5297C15.5745 10.5297 15.1585 10.9637 15.1585 11.5007C15.1585 12.0377 15.5735 12.4717 16.0875 12.4717Z" fill="#F4C63B"/>
    <path fill-rule="evenodd" clip-rule="evenodd" d="M18.735 16.6C18.7685 16.5988 18.8018 16.6055 18.8322 16.6196C18.8626 16.6337 18.8894 16.6547 18.9102 16.6809C18.931 16.7072 18.9454 16.738 18.9521 16.7708C18.9588 16.8037 18.9578 16.8377 18.949 16.87C18.755 17.562 18.448 18.152 17.955 18.648C17.234 19.375 16.319 19.698 15.189 19.851C14.091 20 12.689 20 10.917 20H8.87998C7.10898 20 5.70598 20 4.60798 19.851C3.47798 19.698 2.56298 19.375 1.84198 18.648C1.12098 17.923 0.800977 17 0.648977 15.862C0.500977 14.754 0.500977 13.34 0.500977 11.555V11.445C0.500977 9.66 0.500977 8.245 0.648977 7.139C0.800977 6 1.12098 5.08 1.84098 4.351C2.56198 3.625 3.47698 3.301 4.60698 3.149C5.70598 3 7.10898 3 8.87998 3H10.917C12.688 3 14.091 3 15.189 3.149C16.319 3.302 17.234 3.625 17.955 4.351C18.448 4.848 18.755 5.438 18.949 6.131C18.9576 6.16328 18.9585 6.19714 18.9517 6.22984C18.9449 6.26255 18.9305 6.2932 18.9097 6.31935C18.8889 6.3455 18.8622 6.36641 18.8319 6.38042C18.8016 6.39442 18.7684 6.40113 18.735 6.4H16.302C13.568 6.4 11.159 8.577 11.159 11.5C11.159 14.423 13.569 16.6 16.303 16.6H18.735ZM4.11498 6.886C4.01977 6.88639 3.92557 6.90554 3.83776 6.94233C3.74995 6.97913 3.67024 7.03287 3.6032 7.10047C3.53616 7.16807 3.48308 7.24821 3.44701 7.33633C3.41094 7.42444 3.39258 7.51879 3.39298 7.614C3.39298 8.017 3.71598 8.343 4.11498 8.343H7.97098C8.37098 8.343 8.69398 8.017 8.69398 7.614C8.69451 7.42163 8.61866 7.2369 8.4831 7.10041C8.34754 6.96391 8.16335 6.88679 7.97098 6.886H4.11498Z" fill="#009EB4"/>
    <path d="M6.27734 2.02434L8.23534 0.581345C8.74635 0.203759 9.36497 0 10.0003 0C10.6357 0 11.2543 0.203759 11.7653 0.581345L13.7343 2.03234C12.9103 2.00034 11.9903 2.00034 10.9833 2.00034H8.81334C7.89134 2.00034 7.04434 2.00034 6.27734 2.02434Z" fill="#F4C63B"/>
    </svg>
    