<svg width="45" height="46" viewBox="0 0 45 46" fill="none" xmlns="http://www.w3.org/2000/svg">
    <g filter="url(#filter0_ii_997_35979)">
    <rect y="0.5" width="45" height="45" rx="11.25" fill="#009EB4"/>
    <rect x="0.5" y="1" width="44" height="44" rx="10.75" stroke="black" stroke-opacity="0.2"/>
    <path fill-rule="evenodd" clip-rule="evenodd" d="M16.4362 17.067H23.2516V11.9707H11.3398V23.8825C11.3398 30.461 16.673 35.7942 23.2516 35.7942C29.8302 35.7942 35.1634 30.461 35.1634 23.8825C35.1634 17.8876 30.7346 12.9279 24.9707 12.0948V17.2858C27.9033 18.0471 30.067 20.7109 30.067 23.8825C30.067 27.6481 27.0172 30.6977 23.2516 30.6979C19.486 30.6979 16.4362 27.6481 16.4362 23.8825H23.2516V21.3268V18.7861H16.4362V17.067Z" fill="white"/>
    </g>
    <defs>
    <filter id="filter0_ii_997_35979" x="0" y="0.5" width="45" height="47.6471" filterUnits="userSpaceOnUse" color-interpolation-filters="sRGB">
    <feFlood flood-opacity="0" result="BackgroundImageFix"/>
    <feBlend mode="normal" in="SourceGraphic" in2="BackgroundImageFix" result="shape"/>
    <feColorMatrix in="SourceAlpha" type="matrix" values="0 0 0 0 0 0 0 0 0 0 0 0 0 0 0 0 0 0 127 0" result="hardAlpha"/>
    <feOffset dy="2.64706"/>
    <feGaussianBlur stdDeviation="1.76471"/>
    <feComposite in2="hardAlpha" operator="arithmetic" k2="-1" k3="1"/>
    <feColorMatrix type="matrix" values="0 0 0 0 1 0 0 0 0 1 0 0 0 0 1 0 0 0 0.4 0"/>
    <feBlend mode="normal" in2="shape" result="effect1_innerShadow_997_35979"/>
    <feColorMatrix in="SourceAlpha" type="matrix" values="0 0 0 0 0 0 0 0 0 0 0 0 0 0 0 0 0 0 127 0" result="hardAlpha"/>
    <feOffset dy="2.64706"/>
    <feGaussianBlur stdDeviation="1.76471"/>
    <feComposite in2="hardAlpha" operator="arithmetic" k2="-1" k3="1"/>
    <feColorMatrix type="matrix" values="0 0 0 0 0 0 0 0 0 0 0 0 0 0 0 0 0 0 0.1 0"/>
    <feBlend mode="normal" in2="effect1_innerShadow_997_35979" result="effect2_innerShadow_997_35979"/>
    </filter>
    </defs>
    </svg>
    