<svg width="18" height="21" viewBox="0 0 18 21" fill="none" xmlns="http://www.w3.org/2000/svg">
<path d="M13.1562 4.875C14.5192 4.875 15.9636 5.62152 16.9911 6.91016C13.6223 8.76754 14.1674 13.6067 17.5712 14.9014C17.1032 15.9445 16.8782 16.411 16.2753 17.335C15.4343 18.6248 14.2482 20.2314 12.7773 20.2432C11.4717 20.2573 11.1346 19.3868 9.36224 19.3975C7.59027 19.407 7.22068 20.259 5.91302 20.2461C4.44324 20.2331 3.3195 18.784 2.47845 17.4941C0.125438 13.8902 -0.121967 9.65957 1.32904 7.40918C2.36125 5.81164 3.98906 4.87704 5.51849 4.87695C7.07499 4.87695 8.05465 5.73624 9.34369 5.73633C10.5941 5.73633 11.3556 4.875 13.1562 4.875ZM12.7617 0.176758C12.9411 1.39565 12.4444 2.58965 11.79 3.43457C11.0897 4.34087 9.88232 5.04244 8.71283 5.00586C8.49934 3.83877 9.04676 2.63648 9.71185 1.82812C10.4415 0.935988 11.6919 0.251103 12.7617 0.176758Z" fill="#333333"/>
</svg>
