<svg width="16" height="19" viewBox="0 0 16 19" fill="none" xmlns="http://www.w3.org/2000/svg">
<path d="M12.4415 8.16602C12.4415 5.67713 10.486 3.72157 7.99707 3.72157C5.50818 3.72157 3.55263 5.67713 3.55263 8.16602V14.3882H12.4415V8.16602Z" fill="#009EB4"/>
<path fill-rule="evenodd" clip-rule="evenodd" d="M15.9971 16.166V15.2771L14.2193 13.4993V8.16602C14.2193 5.41046 12.4415 3.01046 9.77485 2.21046V1.94379C9.77485 0.966016 8.97485 0.166016 7.99707 0.166016C7.01929 0.166016 6.21929 0.966016 6.21929 1.94379V2.21046C3.55263 3.01046 1.77485 5.41046 1.77485 8.16602V13.4993L-0.00292969 15.2771V16.166H15.9971ZM7.99707 3.72157C10.486 3.72157 12.4415 5.67713 12.4415 8.16602V14.3882H3.55263V8.16602C3.55263 5.67713 5.50818 3.72157 7.99707 3.72157Z" fill="#009EB4"/>
<path d="M6.21929 17.0549H9.77485C9.77485 18.0327 8.97485 18.8327 7.99707 18.8327C7.01929 18.8327 6.21929 18.0327 6.21929 17.0549Z" fill="#F4C63B"/>
</svg>
