<svg width="60" height="61" viewBox="0 0 60 61" fill="none" xmlns="http://www.w3.org/2000/svg">
<path d="M3.16406 56.5508H56.8359V52.0859H3.16406V56.5508Z" fill="#414141"/>
<path fill-rule="evenodd" clip-rule="evenodd" d="M22.5703 9.47656C22.5703 9.86328 22.8867 10.1797 23.2734 10.1797H25.1367C25.5234 10.1797 25.8398 9.86328 25.8398 9.47656C25.8398 9.08984 25.5234 8.77344 25.1367 8.77344H23.2734C22.8867 8.77344 22.5703 9.08984 22.5703 9.47656ZM27.8203 9.47656C27.8203 9.86328 28.1367 10.1797 28.5234 10.1797H30.3867C30.7734 10.1797 31.0898 9.86328 31.0898 9.47656C31.0898 9.08984 30.7734 8.77344 30.3867 8.77344H28.5234C28.1367 8.77344 27.8203 9.08984 27.8203 9.47656ZM22.5703 14.4102C22.5703 14.7969 22.8867 15.1133 23.2734 15.1133H25.1367C25.5234 15.1133 25.8398 14.7969 25.8398 14.4102C25.8398 14.0234 25.5234 13.707 25.1367 13.707H23.2734C22.8867 13.707 22.5703 14.0234 22.5703 14.4102ZM27.8203 14.4102C27.8203 14.7969 28.1367 15.1133 28.5234 15.1133H30.3867C30.7734 15.1133 31.0898 14.7969 31.0898 14.4102C31.0898 14.0234 30.7734 13.707 30.3867 13.707H28.5234C28.1367 13.707 27.8203 14.0234 27.8203 14.4102ZM17.332 14.4102C17.332 14.7969 17.6484 15.1133 18.0352 15.1133H19.8984C20.2852 15.1133 20.6016 14.7969 20.6016 14.4102C20.6016 14.0234 20.2852 13.707 19.8984 13.707H18.0352C17.6484 13.707 17.332 14.0234 17.332 14.4102ZM22.5703 19.3438C22.5703 19.7305 22.8867 20.0469 23.2734 20.0469H25.1367C25.5234 20.0469 25.8398 19.7305 25.8398 19.3438C25.8398 18.957 25.5234 18.6406 25.1367 18.6406H23.2734C22.8867 18.6406 22.5703 18.957 22.5703 19.3438ZM27.8203 19.3438C27.8203 19.7305 28.1367 20.0469 28.5234 20.0469H30.3867C30.7734 20.0469 31.0898 19.7305 31.0898 19.3438C31.0898 18.957 30.7734 18.6406 30.3867 18.6406H28.5234C28.1367 18.6406 27.8203 18.957 27.8203 19.3438ZM17.332 19.3438C17.332 19.7305 17.6484 20.0469 18.0352 20.0469H19.8984C20.2852 20.0469 20.6016 19.7305 20.6016 19.3438C20.6016 18.957 20.2852 18.6406 19.8984 18.6406H18.0352C17.6484 18.6406 17.332 18.957 17.332 19.3438ZM22.5703 24.2773C22.5703 24.6641 22.8867 24.9805 23.2734 24.9805H25.1367C25.5234 24.9805 25.8398 24.6641 25.8398 24.2773C25.8398 23.8906 25.5234 23.5742 25.1367 23.5742H23.2734C22.8867 23.5742 22.5703 23.8906 22.5703 24.2773ZM27.8203 24.2773C27.8203 24.6641 28.1367 24.9805 28.5234 24.9805H30.3867C30.7734 24.9805 31.0898 24.6641 31.0898 24.2773C31.0898 23.8906 30.7734 23.5742 30.3867 23.5742H28.5234C28.1367 23.5742 27.8203 23.8906 27.8203 24.2773ZM17.332 24.2773C17.332 24.6641 17.6484 24.9805 18.0352 24.9805H19.8984C20.2852 24.9805 20.6016 24.6641 20.6016 24.2773C20.6016 23.8906 20.2852 23.5742 19.8984 23.5742H18.0352C17.6484 23.5742 17.332 23.8906 17.332 24.2773ZM17.332 29.2109C17.332 29.5977 17.6484 29.9141 18.0352 29.9141H19.8984C20.2852 29.9141 20.6016 29.5977 20.6016 29.2109C20.6016 28.8242 20.2852 28.5078 19.8984 28.5078H18.0352C17.6484 28.5078 17.332 28.8242 17.332 29.2109ZM17.332 34.1445C17.332 34.5313 17.6484 34.8477 18.0352 34.8477H19.8984C20.2852 34.8477 20.6016 34.5313 20.6016 34.1445C20.6016 33.7578 20.2852 33.4414 19.8984 33.4414H18.0352C17.6484 33.4414 17.332 33.7578 17.332 34.1445ZM38.6367 24.2305C38.6367 24.6172 38.9531 24.9336 39.3398 24.9336H42.0117C42.3984 24.9336 42.7148 24.6172 42.7148 24.2305C42.7148 23.8438 42.3984 23.5273 42.0117 23.5273H39.3398C38.9531 23.5273 38.6367 23.8438 38.6367 24.2305ZM39.6797 29.1875C39.6797 29.5742 39.9961 29.8906 40.3828 29.8906H42.0117C42.3984 29.8906 42.7148 29.5742 42.7148 29.1875C42.7148 28.8008 42.3984 28.4844 42.0117 28.4844H40.3828C39.9961 28.4844 39.6797 28.8008 39.6797 29.1875ZM38.6367 19.2852C38.6367 19.6719 38.9531 19.9883 39.3398 19.9883H42.0117C42.3984 19.9883 42.7148 19.6719 42.7148 19.2852C42.7148 18.8984 42.3984 18.582 42.0117 18.582H39.3398C38.9531 18.582 38.6367 18.8984 38.6367 19.2852ZM20.0508 46.707C19.2539 44.6445 17.3906 43.1211 15.1641 42.793C18 40.5312 17.4727 36.1016 14.25 34.5312V14.4219C14.25 8.9375 18.7383 4.44922 24.2227 4.44922H34.1953V31.9063C31.8984 29.5859 28.1602 29.5742 25.8516 31.8828C23.2383 34.4844 23.6484 38.8086 26.6719 40.8945C23.4375 41.1875 20.7539 43.5664 20.0508 46.707ZM44.8359 42.793C42.6094 43.1211 40.7461 44.6445 39.9492 46.707C39.2461 43.5781 36.5742 41.1992 33.3281 40.8945C35.6367 39.3125 36.5273 36.3008 35.4023 33.7109C35.5195 33.582 35.5898 33.418 35.5898 33.2305V15.4766H45.7617V34.543C42.5156 36.1016 42 40.5312 44.8359 42.793Z" fill="#414141"/>
<path d="M14.25 44.1289H9.97266C7.33594 44.1289 5.16797 46.2969 5.16797 48.9336V50.6797H19.0547V48.9336C19.0547 46.2969 16.8867 44.1289 14.25 44.1289Z" fill="#414141"/>
<path d="M32.6367 42.2656H27.3516C24.0117 42.2656 21.2578 45.0078 21.2578 48.3594V50.6797H38.7188V48.3594C38.7305 45.0078 35.9883 42.2656 32.6367 42.2656Z" fill="#414141"/>
<path d="M50.0273 44.1289H45.7383C43.1016 44.1289 40.9336 46.2969 40.9336 48.9336V50.6797H54.8203V48.9336C54.832 46.2969 52.6758 44.1289 50.0273 44.1289Z" fill="#414141"/>
<path d="M47.8945 35.457C45.9609 35.457 44.4023 37.0273 44.4023 38.9492C44.4023 40.8828 45.9727 42.4414 47.8945 42.4414C49.8164 42.4414 51.3867 40.8711 51.3867 38.9492C51.3867 37.0273 49.8164 35.457 47.8945 35.457Z" fill="#414141"/>
<path d="M30 31.5664C27.5273 31.5664 25.5234 33.5703 25.5234 36.043C25.5234 38.5156 27.5273 40.5195 30 40.5195C32.4727 40.5195 34.4766 38.5156 34.4766 36.043C34.4766 33.5703 32.4727 31.5664 30 31.5664Z" fill="#414141"/>
<path d="M12.1055 35.457C10.1719 35.457 8.61328 37.0273 8.61328 38.9492C8.61328 40.8828 10.1836 42.4414 12.1055 42.4414C14.0273 42.4414 15.5977 40.8711 15.5977 38.9492C15.6094 37.0273 14.0391 35.457 12.1055 35.457Z" fill="#414141"/>
</svg>
