<svg width="12" height="10" viewBox="0 0 12 10" fill="none" xmlns="http://www.w3.org/2000/svg">
<path d="M10.1971 8.2979H11.1638V9.26458H0.530273V8.2979H1.49695V1.04779C1.49695 0.919603 1.54788 0.796664 1.63852 0.70602C1.72916 0.615376 1.8521 0.564453 1.98029 0.564453H6.8137C6.94188 0.564453 7.06482 0.615376 7.15547 0.70602C7.24611 0.796664 7.29704 0.919603 7.29704 1.04779V8.2979H8.26372V3.46449H9.71374C9.84193 3.46449 9.96487 3.51542 10.0555 3.60606C10.1462 3.69671 10.1971 3.81964 10.1971 3.94783V8.2979ZM3.43031 4.43117V5.39785H5.36368V4.43117H3.43031ZM3.43031 2.49781V3.46449H5.36368V2.49781H3.43031Z" fill="#009EB4"/>
</svg>
