<svg width="24" height="24" viewBox="0 0 24 24" fill="none" xmlns="http://www.w3.org/2000/svg">
<path d="M7.33294 10.1329H16.6663M7.33294 13.8663H11.9996M7.33294 3.59961V5.46628M16.6663 3.59961V5.46628M6.58628 20.3996H17.4129C18.4584 20.3996 18.9811 20.3996 19.3804 20.1961C19.7316 20.0172 20.0172 19.7316 20.1961 19.3804C20.3996 18.9811 20.3996 18.4584 20.3996 17.4129V8.45294C20.3996 7.40751 20.3996 6.88479 20.1961 6.48549C20.0172 6.13425 19.7316 5.84869 19.3804 5.66973C18.9811 5.46628 18.4584 5.46628 17.4129 5.46628H6.58628C5.54085 5.46628 5.01813 5.46628 4.61883 5.66973C4.26759 5.84869 3.98202 6.13425 3.80307 6.48549C3.59961 6.88479 3.59961 7.40751 3.59961 8.45294V17.4129C3.59961 18.4584 3.59961 18.9811 3.80307 19.3804C3.98202 19.7316 4.26759 20.0172 4.61883 20.1961C5.01813 20.3996 5.54084 20.3996 6.58628 20.3996Z" stroke="#414141" stroke-width="1.68" stroke-linecap="round" stroke-linejoin="round"/>
</svg>
