<svg width="17" height="17" viewBox="0 0 17 17" fill="none" xmlns="http://www.w3.org/2000/svg">
<g clip-path="url(#clip0_997_35751)">
<path d="M1.19336 7.16714V3.37737C1.19336 3.17635 1.27321 2.98356 1.41536 2.84142C1.5575 2.69928 1.75029 2.61942 1.95131 2.61942H5.74108C5.9421 2.61942 6.13489 2.69928 6.27703 2.84142C6.41917 2.98356 6.49903 3.17635 6.49903 3.37737V6.40919C6.49903 6.61021 6.41917 6.803 6.27703 6.94514C6.13489 7.08728 5.9421 7.16714 5.74108 7.16714H4.22517C4.22517 8.77531 4.86401 10.3176 6.00116 11.4548C7.13831 12.5919 8.68062 13.2308 10.2888 13.2308V11.7149C10.2888 11.5138 10.3686 11.321 10.5108 11.1789C10.6529 11.0368 10.8457 10.9569 11.0467 10.9569H14.0786C14.2796 10.9569 14.4724 11.0368 14.6145 11.1789C14.7567 11.321 14.8365 11.5138 14.8365 11.7149V15.5046C14.8365 15.7056 14.7567 15.8984 14.6145 16.0406C14.4724 16.1827 14.2796 16.2626 14.0786 16.2626H10.2888C5.26584 16.2626 1.19336 12.1901 1.19336 7.16714Z" fill="#D9D9D9"/>
<path d="M16.3524 8.68304C16.3524 7.68769 16.1564 6.70207 15.7755 5.78248C15.3946 4.86289 14.8362 4.02733 14.1324 3.32351C13.4286 2.61968 12.593 2.06138 11.6734 1.68047C10.7539 1.29957 9.76825 1.10352 8.77289 1.10352V2.61942C9.97211 2.61939 11.1444 2.97496 12.1416 3.64117C13.1387 4.30737 13.9159 5.25429 14.3749 6.36219C14.6797 7.09799 14.8366 7.88662 14.8365 8.68304H16.3524Z" fill="#D9D9D9"/>
<path d="M12.9767 6.94222C13.2053 7.49394 13.323 8.08528 13.3231 8.68248H11.9588C11.9588 7.83819 11.6234 7.02848 11.0264 6.43148C10.4294 5.83447 9.61968 5.49908 8.77539 5.49908V4.13477C9.67482 4.13481 10.554 4.40156 11.3019 4.90128C12.0497 5.40101 12.6325 6.11126 12.9767 6.94222Z" fill="#D9D9D9"/>
</g>
<defs>
<clipPath id="clip0_997_35751">
<rect width="15.6818" height="15.6818" fill="white" transform="translate(0.931641 0.841797)"/>
</clipPath>
</defs>
</svg>
