<svg width="18" height="19" viewBox="0 0 18 19" fill="none" xmlns="http://www.w3.org/2000/svg">
<path d="M15.75 3.58691H2.25C1.95163 3.58691 1.66548 3.70544 1.4545 3.91642C1.24353 4.1274 1.125 4.41355 1.125 4.71191V7.0252V13.7049C1.125 14.0033 1.24353 14.2894 1.4545 14.5004C1.66548 14.7114 1.95163 14.8299 2.25 14.8299H15.75C16.0484 14.8299 16.3345 14.7114 16.5455 14.5004C16.7565 14.2894 16.875 14.0033 16.875 13.7049V4.71191C16.875 4.41355 16.7565 4.1274 16.5455 3.91642C16.3345 3.70544 16.0484 3.58691 15.75 3.58691ZM9.5625 12.5869H8.4375C8.28832 12.5869 8.14524 12.5277 8.03975 12.4222C7.93426 12.3167 7.875 12.1736 7.875 12.0244C7.875 11.8752 7.93426 11.7322 8.03975 11.6267C8.14524 11.5212 8.28832 11.4619 8.4375 11.4619H9.5625C9.71168 11.4619 9.85476 11.5212 9.96025 11.6267C10.0657 11.7322 10.125 11.8752 10.125 12.0244C10.125 12.1736 10.0657 12.3167 9.96025 12.4222C9.85476 12.5277 9.71168 12.5869 9.5625 12.5869ZM14.0625 12.5869H11.8125C11.6633 12.5869 11.5202 12.5277 11.4148 12.4222C11.3093 12.3167 11.25 12.1736 11.25 12.0244C11.25 11.8752 11.3093 11.7322 11.4148 11.6267C11.5202 11.5212 11.6633 11.4619 11.8125 11.4619H14.0625C14.2117 11.4619 14.3548 11.5212 14.4602 11.6267C14.5657 11.7322 14.625 11.8752 14.625 12.0244C14.625 12.1736 14.5657 12.3167 14.4602 12.4222C14.3548 12.5277 14.2117 12.5869 14.0625 12.5869ZM2.25 6.4627V4.71191H15.75V6.4627H2.25Z" fill="#333333"/>
</svg>
