<svg width="24" height="24" viewBox="0 0 24 24" fill="none" xmlns="http://www.w3.org/2000/svg">
<path d="M17.3828 9.75C19.2468 9.75 20.7578 8.23896 20.7578 6.375C20.7578 4.51104 19.2468 3 17.3828 3C15.5189 3 14.0078 4.51104 14.0078 6.375C14.0078 8.23896 15.5189 9.75 17.3828 9.75Z" stroke="#414141" stroke-width="1.8" stroke-linecap="round" stroke-linejoin="round"/>
<path d="M6.13281 21C7.99677 21 9.50781 19.489 9.50781 17.625C9.50781 15.761 7.99677 14.25 6.13281 14.25C4.26885 14.25 2.75781 15.761 2.75781 17.625C2.75781 19.489 4.26885 21 6.13281 21Z" stroke="#414141" stroke-width="1.8" stroke-linecap="round" stroke-linejoin="round"/>
<path d="M14.0078 14.25H20.7578V19.875C20.7578 20.4963 20.2541 21 19.6328 21H15.1328C14.5115 21 14.0078 20.4963 14.0078 19.875V14.25Z" stroke="#414141" stroke-width="1.8" stroke-linecap="round" stroke-linejoin="round"/>
<path d="M2.75781 3H9.50781V8.625C9.50781 9.24632 9.00413 9.75 8.38281 9.75H3.88281C3.2615 9.75 2.75781 9.24632 2.75781 8.625V3Z" stroke="#414141" stroke-width="1.8" stroke-linecap="round" stroke-linejoin="round"/>
</svg>
