<svg width="13" height="12" viewBox="0 0 13 12" fill="none" xmlns="http://www.w3.org/2000/svg">
<path d="M11.599 5.23587C11.4255 5.135 11.2696 5.00652 11.1374 4.85549C11.1508 4.64522 11.2009 4.43891 11.2854 4.24592C11.4409 3.80731 11.6167 3.31047 11.3346 2.92421C11.0525 2.53796 10.5199 2.55024 10.0524 2.56093C9.84585 2.58218 9.63718 2.56809 9.43536 2.51926C9.32783 2.3443 9.25104 2.15223 9.20831 1.95136C9.07582 1.49993 8.92463 0.989729 8.46037 0.836937C8.01268 0.692692 7.59811 1.01003 7.23162 1.2889C7.07348 1.43332 6.89024 1.54757 6.69097 1.62601C6.48961 1.54821 6.30433 1.43393 6.14444 1.2889C5.77902 1.01163 5.36605 0.69109 4.91622 0.837471C4.45304 0.988127 4.30185 1.49993 4.16829 1.95136C4.12562 2.15158 4.04959 2.34319 3.94337 2.51819C3.74117 2.56689 3.53224 2.58134 3.32526 2.56093C2.8562 2.54811 2.32783 2.53422 2.04308 2.92421C1.75833 3.31421 1.93624 3.80731 2.09223 4.24539C2.17795 4.43809 2.22878 4.64448 2.24235 4.85495C2.11044 5.00618 1.95471 5.13485 1.78131 5.23587C1.39024 5.50299 0.946289 5.80697 0.946289 6.30061C0.946289 6.79424 1.39024 7.09716 1.78131 7.36535C1.95467 7.4662 2.1104 7.59468 2.24235 7.74572C2.2302 7.95612 2.18082 8.16269 2.09651 8.35583C1.94158 8.7939 1.76635 9.29075 2.04789 9.677C2.32944 10.0633 2.86047 10.051 3.33007 10.0403C3.5368 10.019 3.74565 10.0331 3.94765 10.082C4.0547 10.2571 4.13129 10.4491 4.17417 10.6499C4.30666 11.1013 4.45785 11.6115 4.9221 11.7643C4.99653 11.7881 5.0742 11.8004 5.15236 11.8006C5.52804 11.7467 5.87721 11.5758 6.15032 11.3123C6.30846 11.1679 6.49169 11.0536 6.69097 10.9752C6.89233 11.053 7.0776 11.1673 7.2375 11.3123C7.60345 11.5917 8.01802 11.9107 8.46625 11.7637C8.92943 11.6131 9.08062 11.1013 9.21418 10.6504C9.257 10.4498 9.33359 10.2579 9.4407 10.083C9.64212 10.034 9.85041 10.0195 10.0567 10.0403C10.5257 10.0515 11.0541 10.067 11.3389 9.677C11.6236 9.28701 11.4457 8.7939 11.2897 8.35529C11.2046 8.16276 11.1538 7.95683 11.1396 7.74679C11.2716 7.59543 11.4275 7.46675 11.6012 7.36588C11.9922 7.09876 12.4362 6.79424 12.4362 6.30061C12.4362 5.80697 11.9906 5.50352 11.599 5.23587Z" fill="#009EB4"/>
<path d="M6.06854 7.78494C6.01592 7.78504 5.9638 7.7747 5.9152 7.75453C5.86659 7.73435 5.82248 7.70474 5.78539 7.66741L4.71691 6.59893C4.64614 6.52297 4.60761 6.42251 4.60944 6.31871C4.61127 6.2149 4.65332 6.11586 4.72673 6.04245C4.80014 5.96904 4.89918 5.92699 5.00299 5.92516C5.10679 5.92333 5.20725 5.96186 5.28321 6.03263L6.10594 6.85536L7.96509 5.461C8.0501 5.39724 8.15696 5.36986 8.26216 5.38489C8.36736 5.39992 8.46228 5.45612 8.52604 5.54113C8.5898 5.62615 8.61718 5.73301 8.60215 5.83821C8.58712 5.9434 8.53092 6.03832 8.44591 6.10208L6.30895 7.7048C6.23957 7.75679 6.15523 7.7849 6.06854 7.78494Z" fill="white"/>
</svg>
