<svg width="36" height="36" viewBox="0 0 36 36" fill="none" xmlns="http://www.w3.org/2000/svg">
<g clip-path="url(#clip0_1054_89352)">
<path d="M34.9453 30.3516H21.8259L21.0052 31.1723C20.8074 31.3701 20.5391 31.4813 20.2594 31.4813H15.7406C15.4608 31.4813 15.1926 31.3701 14.9948 31.1723L14.1741 30.3516H1.05469C0.472219 30.3516 0 30.8238 0 31.4062V32.6859C0 34.5378 1.50398 36 3.31411 36H32.6859C34.5378 36 36 34.496 36 32.6859V31.4062C36 30.8237 35.5278 30.3516 34.9453 30.3516Z" fill="#009EB4"/>
<path d="M21.3125 1.49219V4.6694H24.4896L21.3125 1.49219Z" fill="#F4C63B"/>
<path d="M15.3582 28.5499L16.179 29.3707H19.8241L20.6449 28.5499C20.8426 28.3521 21.1109 28.241 21.3906 28.241H32.6125V13.4801C32.6125 11.6527 31.1258 10.166 29.2985 10.166H28.0937V22.6676C28.0937 24.4122 26.6743 25.8316 24.9297 25.8316H11.0735C9.3288 25.8316 7.9094 24.4122 7.9094 22.6676V10.166H6.70466C4.87731 10.166 3.39062 11.6527 3.39062 13.4801V28.241H14.6125C14.8922 28.241 15.1605 28.3521 15.3582 28.5499Z" fill="#009EB4"/>
<path d="M11.0703 23.7234H24.9265C25.509 23.7234 25.9812 23.2512 25.9812 22.6687V6.77813H20.2578C19.6754 6.77813 19.2031 6.30591 19.2031 5.72344V0H11.0703C10.4878 0 10.0156 0.472219 10.0156 1.05469V22.6687C10.0156 23.2512 10.4878 23.7234 11.0703 23.7234ZM13.4796 4.51877H15.739C17.1359 4.57017 17.1367 6.57647 15.739 6.62815H13.4796C12.0827 6.57668 12.082 4.57045 13.4796 4.51877ZM13.4796 9.03748H15.739C17.1359 9.08888 17.1367 11.0952 15.739 11.1469H13.4796C12.0827 11.0955 12.082 9.08923 13.4796 9.03748ZM13.4796 13.5563H22.5171C23.0996 13.5563 23.5718 14.0285 23.5718 14.6109C23.5718 15.1934 23.0996 15.6656 22.5171 15.6656H13.4796C12.0846 15.6151 12.0802 13.6086 13.4796 13.5563ZM13.4796 18.075H22.5171C23.0996 18.075 23.5718 18.5472 23.5718 19.1297C23.5718 19.7122 23.0996 20.1844 22.5171 20.1844H13.4796C12.0846 20.1338 12.0802 18.1273 13.4796 18.075Z" fill="#F4C63B"/>
</g>
<defs>
<clipPath id="clip0_1054_89352">
<rect width="36" height="36" fill="white"/>
</clipPath>
</defs>
</svg>
