<svg width="66" height="67" viewBox="0 0 66 67" fill="none" xmlns="http://www.w3.org/2000/svg">
    <path d="M9.42599 21.2363L4.89697 23.2492C4.5272 23.4136 4.29102 23.773 4.29102 24.1838V30.8182L9.42599 33.0981V21.2363Z" fill="#D9D9D9"/>
    <path d="M61.197 23.2492L56.668 21.2363V33.0981L61.8029 30.8182V24.1838C61.8029 23.773 61.5668 23.4135 61.197 23.2492Z" fill="#D9D9D9"/>
    <path d="M37.6375 43.8098C34.7544 45.0995 31.3393 45.0994 28.4562 43.8097C28.444 43.8094 10.6504 35.8835 10.6378 35.8916L4.29102 33.0674V57.0478C4.29102 59.8823 6.59147 62.1827 9.42599 62.1827H56.6678C59.5023 62.1827 61.8028 59.8823 61.8028 57.0478V33.0674C61.7924 33.0674 55.4569 35.9 55.4457 35.8916L37.6375 43.8098ZM10.453 49.8588H14.561C15.9096 49.8813 15.9117 51.8898 14.5609 51.9128H10.453C9.10431 51.8902 9.10229 49.8817 10.453 49.8588ZM18.6689 57.0478H10.453C9.10556 57.0256 9.10124 55.0168 10.453 54.9938H18.6689C20.0164 55.016 20.0207 57.0247 18.6689 57.0478Z" fill="#D9D9D9"/>
    <path d="M36.8052 41.9303L52.5593 34.9261L54.6133 34.0122V5.69789C54.6133 5.13306 54.1511 4.6709 53.5863 4.6709H12.5065C11.9417 4.6709 11.4795 5.13306 11.4795 5.69789V34.0122C11.8497 34.1958 28.2513 41.4566 29.2876 41.9303C31.6805 42.9881 34.4123 42.9881 36.8052 41.9303ZM43.1521 17.9191C43.3266 17.3748 43.9017 17.0872 44.446 17.2619L45.2677 17.5186V16.6662C45.2677 16.1014 45.7195 15.6392 46.2947 15.6392C46.8595 15.6392 47.3217 16.1014 47.3217 16.6662V17.5186L48.133 17.2619C48.6772 17.0872 49.2524 17.3748 49.427 17.9191C49.6016 18.4532 49.3037 19.0386 48.7697 19.2131L47.9584 19.4801L48.4616 20.1682C48.7903 20.6304 48.6875 21.2671 48.2254 21.606C47.7816 21.9381 47.122 21.8376 46.7979 21.3801L46.2947 20.6817L45.7914 21.3801C45.4519 21.8418 44.8077 21.9353 44.3536 21.606C43.8915 21.2671 43.7888 20.6304 44.1277 20.1682L44.631 19.4801L43.8093 19.2131C43.2753 19.0386 42.9774 18.4532 43.1521 17.9191ZM34.3301 17.9191C34.5047 17.3748 35.0798 17.0872 35.6242 17.2619L36.4355 17.5186V16.6662C36.4355 16.1014 36.8976 15.6392 37.4625 15.6392C38.0273 15.6392 38.4895 16.1014 38.4895 16.6662V17.5186L39.3008 17.2619C39.8451 17.0872 40.4202 17.3748 40.5948 17.9191C40.7694 18.4532 40.4818 19.0386 39.9376 19.2131L39.1262 19.4801L39.6294 20.1682C39.9581 20.6304 39.8554 21.2671 39.4035 21.606C38.9422 21.9348 38.308 21.8422 37.9657 21.3801L37.4625 20.6817L36.9593 21.3801C36.6196 21.8418 35.9756 21.9353 35.5214 21.606C35.0593 21.2671 34.9669 20.6304 35.2955 20.1682L35.7988 19.4801L34.9874 19.2131C34.4431 19.0386 34.1453 18.4532 34.3301 17.9191ZM25.498 17.9191C25.6726 17.3748 26.2477 17.0872 26.792 17.2619L27.6033 17.5186V16.6662C27.6033 16.1014 28.0655 15.6392 28.6303 15.6392C29.1952 15.6392 29.6573 16.1014 29.6573 16.6662V17.5186L30.4686 17.2619C31.013 17.0872 31.5881 17.3748 31.7626 17.9191C31.9475 18.4532 31.6497 19.0386 31.1054 19.2131L30.2941 19.4801L30.7973 20.1682C31.1259 20.6304 31.0335 21.2671 30.5714 21.606C30.1172 21.9353 29.4731 21.8417 29.1336 21.3801L28.6303 20.6817L28.1271 21.3801C27.7847 21.8422 27.1506 21.9347 26.6893 21.606C26.2374 21.2671 26.1347 20.6304 26.4634 20.1682L26.9666 19.4801L26.1552 19.2131C25.611 19.0386 25.3234 18.4532 25.498 17.9191ZM16.6658 17.9191C16.8404 17.3748 17.4156 17.0872 17.9598 17.2619L18.7711 17.5186V16.6662C18.7711 16.1014 19.2333 15.6392 19.7981 15.6392C20.3733 15.6392 20.8251 16.1014 20.8251 16.6662V17.5186L21.6468 17.2619C22.1808 17.0872 22.7662 17.3748 22.9407 17.9191C23.1154 18.4532 22.8175 19.0386 22.2835 19.2131L21.4619 19.4801L21.9651 20.1682C22.304 20.6304 22.2013 21.2671 21.7392 21.606C21.2851 21.9354 20.6409 21.8417 20.3014 21.3801L19.7981 20.6817L19.2949 21.3801C18.9708 21.8376 18.3113 21.938 17.8674 21.606C17.4053 21.2671 17.3026 20.6304 17.6312 20.1682L18.1344 19.4801L17.3231 19.2131C16.7891 19.0386 16.4912 18.4532 16.6658 17.9191ZM17.6415 23.8552H48.4513C49.7898 23.8778 49.809 25.8824 48.4513 25.9091H17.6415C16.3029 25.8864 16.2838 23.8819 17.6415 23.8552Z" fill="#D9D9D9"/>
    </svg>
    