<svg width="186" height="185" viewBox="0 0 186 185" fill="none" xmlns="http://www.w3.org/2000/svg">
<path d="M2.9292 92.4582C2.9292 43.0518 43.5936 3 93 3C142.406 3 183.071 43.0518 183.071 92.4582C183.071 141.865 142.406 181.916 93 181.916C43.5936 181.916 2.9292 141.865 2.9292 92.4582Z" fill="url(#paint0_linear_1087_4711)" fill-opacity="0.1"/>
<path d="M93.0005 1.55957C143.189 1.55983 184.511 42.2438 184.511 92.458C184.511 142.672 143.189 183.356 93.0005 183.356C42.8116 183.356 1.48877 142.672 1.48877 92.458C1.48887 42.2436 42.8117 1.55957 93.0005 1.55957Z" stroke="#009EB4" stroke-opacity="0.1" stroke-width="2.88"/>
<ellipse cx="95.8721" cy="138.475" rx="51.1763" ry="1.44158" fill="black" fill-opacity="0.1"/>
<rect x="57.7983" y="45.5293" width="64.7564" height="93.7524" rx="15.8205" fill="#006978"/>
<rect x="63.4927" y="45.5293" width="64.7564" height="93.7524" rx="15.8205" fill="white"/>
<rect x="73.8926" y="111.768" width="43.957" height="9.52056" rx="4.76028" fill="#008193"/>
<rect x="73.8926" y="99.1738" width="43.957" height="9.52056" rx="4.76028" fill="#009EB4"/>
<circle cx="95.4169" cy="79.3847" r="10.8944" fill="#009EB4"/>
<path d="M91.5825 79.5519L94.0259 81.9952L99.2496 76.7715" stroke="white" stroke-width="2.45677" stroke-linecap="round" stroke-linejoin="round"/>
<rect x="65.7846" y="47.8212" width="60.1726" height="89.1685" rx="13.5286" stroke="#009EB4" stroke-width="4.58388"/>
<path d="M87.9214 57.3672L95.3884 57.3672" stroke="black" stroke-width="4.27069" stroke-linecap="round"/>
<circle cx="101.828" cy="57.3673" r="1.99233" fill="black"/>
<path d="M139.807 45C140.288 48.7947 143.276 51.783 147.071 52.2637C143.276 52.7444 140.288 55.7326 139.807 59.5274C139.326 55.7326 136.338 52.7444 132.543 52.2637C136.338 51.783 139.326 48.7947 139.807 45Z" fill="#F4C63B"/>
<path d="M45.4292 77.2383C45.8593 80.6341 48.5334 83.3081 51.9292 83.7383C48.5334 84.1684 45.8593 86.8425 45.4292 90.2383C44.9991 86.8425 42.325 84.1684 38.9292 83.7383C42.325 83.3081 44.9991 80.6341 45.4292 77.2383Z" fill="#F4C63B"/>
<defs>
<linearGradient id="paint0_linear_1087_4711" x1="93" y1="92.4582" x2="93" y2="181.916" gradientUnits="userSpaceOnUse">
<stop stop-color="#009EB4" stop-opacity="0.1"/>
<stop offset="1" stop-color="#009EB4" stop-opacity="0.8"/>
</linearGradient>
</defs>
</svg>
