<svg width="24" height="24" viewBox="0 0 24 24" fill="none" xmlns="http://www.w3.org/2000/svg">
<path d="M16.9545 4.24121H7.40909C6.50528 4.24229 5.63879 4.60181 4.9997 5.24091C4.3606 5.88 4.00108 6.74649 4 7.6503L4 15.8321C4.00108 16.7359 4.3606 17.6024 4.9997 18.2415C5.63879 18.8806 6.50528 19.2401 7.40909 19.2412H16.9545C17.8584 19.2401 18.7248 18.8806 19.3639 18.2415C20.003 17.6024 20.3626 16.7359 20.3636 15.8321V7.6503C20.3626 6.74649 20.003 5.88 19.3639 5.24091C18.7248 4.60181 17.8584 4.24229 16.9545 4.24121ZM7.40909 5.60485H16.9545C17.3628 5.60565 17.7615 5.72861 18.0993 5.9579C18.4371 6.18718 18.6985 6.51231 18.85 6.89144L13.6286 12.1135C13.2444 12.4962 12.7241 12.7111 12.1818 12.7111C11.6395 12.7111 11.1193 12.4962 10.735 12.1135L5.51364 6.89144C5.6651 6.51231 5.92655 6.18718 6.26435 5.9579C6.60215 5.72861 7.00083 5.60565 7.40909 5.60485ZM16.9545 17.8776H7.40909C6.8666 17.8776 6.34633 17.6621 5.96274 17.2785C5.57914 16.8949 5.36364 16.3746 5.36364 15.8321V8.67303L9.77091 13.0776C10.4109 13.7159 11.2779 14.0744 12.1818 14.0744C13.0857 14.0744 13.9528 13.7159 14.5927 13.0776L19 8.67303V15.8321C19 16.3746 18.7845 16.8949 18.4009 17.2785C18.0173 17.6621 17.497 17.8776 16.9545 17.8776Z" fill="#acacac"/>
</svg>
