<svg width="90" height="90" viewBox="0 0 90 90" fill="none" xmlns="http://www.w3.org/2000/svg">
<g clip-path="url(#clip0_1055_224465)">
<path d="M45.0001 90.0002C69.853 90.0002 90.0002 69.853 90.0002 45.0001C90.0002 20.1472 69.853 0 45.0001 0C20.1472 0 0 20.1472 0 45.0001C0 69.853 20.1472 90.0002 45.0001 90.0002Z" fill="#E24C4B"/>
<path d="M90.0002 44.9999C90.0002 69.75 69.7501 90 45.0001 90C30.6564 90 18.0001 83.5312 9.84375 73.125C17.4375 79.3125 27.2813 82.9688 37.9687 82.9688C62.7188 82.9688 82.9688 62.7188 82.9688 37.9687C82.9688 27.2813 79.3125 17.4375 73.125 9.84375C83.5314 17.9997 90.0002 30.656 90.0002 44.9999Z" fill="#D1403F"/>
<path d="M65.5311 65.5311C63.8437 67.2186 61.031 67.2186 59.3436 65.5311L44.9999 51.1874L30.6562 65.5311C28.9688 67.2186 26.1561 67.2186 24.4687 65.5311C22.7813 63.8437 22.7813 61.031 24.4687 59.3436L38.8124 44.9999L24.4687 30.6562C22.7813 28.9688 22.7813 26.1561 24.4687 24.4687C26.1561 22.7813 28.9688 22.7813 30.6562 24.4687L44.9999 38.8124L59.3436 24.4687C61.031 22.7813 63.8437 22.7813 65.5311 24.4687C67.2186 26.1561 67.2186 28.9688 65.5311 30.6562L51.1874 44.9999L65.5311 59.3436C67.2186 61.031 67.2186 63.8435 65.5311 65.5311Z" fill="white"/>
</g>
<defs>
<clipPath id="clip0_1055_224465">
<rect width="90" height="90" fill="white"/>
</clipPath>
</defs>
</svg>
