<svg width="90" height="90" viewBox="0 0 90 90" fill="none" xmlns="http://www.w3.org/2000/svg">
<g clip-path="url(#clip0_1055_228228)">
<path d="M75.3769 43.3331C75.0877 41.4069 73.4363 40.0187 71.4928 40.0187H40.0091L34.2914 33.2511C33.0796 31.8282 31.3009 30.9316 29.4297 30.9316H8.97372C7.51609 30.9316 6.13076 31.6142 5.18793 32.7305C4.24799 33.8498 3.84599 35.3826 4.09182 36.82L4.63554 40.0187H4.27691C3.13163 40.0187 2.04709 40.4843 1.3067 41.352C0.55475 42.2225 0.22794 43.3562 0.40436 44.487L6.75546 85.694C7.14012 88.1726 9.2745 89.9975 11.782 89.9975H77.7137C78.859 89.9975 79.9435 89.4943 80.6839 88.6353C81.4272 87.7677 81.7627 86.6426 81.5921 85.5118L75.3769 43.3331Z" fill="#009EB4"/>
<path d="M59.6989 12.584H35.0725C33.3748 12.584 31.9982 14.1168 31.9982 15.8174C31.9982 17.5179 33.3777 19.0508 35.0725 19.0508H59.6989C61.4024 19.0508 62.7761 17.5179 62.7761 15.8174C62.7761 14.1168 61.3966 12.584 59.6989 12.584Z" fill="#F4C63B"/>
<path d="M88.7087 35.2443C88.0001 34.42 86.9619 33.9023 85.8715 33.9023H78.8842L80.4748 48.6377L84.2722 74.3805L89.5879 38.2521C89.7354 37.1762 89.4231 36.0714 88.7087 35.2443Z" fill="#009EB4"/>
<path d="M26.0954 5.94331H69.0839V35.1277H75.0301V3.78001C75.0272 1.70925 73.2977 0 71.227 0H23.6862C21.413 0 19.6315 1.8712 19.6315 4.14441V26.7377H26.0954V5.94331Z" fill="#F4C63B"/>
<path d="M59.6986 24.4668H35.0721C33.5943 24.4668 32.3622 25.6352 32.0643 27.0668C34.1727 27.6048 36.0902 28.7529 37.5333 30.4448L37.9816 30.9307H59.6986C61.402 30.9307 62.7758 29.3979 62.7758 27.6973C62.7758 25.9967 61.3963 24.4668 59.6986 24.4668Z" fill="#F4C63B"/>
</g>
<defs>
<clipPath id="clip0_1055_228228">
<rect width="90" height="90" fill="white"/>
</clipPath>
</defs>
</svg>
