<svg width="26" height="26" viewBox="0 0 26 26" fill="none" xmlns="http://www.w3.org/2000/svg">
<path d="M16.8748 11.0002C16.8748 12.1093 16.4343 13.1729 15.65 13.9572C14.8658 14.7414 13.8021 15.182 12.693 15.182C11.584 15.182 10.5203 14.7414 9.73605 13.9572C8.95181 13.1729 8.51123 12.1093 8.51123 11.0002C8.51123 9.89108 8.95181 8.82742 9.73605 8.04318C10.5203 7.25894 11.584 6.81836 12.693 6.81836C13.8021 6.81836 14.8658 7.25894 15.65 8.04318C16.4343 8.82742 16.8748 9.89108 16.8748 11.0002Z" fill="#F4C63B"/>
<path fill-rule="evenodd" clip-rule="evenodd" d="M12.2665 23.5374C6.69058 23.3137 2.23853 18.722 2.23853 13.0912C2.23853 7.31721 6.91902 2.63672 12.693 2.63672C18.4671 2.63672 23.1476 7.31721 23.1476 13.0912C23.1476 18.8653 18.4671 23.5458 12.693 23.5458H12.5498C12.455 23.5458 12.3606 23.543 12.2665 23.5374ZM5.98438 19.688C5.90621 19.4636 5.87961 19.2244 5.90654 18.9882C5.93347 18.752 6.01324 18.525 6.13993 18.3239C6.26663 18.1228 6.43699 17.9528 6.63838 17.8265C6.83976 17.7002 7.067 17.6209 7.30322 17.5945C11.3784 17.1434 14.0328 17.1842 18.0881 17.6039C18.3246 17.6286 18.5524 17.7069 18.7541 17.8328C18.9559 17.9588 19.1262 18.1292 19.2521 18.3309C19.378 18.5326 19.4562 18.7605 19.4808 18.997C19.5054 19.2335 19.4756 19.4726 19.3939 19.6959C21.132 17.9374 22.1053 15.5637 22.1021 13.0912C22.1021 7.89482 17.8895 3.68217 12.693 3.68217C7.49663 3.68217 3.28398 7.89482 3.28398 13.0912C3.28398 15.661 4.31427 17.9902 5.98438 19.688Z" fill="#009EB4"/>
</svg>
