<svg width="24" height="24" viewBox="0 0 24 24" fill="none" xmlns="http://www.w3.org/2000/svg">
<path d="M3.5 12.6835C3.5 10.6239 3.5 9.59415 3.96728 8.74047C4.43456 7.88679 5.28825 7.35696 6.99563 6.29732L8.79563 5.18018C10.6005 4.06006 11.5029 3.5 12.5 3.5C13.4971 3.5 14.3995 4.06006 16.2044 5.18018L18.0044 6.29731C19.7118 7.35696 20.5654 7.88679 21.0327 8.74047C21.5 9.59415 21.5 10.6239 21.5 12.6835V14.0525C21.5 17.5632 21.5 19.3187 20.4456 20.4093C19.3912 21.5 17.6941 21.5 14.3 21.5H10.7C7.30588 21.5 5.60883 21.5 4.55441 20.4093C3.5 19.3187 3.5 17.5632 3.5 14.0525V12.6835Z" stroke="white" stroke-width="2"/>
<path d="M15.1998 17.9004H9.7998" stroke="white" stroke-width="2" stroke-linecap="round"/>
</svg>
