<svg width="14" height="11" viewBox="0 0 14 11" fill="none" xmlns="http://www.w3.org/2000/svg">
<path fill-rule="evenodd" clip-rule="evenodd" d="M5.60449 0.300781H8.10449C10.4614 0.300781 11.6401 0.300781 12.372 1.03328C13.1039 1.76578 13.1045 2.94391 13.1045 5.30078C13.1045 7.65766 13.1045 8.83641 12.372 9.56828C11.6395 10.3002 10.4614 10.3008 8.10449 10.3008H5.60449C3.24762 10.3008 2.06887 10.3008 1.33699 9.56828C0.605117 8.83578 0.604492 7.65766 0.604492 5.30078C0.604492 2.94391 0.604492 1.76516 1.33699 1.03328C2.06949 0.301406 3.24762 0.300781 5.60449 0.300781ZM7.63574 3.42578C7.63574 3.30146 7.68513 3.18223 7.77304 3.09433C7.86094 3.00642 7.98017 2.95703 8.10449 2.95703H11.2295C11.3538 2.95703 11.473 3.00642 11.5609 3.09433C11.6489 3.18223 11.6982 3.30146 11.6982 3.42578C11.6982 3.5501 11.6489 3.66933 11.5609 3.75724C11.473 3.84514 11.3538 3.89453 11.2295 3.89453H8.10449C7.98017 3.89453 7.86094 3.84514 7.77304 3.75724C7.68513 3.66933 7.63574 3.5501 7.63574 3.42578ZM8.26074 5.30078C8.26074 5.17646 8.31013 5.05723 8.39804 4.96933C8.48594 4.88142 8.60517 4.83203 8.72949 4.83203H11.2295C11.3538 4.83203 11.473 4.88142 11.5609 4.96933C11.6489 5.05723 11.6982 5.17646 11.6982 5.30078C11.6982 5.4251 11.6489 5.54433 11.5609 5.63224C11.473 5.72015 11.3538 5.76953 11.2295 5.76953H8.72949C8.60517 5.76953 8.48594 5.72015 8.39804 5.63224C8.31013 5.54433 8.26074 5.4251 8.26074 5.30078ZM8.88574 7.17578C8.88574 7.05146 8.93513 6.93223 9.02304 6.84433C9.11094 6.75642 9.23017 6.70703 9.35449 6.70703H11.2295C11.3538 6.70703 11.473 6.75642 11.5609 6.84433C11.6489 6.93223 11.6982 7.05146 11.6982 7.17578C11.6982 7.3001 11.6489 7.41933 11.5609 7.50724C11.473 7.59515 11.3538 7.64453 11.2295 7.64453H9.35449C9.23017 7.64453 9.11094 7.59515 9.02304 7.50724C8.93513 7.41933 8.88574 7.3001 8.88574 7.17578ZM6.22949 3.42578C6.22949 3.7573 6.0978 4.07524 5.86338 4.30966C5.62895 4.54409 5.31101 4.67578 4.97949 4.67578C4.64797 4.67578 4.33003 4.54409 4.09561 4.30966C3.86119 4.07524 3.72949 3.7573 3.72949 3.42578C3.72949 3.09426 3.86119 2.77632 4.09561 2.5419C4.33003 2.30748 4.64797 2.17578 4.97949 2.17578C5.31101 2.17578 5.62895 2.30748 5.86338 2.5419C6.0978 2.77632 6.22949 3.09426 6.22949 3.42578ZM4.97949 8.42578C7.47949 8.42578 7.47949 7.86641 7.47949 7.17578C7.47949 6.48516 6.36074 5.92578 4.97949 5.92578C3.59824 5.92578 2.47949 6.48516 2.47949 7.17578C2.47949 7.86641 2.47949 8.42578 4.97949 8.42578Z" fill="#F4C63B"/>
</svg>
