<svg width="35" height="36" viewBox="0 0 35 36" fill="none" xmlns="http://www.w3.org/2000/svg">
<rect y="0.5" width="35" height="35" rx="8" fill="white"/>
<rect x="7.5" y="8" width="20" height="20" rx="5" fill="white"/>
<rect x="7.5" y="8" width="20" height="20" rx="5" fill="#009EB4" fill-opacity="0.05"/>
<path fill-rule="evenodd" clip-rule="evenodd" d="M20.9222 14.6093C21.0893 14.6093 21.2527 14.6587 21.3924 14.7512C21.532 14.8438 21.6418 14.9755 21.7081 15.1301L25.4207 23.7725C25.4687 23.8772 25.4955 23.9904 25.4995 24.1057C25.5035 24.2209 25.4845 24.3358 25.4438 24.4436C25.4031 24.5513 25.3414 24.6498 25.2624 24.7331C25.1834 24.8164 25.0887 24.883 24.9838 24.9288C24.8789 24.9746 24.766 24.9988 24.6517 25C24.5373 25.0011 24.424 24.9791 24.3182 24.9354C24.2124 24.8916 24.1164 24.827 24.0358 24.7452C23.9552 24.6634 23.8916 24.5662 23.8488 24.4593L23.0812 22.6755H18.7621L17.9968 24.4593C17.9065 24.6697 17.737 24.8353 17.5257 24.9197C17.3144 25.0041 17.0785 25.0004 16.8699 24.9093C16.6613 24.8182 16.4971 24.6473 16.4134 24.4341C16.3298 24.2209 16.3335 23.9829 16.4238 23.7725L20.1363 15.1301C20.2027 14.9755 20.3125 14.8438 20.4521 14.7512C20.5917 14.6587 20.7551 14.6093 20.9222 14.6093ZM19.5058 20.947H22.3387L20.9222 17.6468L19.5058 20.947ZM14.0683 10C14.2956 10 14.5135 10.0911 14.6741 10.2531C14.8348 10.4152 14.9251 10.635 14.9251 10.8642V12.3173C15.9178 12.3463 16.9084 12.4274 17.8928 12.5605C18.1181 12.591 18.3221 12.7106 18.4599 12.8929C18.5978 13.0752 18.6582 13.3052 18.6279 13.5324C18.5976 13.7597 18.4791 13.9654 18.2984 14.1045C18.1177 14.2436 17.8896 14.3045 17.6643 14.274C17.413 14.2394 17.161 14.2087 16.9081 14.1818C16.5053 15.5796 15.9027 16.9106 15.1193 18.1331C15.3904 18.4834 15.6767 18.8187 15.9783 19.1391C16.1351 19.305 16.2201 19.527 16.2146 19.7562C16.2092 19.9853 16.1137 20.2029 15.9492 20.3611C15.7847 20.5192 15.5646 20.605 15.3374 20.5995C15.1102 20.594 14.8945 20.4977 14.7377 20.3317C14.5062 20.0863 14.2829 19.833 14.0683 19.5723C13.1355 20.7059 12.0419 21.6945 10.823 22.5061C10.6335 22.6266 10.4048 22.6674 10.1858 22.6198C9.96688 22.5722 9.7751 22.44 9.65158 22.2516C9.52806 22.0631 9.48262 21.8333 9.52501 21.6114C9.56739 21.3896 9.69422 21.1933 9.87833 21.0646C11.0753 20.265 12.1354 19.2746 13.0174 18.1319C12.7916 17.7807 12.5805 17.4201 12.3846 17.051C12.2775 16.8489 12.2544 16.6121 12.3204 16.3927C12.3863 16.1734 12.536 15.9895 12.7364 15.8814C12.9368 15.7734 13.1716 15.7501 13.389 15.8167C13.6064 15.8832 13.7888 16.0342 13.8959 16.2364L14.0672 16.5486C14.5104 15.7651 14.876 14.9296 15.1547 14.055C13.5902 13.993 12.0233 14.0662 10.4712 14.274C10.2459 14.3045 10.0179 14.2436 9.83718 14.1045C9.65648 13.9654 9.53795 13.7597 9.50765 13.5324C9.47735 13.3052 9.53778 13.0752 9.67563 12.8929C9.81349 12.7106 10.0175 12.591 10.2427 12.5605C11.2175 12.4291 12.2067 12.348 13.2105 12.3173V10.8642C13.2105 10.7507 13.2327 10.6382 13.2758 10.5332C13.3189 10.4283 13.3821 10.333 13.4618 10.2527C13.5415 10.1725 13.6361 10.1088 13.7401 10.0655C13.8442 10.0221 13.9557 9.99985 14.0683 10Z" fill="#009EB4"/>
</svg>
