<svg width="24" height="24" viewBox="0 0 24 24" fill="none" xmlns="http://www.w3.org/2000/svg">
<path d="M17.75 9.318V8.25C17.75 6.85761 17.1969 5.52226 16.2123 4.53769C15.2277 3.55312 13.8924 3 12.5 3C11.1076 3 9.77226 3.55312 8.78769 4.53769C7.80312 5.52226 7.25 6.85761 7.25 8.25V9.318C6.58202 9.60953 6.01347 10.0894 5.61387 10.6989C5.21428 11.3084 5.00096 12.0212 5 12.75V17.25C5.00119 18.2442 5.39666 19.1973 6.09967 19.9003C6.80267 20.6033 7.7558 20.9988 8.75 21H16.25C17.2442 20.9988 18.1973 20.6033 18.9003 19.9003C19.6033 19.1973 19.9988 18.2442 20 17.25V12.75C19.999 12.0212 19.7857 11.3084 19.3861 10.6989C18.9865 10.0894 18.418 9.60953 17.75 9.318ZM8.75 8.25C8.75 7.25544 9.14509 6.30161 9.84835 5.59835C10.5516 4.89509 11.5054 4.5 12.5 4.5C13.4946 4.5 14.4484 4.89509 15.1517 5.59835C15.8549 6.30161 16.25 7.25544 16.25 8.25V9H8.75V8.25ZM18.5 17.25C18.5 17.8467 18.2629 18.419 17.841 18.841C17.419 19.2629 16.8467 19.5 16.25 19.5H8.75C8.15326 19.5 7.58097 19.2629 7.15901 18.841C6.73705 18.419 6.5 17.8467 6.5 17.25V12.75C6.5 12.1533 6.73705 11.581 7.15901 11.159C7.58097 10.7371 8.15326 10.5 8.75 10.5H16.25C16.8467 10.5 17.419 10.7371 17.841 11.159C18.2629 11.581 18.5 12.1533 18.5 12.75V17.25Z" fill="#ACACAC"/>
<path d="M12.5 13.5C12.3011 13.5 12.1103 13.579 11.9697 13.7197C11.829 13.8603 11.75 14.0511 11.75 14.25V15.75C11.75 15.9489 11.829 16.1397 11.9697 16.2803C12.1103 16.421 12.3011 16.5 12.5 16.5C12.6989 16.5 12.8897 16.421 13.0303 16.2803C13.171 16.1397 13.25 15.9489 13.25 15.75V14.25C13.25 14.0511 13.171 13.8603 13.0303 13.7197C12.8897 13.579 12.6989 13.5 12.5 13.5Z" fill="#ACACAC"/>
</svg>
