<svg width="36" height="36" viewBox="0 0 36 36" fill="none" xmlns="http://www.w3.org/2000/svg">
<path d="M25.3655 33.135H23.4183L22.7271 30.9922H13.2718L12.5805 33.135H10.6334C10.0786 33.135 9.62891 33.5848 9.62891 34.1395C9.62891 34.6942 10.0786 35.144 10.6334 35.144H25.3655C25.9202 35.144 26.37 34.6942 26.37 34.1395C26.37 33.5848 25.9202 33.135 25.3655 33.135Z" fill="#F4C63B"/>
<path d="M6.51454 7.97271C6.1234 7.4303 5.90724 6.75369 5.95198 6.02586C6.04619 4.49265 7.308 3.26157 8.84296 3.20338C10.5574 3.13836 11.9729 4.51427 11.9729 6.21456C11.9729 6.87041 11.7617 7.47751 11.4045 7.97271C12.4683 8.69767 13.1944 9.88146 13.298 11.2369H16.9953V0.857422H3.6024C2.12309 0.857422 0.923828 2.05669 0.923828 3.53599V11.2369H4.62099C4.72472 9.88146 5.45081 8.69767 6.51454 7.97271Z" fill="#009EB4"/>
<path d="M8.95954 7.21987C9.51429 7.21987 9.96401 6.77015 9.96401 6.2154C9.96401 5.66065 9.51429 5.21094 8.95954 5.21094C8.40479 5.21094 7.95508 5.66065 7.95508 6.2154C7.95508 6.77015 8.40479 7.21987 8.95954 7.21987Z" fill="#009EB4"/>
<path d="M6.63965 11.2374H11.2785C11.1155 10.1032 10.1377 9.22852 8.95909 9.22852C7.78045 9.22852 6.80264 10.1032 6.63965 11.2374Z" fill="#009EB4"/>
<path d="M0.923828 26.3044C0.923828 27.7837 2.12309 28.983 3.6024 28.983H32.397C33.8764 28.983 35.0756 27.7837 35.0756 26.3044V25.6348H0.923828V26.3044Z" fill="#F4C63B"/>
<path d="M27.0396 19.6066C27.5944 19.6066 28.0441 19.1569 28.0441 18.6021C28.0441 18.0474 27.5944 17.5977 27.0396 17.5977C26.4849 17.5977 26.0352 18.0474 26.0352 18.6021C26.0352 19.1569 26.4849 19.6066 27.0396 19.6066Z" fill="#009EB4"/>
<path d="M6.63965 23.6261H11.2785C11.1155 22.4919 10.1377 21.6172 8.95909 21.6172C7.78045 21.6172 6.80264 22.4919 6.63965 23.6261Z" fill="#009EB4"/>
<path d="M24.7207 23.6261H29.3596C29.1966 22.4919 28.2188 21.6172 27.0401 21.6172C25.8615 21.6172 24.8837 22.4919 24.7207 23.6261Z" fill="#009EB4"/>
<path d="M19.0039 23.6256H22.7011C22.8048 22.2701 23.5309 21.0863 24.5946 20.3614C24.2375 19.8662 24.0262 19.2591 24.0262 18.6032C24.0262 16.9417 25.378 15.5898 27.0396 15.5898C28.7012 15.5898 30.053 16.9417 30.053 18.6032C30.053 19.2591 29.8417 19.8662 29.4846 20.3614C30.5483 21.0863 31.2744 22.2701 31.3781 23.6256H35.0753V13.2461H19.0039V23.6256Z" fill="#009EB4"/>
<path d="M6.51454 20.3614C6.15742 19.8662 5.94615 19.2591 5.94615 18.6032C5.94615 16.9417 7.29796 15.5898 8.95954 15.5898C10.6211 15.5898 11.9729 16.9417 11.9729 18.6032C11.9729 19.2591 11.7617 19.8662 11.4045 20.3614C12.4683 21.0863 13.1944 22.2701 13.298 23.6256H16.9953V13.2461H0.923828V23.6256H4.62099C4.72472 22.2701 5.45081 21.0863 6.51454 20.3614Z" fill="#009EB4"/>
<path d="M8.95954 19.6066C9.51429 19.6066 9.96401 19.1569 9.96401 18.6021C9.96401 18.0474 9.51429 17.5977 8.95954 17.5977C8.40479 17.5977 7.95508 18.0474 7.95508 18.6021C7.95508 19.1569 8.40479 19.6066 8.95954 19.6066Z" fill="#009EB4"/>
<path d="M27.0396 7.21987C27.5944 7.21987 28.0441 6.77015 28.0441 6.2154C28.0441 5.66065 27.5944 5.21094 27.0396 5.21094C26.4849 5.21094 26.0352 5.66065 26.0352 6.2154C26.0352 6.77015 26.4849 7.21987 27.0396 7.21987Z" fill="#009EB4"/>
<path d="M24.7207 11.2374H29.3596C29.1966 10.1032 28.2188 9.22852 27.0401 9.22852C25.8615 9.22852 24.8837 10.1032 24.7207 11.2374Z" fill="#009EB4"/>
<path d="M32.3968 0.857422H19.0039V11.2369H22.7011C22.8048 9.88146 23.5309 8.69767 24.5946 7.97271C24.2034 7.4303 23.9873 6.75363 24.032 6.02573C24.1263 4.49251 25.3881 3.26144 26.9231 3.20331C28.6376 3.13843 30.053 4.51434 30.053 6.21456C30.053 6.87041 29.8417 7.47751 29.4846 7.97271C30.5483 8.69767 31.2744 9.88146 31.3781 11.2369H35.0753V3.53599C35.0753 2.05669 33.8761 0.857422 32.3968 0.857422Z" fill="#009EB4"/>
</svg>
