<svg width="20" height="21" viewBox="0 0 20 21" fill="none" xmlns="http://www.w3.org/2000/svg">
<path d="M11.5592 19.3124L12.0482 18.4864L10.8838 17.7971L10.3948 18.6233L11.5592 19.3124ZM7.94534 18.4864L8.43435 19.3124L9.5987 18.6233L9.1097 17.7971L7.94534 18.4864ZM10.3948 18.6233C10.2209 18.917 9.77262 18.917 9.5987 18.6233L8.43435 19.3124C9.13217 20.4914 10.8614 20.4914 11.5592 19.3124L10.3948 18.6233ZM8.64371 2.1558H11.3498V0.802735H8.64371V2.1558ZM18.3407 9.14666V10.0487H19.6937V9.14666H18.3407ZM1.65287 10.0487V9.14666H0.299805V10.0487H1.65287ZM0.299805 10.0487C0.299805 11.0902 0.299435 11.9052 0.344285 12.5625C0.389558 13.226 0.483127 13.7781 0.69462 14.2887L1.94469 13.7709C1.81287 13.4527 1.73478 13.065 1.69422 12.4704C1.65324 11.8698 1.65287 11.1087 1.65287 10.0487H0.299805ZM6.21045 16.1299C5.07798 16.1104 4.48459 16.0384 4.01946 15.8457L3.50167 17.0958C4.22779 17.3965 5.05482 17.4633 6.18714 17.4827L6.21045 16.1299ZM0.69462 14.2887C1.22104 15.5596 2.23077 16.5693 3.50167 17.0958L4.01946 15.8457C3.0801 15.4566 2.33379 14.7103 1.94469 13.7709L0.69462 14.2887ZM18.3407 10.0487C18.3407 11.1087 18.3403 11.8698 18.2994 12.4704C18.2588 13.065 18.1807 13.4527 18.0489 13.7709L19.2989 14.2887C19.5104 13.7781 19.604 13.226 19.6493 12.5625C19.6941 11.9052 19.6937 11.0902 19.6937 10.0487H18.3407ZM13.8064 17.4827C14.9387 17.4633 15.7658 17.3965 16.4918 17.0958L15.9741 15.8457C15.509 16.0384 14.9155 16.1104 13.7831 16.1299L13.8064 17.4827ZM18.0489 13.7709C17.6597 14.7103 16.9135 15.4566 15.9741 15.8457L16.4918 17.0958C17.7627 16.5693 18.7725 15.5596 19.2989 14.2887L18.0489 13.7709ZM11.3498 2.1558C12.8393 2.1558 13.9089 2.15652 14.7432 2.23584C15.5675 2.31421 16.092 2.46451 16.5101 2.72074L17.2171 1.56706C16.5506 1.15865 15.7946 0.97664 14.8713 0.888853C13.9581 0.802022 12.8131 0.802735 11.3498 0.802735V2.1558ZM19.6937 9.14666C19.6937 7.68337 19.6945 6.53839 19.6076 5.62517C19.5198 4.70188 19.3378 3.94587 18.9294 3.27942L17.7757 3.9864C18.032 4.40452 18.1823 4.929 18.2607 5.75324C18.34 6.58755 18.3407 7.65716 18.3407 9.14666H19.6937ZM16.5101 2.72074C17.0259 3.03685 17.4597 3.47055 17.7757 3.9864L18.9294 3.27942C18.5018 2.58151 17.915 1.99473 17.2171 1.56706L16.5101 2.72074ZM8.64371 0.802735C7.18042 0.802735 6.03545 0.802022 5.12223 0.888853C4.19894 0.97664 3.44293 1.15865 2.77648 1.56706L3.48346 2.72074C3.90158 2.46451 4.42606 2.31421 5.2503 2.23584C6.08461 2.15652 7.15422 2.1558 8.64371 2.1558V0.802735ZM1.65287 9.14666C1.65287 7.65716 1.65358 6.58755 1.73291 5.75324C1.81128 4.929 1.96158 4.40452 2.2178 3.9864L1.06412 3.27942C0.655724 3.94587 0.47371 4.70188 0.385923 5.62517C0.299092 6.53839 0.299805 7.68337 0.299805 9.14666H1.65287ZM2.77648 1.56706C2.07858 1.99473 1.4918 2.58151 1.06412 3.27942L2.2178 3.9864C2.53391 3.47055 2.96762 3.03685 3.48346 2.72074L2.77648 1.56706ZM9.1097 17.7971C9.10465 17.7886 9.09961 17.78 9.09458 17.7715C8.91771 17.4727 8.76153 17.2087 8.60952 17.0001C8.44481 16.7743 8.25601 16.5709 7.99411 16.4185L7.31384 17.5882C7.35661 17.613 7.41487 17.6584 7.51602 17.7971C7.6255 17.9474 7.7492 18.1549 7.94534 18.4864L9.1097 17.7971ZM6.18714 17.4827C6.58322 17.4896 6.83409 17.4946 7.02533 17.5158C7.20404 17.5356 7.27331 17.5646 7.31384 17.5882L7.99411 16.4185C7.73003 16.2649 7.45523 16.202 7.17425 16.1709C6.91323 16.142 6.59928 16.1366 6.24106 16.1305C6.23089 16.1303 6.22069 16.1301 6.21045 16.1299L6.18714 17.4827ZM12.0482 18.4864C12.2443 18.1549 12.368 17.9474 12.4775 17.7971C12.5786 17.6584 12.6369 17.613 12.6796 17.5882L11.9994 16.4185C11.7375 16.5709 11.5486 16.7743 11.384 17.0001C11.2324 17.2082 11.0766 17.4713 10.9002 17.7693C10.8948 17.7785 10.8893 17.7878 10.8838 17.7971L12.0482 18.4864ZM13.7831 16.1299C13.7729 16.1301 13.7627 16.1303 13.7525 16.1305C13.3943 16.1366 13.0803 16.142 12.8193 16.1709C12.5383 16.202 12.2635 16.2649 11.9994 16.4185L12.6796 17.5882C12.7202 17.5646 12.7895 17.5356 12.9682 17.5158C13.1594 17.4946 13.4103 17.4896 13.8064 17.4827L13.7831 16.1299Z" fill="#009EB4"/>
<path d="M10.3948 18.6233L10.8838 17.7971L10.9002 17.7693C11.0766 17.4713 11.2324 17.2082 11.384 17.0001C11.5486 16.7743 11.7375 16.5709 11.9994 16.4185C12.2635 16.2649 12.5383 16.202 12.8193 16.1709C13.0803 16.142 13.3943 16.1366 13.7525 16.1305L13.7831 16.1299C14.9155 16.1104 15.509 16.0384 15.9741 15.8457C16.9135 15.4566 17.6597 14.7103 18.0489 13.7709C18.1807 13.4527 18.2588 13.065 18.2994 12.4704C18.3403 11.8698 18.3407 11.1087 18.3407 10.0487V9.14666C18.3407 7.65716 18.34 6.58755 18.2607 5.75324C18.1823 4.929 18.032 4.40452 17.7757 3.9864C17.4597 3.47055 17.0259 3.03685 16.5101 2.72074C16.092 2.46451 15.5675 2.31421 14.7432 2.23584C13.9089 2.15652 12.8393 2.1558 11.3498 2.1558H8.64371C7.15422 2.1558 6.08461 2.15652 5.2503 2.23584C4.42606 2.31421 3.90158 2.46451 3.48346 2.72074C2.96762 3.03685 2.53391 3.47055 2.2178 3.9864C1.96158 4.40452 1.81128 4.929 1.73291 5.75324C1.65358 6.58755 1.65287 7.65716 1.65287 9.14666V10.0487C1.65287 11.1087 1.65324 11.8698 1.69422 12.4704C1.73478 13.065 1.81287 13.4527 1.94469 13.7709C2.33379 14.7103 3.0801 15.4566 4.01946 15.8457C4.48459 16.0384 5.07798 16.1104 6.21045 16.1299L6.24106 16.1305C6.59928 16.1366 6.91323 16.142 7.17425 16.1709C7.45523 16.202 7.73003 16.2649 7.99411 16.4185C8.25601 16.5709 8.44481 16.7743 8.60952 17.0001C8.76153 17.2087 8.91771 17.4727 9.09458 17.7715L9.1097 17.7971L9.5987 18.6233C9.77262 18.917 10.2209 18.917 10.3948 18.6233Z" fill="#009EB4"/>
<path d="M6.38867 7.79297H13.605" stroke="white" stroke-width="1.74545" stroke-linecap="round"/>
<path d="M6.38867 10.9512H11.3499" stroke="white" stroke-width="1.74545" stroke-linecap="round"/>
</svg>
