<svg width="24" height="24" viewBox="0 0 24 24" fill="none" xmlns="http://www.w3.org/2000/svg">
<path d="M19.368 6.59067C20 7.4934 20 8.75009 20 11.2634C20 13.7768 20 15.0335 19.368 15.9363C19.0944 16.327 18.7428 16.6625 18.3334 16.9237C17.5071 17.4507 16.3978 17.5172 14.375 17.5256V17.5269L13.3385 19.5053C12.993 20.1649 12.007 20.1649 11.6615 19.5053L10.625 17.5269V17.5256C8.60216 17.5172 7.49288 17.4507 6.66661 16.9237C6.25715 16.6625 5.90559 16.327 5.63199 15.9363C5 15.0335 5 13.7768 5 11.2634C5 8.75009 5 7.4934 5.63199 6.59067C5.90559 6.19986 6.25715 5.86432 6.66661 5.60319C7.61245 5 8.92914 5 11.5625 5H13.4375C16.0708 5 17.3876 5 18.3334 5.60319C18.7428 5.86432 19.0944 6.19986 19.368 6.59067Z" stroke="#414141" stroke-width="1.3" stroke-linecap="round" stroke-linejoin="round"/>
<path d="M9.6875 9.47363H15.3125" stroke="#414141" stroke-width="1.3" stroke-linecap="round" stroke-linejoin="round"/>
<path d="M9.6875 13.0527H12.5" stroke="#414141" stroke-width="1.3" stroke-linecap="round" stroke-linejoin="round"/>
</svg>
