<svg width="26" height="26" viewBox="0 0 26 26" fill="none" xmlns="http://www.w3.org/2000/svg">
<rect x="0.806885" y="0.545898" width="25.0909" height="25.0909" rx="5.37661" fill="#0A9A8F"/>
<path d="M18.124 15.7175C18.1767 15.7245 18.2083 15.7315 18.2399 15.7315C18.9883 15.7315 19.7402 15.735 20.4885 15.728C20.9347 15.7245 21.1912 15.4891 21.2053 15.0464C21.2264 14.3086 21.2264 13.5707 21.2264 12.8329C21.2264 12.6959 21.265 12.6186 21.3915 12.5553C21.7745 12.3656 22.1469 12.1618 22.5263 11.9651C22.572 11.9405 22.6212 11.9194 22.6845 11.8913C22.688 11.9405 22.695 11.9756 22.695 12.0143C22.695 13.0367 22.7126 14.0591 22.688 15.0815C22.6704 15.8475 22.3577 16.4764 21.6655 16.8734C21.3107 17.0772 20.9172 17.1509 20.5166 17.1509C19.3888 17.158 18.2645 17.158 17.1367 17.1509C16.8486 17.1474 16.5605 17.0877 16.2724 17.0772C16.0791 17.0701 15.8859 17.1158 15.6891 17.1264C15.3624 17.1404 15.0321 17.1509 14.7054 17.1545C13.7813 17.158 12.8573 17.165 11.9333 17.1509C11.6592 17.1474 11.3746 17.1088 11.1111 17.0315C10.3135 16.7855 9.8849 16.2129 9.74788 15.4083C9.71977 15.2361 9.71274 15.0604 9.71274 14.8848C9.70923 13.3915 9.71274 11.8983 9.70923 10.4051C9.70923 10.2786 9.74085 10.2083 9.85679 10.1521C10.2433 9.95888 10.6227 9.7551 11.0057 9.55835C11.0514 9.53375 11.1006 9.51267 11.1743 9.47754C11.1743 9.56538 11.1743 9.62862 11.1743 9.69186C11.1743 11.3643 11.1743 13.0402 11.1743 14.7126C11.1743 14.8426 11.1814 14.9761 11.1989 15.1061C11.2516 15.4961 11.466 15.721 11.856 15.728C12.65 15.742 13.4405 15.7315 14.2346 15.7315C14.2486 15.7315 14.2662 15.721 14.3013 15.7104C14.2662 15.6402 14.2346 15.5734 14.1994 15.5102C13.6373 14.5334 13.7954 13.2194 14.4454 12.4464C14.8319 11.9826 15.3343 11.7297 15.9316 11.677C16.5394 11.6243 17.1226 11.7086 17.6215 12.1021C18.1626 12.5272 18.4402 13.0964 18.528 13.771C18.6194 14.4421 18.4964 15.0639 18.1486 15.6437C18.1451 15.6542 18.1415 15.6753 18.124 15.7175ZM17.1613 14.0275C17.1332 13.915 17.1086 13.7042 17.0243 13.5215C16.8521 13.1491 16.5359 12.998 16.1283 13.0191C15.7629 13.0402 15.4994 13.2264 15.3729 13.5707C15.1129 14.2629 15.4256 15.1412 16.0545 15.5207C16.167 15.5875 16.2583 15.591 16.3672 15.5172C16.8662 15.1869 17.1367 14.7267 17.1613 14.0275Z" fill="white"/>
<path d="M5.91426 12.9494C6.15318 12.5384 6.3921 12.1343 6.63452 11.7197C7.10884 12.0043 7.53046 12.3311 7.86775 12.7527C8.50369 13.5397 8.72152 14.4462 8.61612 15.4405C8.59152 15.6829 8.53882 15.9289 8.4545 16.1572C8.24369 16.7405 7.79397 17.0813 7.19668 17.1094C6.12156 17.1586 5.04644 17.1375 3.9678 17.148C3.96429 17.148 3.95726 17.1445 3.9397 17.134C3.95375 17.0988 3.96429 17.0567 3.98186 17.0215C4.18213 16.6351 4.38942 16.2486 4.58617 15.8586C4.63536 15.7637 4.69158 15.7286 4.8005 15.7286C5.34157 15.7356 5.88264 15.7145 6.42372 15.7356C7.05965 15.7602 7.18263 15.3808 7.16857 14.9275C7.14398 14.0983 6.74344 13.4905 6.05832 13.0513C6.01967 13.0197 5.97399 12.9881 5.91426 12.9494Z" fill="white"/>
<path d="M21.9912 9.06348C22.462 9.06348 22.7606 9.35861 22.7606 9.8259C22.7606 10.3318 22.5006 10.6024 22.0052 10.6094C21.5344 10.6164 21.2323 10.3143 21.2288 9.83293C21.2288 9.36563 21.5239 9.06348 21.9912 9.06348Z" fill="white"/>
<path d="M7.40598 9.83293C7.40598 10.3529 7.1495 10.6164 6.65058 10.6094C6.17627 10.6024 5.87762 10.2932 5.88113 9.81887C5.88816 9.35509 6.19032 9.06348 6.66464 9.06348C7.12841 9.06699 7.40598 9.35509 7.40598 9.83293Z" fill="white"/>
<path d="M16.9653 10.0005C16.9618 10.517 16.7264 10.7594 16.217 10.7594C15.7286 10.7594 15.4475 10.4749 15.4475 9.98297C15.4475 9.50162 15.7391 9.22406 16.2345 9.22757C16.7018 9.23109 16.9653 9.51568 16.9653 10.0005Z" fill="white"/>
</svg>
