<svg width="24" height="24" viewBox="0 0 24 24" fill="none" xmlns="http://www.w3.org/2000/svg">
<path d="M14.1833 6.03648L15.6833 6.82364C17.297 7.6705 18.1039 8.09392 18.5519 8.8548C19 9.61569 19 10.5625 19 12.4561V12.5439C19 14.4375 19 15.3844 18.5519 16.1452C18.1039 16.9061 17.297 17.3295 15.6833 18.1764L14.1833 18.9635C12.8666 19.6545 12.2082 20 11.5 20C10.7918 20 10.1334 19.6545 8.81672 18.9635L7.31672 18.1764C5.70297 17.3295 4.89609 16.9061 4.44805 16.1452C4 15.3844 4 14.4375 4 12.5439V12.4561C4 10.5625 4 9.61569 4.44805 8.8548C4.89609 8.09392 5.70297 7.6705 7.31672 6.82364L8.81672 6.03648C10.1334 5.34549 10.7918 5 11.5 5C12.2082 5 12.8666 5.34549 14.1833 6.03648Z" stroke="#414141" stroke-width="1.2" stroke-linecap="round"/>
<path d="M18.25 9.125L15.25 10.625M15.25 10.625C15.25 10.625 15.0215 10.7393 14.875 10.8125C13.5569 11.4715 11.5 12.5 11.5 12.5M15.25 10.625V13.25M15.25 10.625L8.125 6.875M11.5 12.5L4.75 9.125M11.5 12.5V19.625" stroke="#414141" stroke-width="1.2" stroke-linecap="round"/>
</svg>
