<svg width="201" height="201" viewBox="0 0 201 201" fill="none" xmlns="http://www.w3.org/2000/svg">
    <g clip-path="url(#clip0_1181_3307)">
    <circle opacity="0.7" cx="102.566" cy="103.634" r="74.2762" fill="#009EB4"/>
    <circle opacity="0.5" cx="102.567" cy="103.635" r="56.4764" fill="#009EB4"/>
    <circle cx="102.566" cy="103.634" r="36.092" fill="#009EB4"/>
    <path d="M97.398 116.318L85.3732 104.294L88.3794 101.287L97.398 110.306L116.754 90.9502L119.76 93.9564L97.398 116.318Z" fill="white"/>
    <path d="M15.1647 22.5146L18.3793 33.9648L29.8294 37.1794L18.3793 40.3939L15.1647 51.8441L11.9502 40.3939L0.5 37.1794L11.9502 33.9648L15.1647 22.5146Z" fill="#F4C63B"/>
    <path d="M186.407 141.983L189.622 153.434L201.072 156.648L189.622 159.863L186.407 171.313L183.193 159.863L171.743 156.648L183.193 153.434L186.407 141.983Z" fill="#F4C63B"/>
    <circle cx="22.6889" cy="165.711" r="5.60167" fill="#F4C63B"/>
    <circle cx="186.407" cy="51.6918" r="5.30512" fill="#F4C63B"/>
    </g>
    <defs>
    <clipPath id="clip0_1181_3307">
    <rect width="200" height="200" fill="white" transform="translate(0.5 0.211914)"/>
    </clipPath>
    </defs>
    </svg>
    