<svg width="24" height="25" viewBox="0 0 24 25" fill="none" xmlns="http://www.w3.org/2000/svg">
<path d="M4.2482 1.42773H14.8536L20.4749 6.71482V22.2492C20.4749 22.9003 19.9157 23.4277 19.2267 23.4277H4.2482C3.55917 23.4277 3 22.9003 3 22.2492V2.60629C3 1.95516 3.55923 1.42773 4.2482 1.42773Z" fill="#E2574C"/>
<path d="M20.4582 6.73319H16.1076C15.4185 6.73319 14.8594 6.20522 14.8594 5.55463V1.44141L20.4582 6.73319Z" fill="#B53629"/>
<path d="M16.6026 11.1374C16.8509 11.1374 16.9724 10.9331 16.9724 10.7351C16.9724 10.53 16.8457 10.332 16.6026 10.332H15.1887C14.9123 10.332 14.7582 10.5482 14.7582 10.7868V14.0677C14.7582 14.3602 14.9345 14.5225 15.1731 14.5225C15.4103 14.5225 15.5874 14.3602 15.5874 14.0677V13.1672H16.4426C16.7079 13.1672 16.8405 12.9622 16.8405 12.7586C16.8405 12.5592 16.7079 12.3611 16.4426 12.3611H15.5874V11.1374H16.6026ZM11.8236 10.332H10.7891C10.5082 10.332 10.3089 10.514 10.3089 10.784V14.0705C10.3089 14.4057 10.5956 14.5106 10.8009 14.5106H11.8866C13.1715 14.5106 14.02 13.7123 14.02 12.4801C14.0193 11.1773 13.2205 10.332 11.8236 10.332ZM11.8733 13.7004H11.2426V11.1423H11.811C12.6714 11.1423 13.0456 11.6874 13.0456 12.4395C13.0456 13.1435 12.678 13.7004 11.8733 13.7004ZM8.08359 10.332H7.05874C6.76898 10.332 6.60742 10.5125 6.60742 10.7868V14.0677C6.60742 14.3602 6.79267 14.5225 7.04164 14.5225C7.2906 14.5225 7.47585 14.3602 7.47585 14.0677V13.1098H8.11832C8.91123 13.1098 9.56558 12.5794 9.56558 11.7265C9.56566 10.8918 8.93431 10.332 8.08359 10.332ZM8.06656 12.3402H7.47593V11.1024H8.06656C8.43116 11.1024 8.6631 11.3711 8.6631 11.7216C8.66234 12.0715 8.43116 12.3402 8.06656 12.3402Z" fill="white"/>
</svg>
