<svg width="54" height="55" viewBox="0 0 54 55" fill="none" xmlns="http://www.w3.org/2000/svg">
<g clip-path="url(#clip0_1056_653)">
<path d="M10.6215 35.778C10.6274 32.8445 8.25418 30.4616 5.32083 30.4557C2.38748 30.4499 0.00477153 32.8232 -0.00109552 35.7567C-0.00696257 38.6903 2.36623 41.0731 5.29958 41.079C8.23293 41.0848 10.6156 38.7115 10.6215 35.778Z" fill="#414141"/>
<path d="M11.5732 43.0169C10.346 41.7907 8.65091 41.0312 6.77842 41.0312C3.03344 41.0312 -0.00195312 44.0669 -0.00195312 47.812V52.9172C-0.00195312 53.7909 0.707641 54.4991 1.58293 54.4991H12.0368C12.9197 54.4991 13.6324 53.7789 13.6216 52.8976L13.5588 47.812C13.5587 45.9394 12.7993 44.2442 11.5732 43.0169Z" fill="#414141"/>
<path d="M48.6995 41.102C51.6328 41.0903 54.0013 38.7027 53.9896 35.7691C53.9778 32.8356 51.5904 30.467 48.657 30.4788C45.7237 30.4905 43.3552 32.8781 43.3669 35.8116C43.3787 38.7451 45.7661 41.1137 48.6995 41.102Z" fill="#414141"/>
<path d="M47.2202 41.0312C45.3477 41.0312 43.6526 41.7907 42.4254 43.0169C41.1993 44.2442 40.4398 45.9394 40.4398 47.812L40.3771 52.8976C40.3663 53.7789 41.079 54.4991 41.9618 54.4991H52.4157C53.291 54.4991 54.0006 53.7909 54.0006 52.9172V47.812C54.0006 44.0667 50.9652 41.0312 47.2202 41.0312Z" fill="#414141"/>
<path d="M0.850368 15.8619L3.87141 17.4345C4.63163 17.8348 5.603 17.5457 6.00948 16.7634C6.41427 15.9888 6.11315 15.0332 5.33711 14.6293L2.31607 13.0566C1.53982 12.6525 0.582688 12.9532 0.178005 13.7277C-0.226784 14.5024 0.0743289 15.4578 0.850368 15.8619Z" fill="#414141"/>
<path d="M5.34404 21.5984L2.03928 22.4219C1.19004 22.6334 0.673458 23.4922 0.88545 24.3398C1.09417 25.1942 1.98043 25.7045 2.80699 25.4915L6.11174 24.668C6.96098 24.4565 7.47756 23.5977 7.26557 22.7501C7.05358 21.9022 6.19306 21.3865 5.34404 21.5984Z" fill="#414141"/>
<path d="M47.9886 16.7633C48.3952 17.5456 49.3664 17.8346 50.1266 17.4344L53.1477 15.8617C53.9237 15.4578 54.2247 14.5023 53.82 13.7276C53.4152 12.953 52.4582 12.6526 51.682 13.0565L48.6609 14.6291C47.8849 15.0331 47.5838 15.9886 47.9886 16.7633Z" fill="#414141"/>
<path d="M51.9574 22.4219L48.6527 21.5984C47.8035 21.3865 46.9431 21.9023 46.7311 22.7501C46.5192 23.5977 47.0357 24.4564 47.8849 24.668L51.1897 25.4915C52.0163 25.7045 52.9025 25.1941 53.1112 24.3398C53.3231 23.4921 52.8066 22.6334 51.9574 22.4219Z" fill="#414141"/>
<path d="M19.832 52.9168C19.832 53.7901 20.541 54.4987 21.4169 54.4987H25.416V36.7809C25.416 35.9077 26.126 35.199 27.0008 35.199C27.8768 35.199 28.5857 35.9078 28.5857 36.7809V54.4987H32.5858C33.4607 54.4987 34.1707 53.79 34.1707 52.9168V29.9258H19.832V52.9168Z" fill="#414141"/>
<path d="M27.048 11.6991C30.0714 11.6989 32.6129 9.18567 32.6002 6.10113C32.6002 3.02271 30.1204 0.526367 27.048 0.501055C27.0322 0.5 27.0152 0.5 26.9994 0.5C23.9058 0.5 21.3986 3.00689 21.3986 6.10113C21.3761 9.15118 23.9308 11.7499 27.048 11.6991Z" fill="#414141"/>
<path d="M47.8248 3.727C46.5127 2.41402 44.3838 2.41381 43.0723 3.727L36.883 9.87129C35.706 11.0419 34.1137 11.699 32.4539 11.699H21.5027C19.8376 11.699 18.239 11.0377 17.0609 9.85864L10.9297 3.727C9.61978 2.41423 7.48868 2.4136 6.17833 3.727C4.86504 5.03893 4.86504 7.16718 6.17833 8.47921L19.3927 21.6969L19.6654 26.7622H34.3284L34.583 21.7231L47.8248 8.47921C49.137 7.16729 49.137 5.03903 47.8248 3.727Z" fill="#414141"/>
</g>
<defs>
<clipPath id="clip0_1056_653">
<rect width="54" height="54" fill="white" transform="translate(0 0.5)"/>
</clipPath>
</defs>
</svg>
