<svg width="21" height="21" viewBox="0 0 21 21" fill="none" xmlns="http://www.w3.org/2000/svg">
<path fill-rule="evenodd" clip-rule="evenodd" d="M4.57879 7.82835C4.07213 7.9885 3.62968 8.30592 3.31563 8.73456C3.00158 9.16319 2.83228 9.68074 2.83228 10.2121C2.83228 10.7435 3.00158 11.261 3.31563 11.6897C3.62968 12.1183 4.07213 12.4357 4.57879 12.5959C4.3337 13.0674 4.24523 13.6047 4.32624 14.1299C4.40724 14.6551 4.65349 15.1409 5.02926 15.5166C5.40502 15.8924 5.89076 16.1387 6.41596 16.2197C6.94117 16.3007 7.47852 16.2122 7.95004 15.9671C8.11019 16.4738 8.42761 16.9162 8.85625 17.2303C9.28488 17.5443 9.80242 17.7136 10.3338 17.7136C10.8652 17.7136 11.3827 17.5443 11.8113 17.2303C12.24 16.9162 12.5574 16.4738 12.7175 15.9671C13.1891 16.2117 13.7263 16.2999 14.2514 16.2187C14.7764 16.1376 15.2619 15.8914 15.6377 15.5158C16.0134 15.1402 16.2598 14.6548 16.3411 14.1298C16.4224 13.6048 16.3345 13.0675 16.09 12.5959C16.5967 12.4356 17.039 12.118 17.353 11.6893C17.6669 11.2606 17.8361 10.743 17.8359 10.2116C17.8358 9.68028 17.6664 9.16278 17.3522 8.73423C17.038 8.30568 16.5955 7.98837 16.0888 7.82835C16.3334 7.35678 16.4216 6.81955 16.3404 6.29453C16.2593 5.76951 16.0131 5.28395 15.6375 4.90823C15.2619 4.5325 14.7765 4.28612 14.2515 4.20479C13.7265 4.12345 13.1892 4.21139 12.7175 4.45585C12.5573 3.94924 12.2397 3.50687 11.811 3.19293C11.3823 2.87899 10.8647 2.70982 10.3333 2.70996C9.80197 2.7101 9.28446 2.87954 8.85591 3.1937C8.42736 3.50787 8.11006 3.9504 7.95004 4.4571C7.47852 4.21201 6.94117 4.12355 6.41596 4.20455C5.89076 4.28555 5.40502 4.5318 5.02926 4.90757C4.65349 5.28333 4.40724 5.76907 4.32624 6.29427C4.24523 6.81948 4.3337 7.35683 4.57879 7.82835ZM7.83379 8.9621C8.16531 8.9621 8.48326 8.83041 8.71768 8.59599C8.9521 8.36157 9.08379 8.04362 9.08379 7.7121C9.08379 7.38058 8.9521 7.06264 8.71768 6.82822C8.48326 6.5938 8.16531 6.4621 7.83379 6.4621C7.50227 6.4621 7.18433 6.5938 6.94991 6.82822C6.71549 7.06264 6.58379 7.38058 6.58379 7.7121C6.58379 8.04362 6.71549 8.36157 6.94991 8.59599C7.18433 8.83041 7.50227 8.9621 7.83379 8.9621ZM12.1713 7.0496C12.2571 6.95749 12.3606 6.88362 12.4756 6.83238C12.5906 6.78114 12.7148 6.75359 12.8406 6.75136C12.9665 6.74914 13.0916 6.7723 13.2083 6.81945C13.325 6.8666 13.4311 6.93678 13.5201 7.02581C13.6091 7.11483 13.6793 7.22087 13.7264 7.33761C13.7736 7.45434 13.7968 7.57938 13.7945 7.70526C13.7923 7.83114 13.7648 7.95528 13.7135 8.07028C13.6623 8.18528 13.5884 8.28878 13.4963 8.3746L8.49629 13.3746C8.41047 13.4667 8.30696 13.5406 8.19197 13.5918C8.07697 13.6431 7.95282 13.6706 7.82695 13.6728C7.70107 13.6751 7.57603 13.6519 7.4593 13.6048C7.34256 13.5576 7.23652 13.4874 7.14749 13.3984C7.05847 13.3094 6.98829 13.2033 6.94114 13.0866C6.89399 12.9699 6.87083 12.8448 6.87305 12.719C6.87527 12.5931 6.90283 12.4689 6.95407 12.3539C7.00531 12.2389 7.07918 12.1354 7.17129 12.0496L12.1713 7.0496ZM14.0838 12.7121C14.0838 13.0436 13.9521 13.3616 13.7177 13.596C13.4833 13.8304 13.1653 13.9621 12.8338 13.9621C12.5023 13.9621 12.1843 13.8304 11.9499 13.596C11.7155 13.3616 11.5838 13.0436 11.5838 12.7121C11.5838 12.3806 11.7155 12.0626 11.9499 11.8282C12.1843 11.5938 12.5023 11.4621 12.8338 11.4621C13.1653 11.4621 13.4833 11.5938 13.7177 11.8282C13.9521 12.0626 14.0838 12.3806 14.0838 12.7121Z" fill="white"/>
</svg>
