<svg width="66" height="67" viewBox="0 0 66 67" fill="none" xmlns="http://www.w3.org/2000/svg">
    <path d="M39.6544 9.87776C40.1623 8.64159 41.33 5.88537 41.8213 4.6709H24.3008C24.7943 5.89315 25.965 8.63305 26.4677 9.87776H39.6544Z" fill="#E5E5E5"/>
    <path d="M50.52 25.2721C50.2525 25.1973 49.9761 25.1593 49.6984 25.1592H16.4238C15.6072 25.1609 14.8245 25.4861 14.2471 26.0635C13.6697 26.6409 13.3445 27.4236 13.3428 28.2402V38.6128C13.3445 39.4294 13.6697 40.212 14.2471 40.7895C14.8245 41.3669 15.6072 41.692 16.4238 41.6938H49.6984C50.515 41.692 51.2976 41.3669 51.875 40.7894C52.4524 40.212 52.7776 39.4294 52.7794 38.6128V28.2402C52.7796 27.5663 52.5587 26.911 52.1506 26.3749C51.7424 25.8387 51.1696 25.4513 50.52 25.2721ZM25.4613 35.1005C25.6298 35.2328 25.7533 35.4138 25.8151 35.6189C25.8769 35.824 25.8738 36.0431 25.8064 36.2465C25.739 36.4498 25.6106 36.6273 25.4385 36.7549C25.2665 36.8825 25.0592 36.9539 24.8451 36.9594C24.3477 37.033 23.1842 35.9097 22.7912 35.6756V36.6923C22.7912 36.9647 22.683 37.2259 22.4904 37.4185C22.2978 37.6111 22.0366 37.7193 21.7642 37.7193C21.4918 37.7193 21.2306 37.6111 21.038 37.4185C20.8454 37.2259 20.7372 36.9647 20.7372 36.6923V35.6756L19.2994 36.754C19.1915 36.8349 19.0687 36.8938 18.9381 36.9272C18.8074 36.9607 18.6715 36.9681 18.538 36.949C18.4045 36.93 18.276 36.8848 18.16 36.8161C18.0439 36.7474 17.9425 36.6565 17.8616 36.5486C17.7807 36.4407 17.7218 36.3179 17.6883 36.1872C17.6549 36.0566 17.6475 35.9206 17.6665 35.7871C17.6856 35.6536 17.7308 35.5252 17.7995 35.4091C17.8682 35.2931 17.9591 35.1917 18.067 35.1108L20.0491 33.6216L18.067 32.1325C17.8551 31.9669 17.7167 31.7248 17.6813 31.4583C17.6459 31.1918 17.7165 30.922 17.8778 30.7069C18.0391 30.4918 18.2784 30.3485 18.5442 30.3078C18.8099 30.2671 19.0811 30.3323 19.2993 30.4893L20.7371 31.5676V30.5304C20.7411 30.2606 20.8511 30.0033 21.0433 29.814C21.2354 29.6246 21.4944 29.5185 21.7641 29.5185C22.0339 29.5185 22.2928 29.6246 22.485 29.814C22.6772 30.0033 22.7871 30.2606 22.7911 30.5304V31.5676L24.2289 30.4893C24.4472 30.3322 24.7184 30.267 24.9842 30.3076C25.25 30.3483 25.4893 30.4916 25.6507 30.7067C25.812 30.9219 25.8826 31.1917 25.8471 31.4583C25.8117 31.7249 25.6731 31.9669 25.4612 32.1325L23.4792 33.6216L25.4613 35.1005ZM36.7583 35.1005C36.9267 35.2328 37.0503 35.4138 37.112 35.6189C37.1738 35.824 37.1708 36.0431 37.1034 36.2465C37.036 36.4498 36.9075 36.6273 36.7355 36.7549C36.5634 36.8825 36.3562 36.9539 36.1421 36.9594C35.6447 37.033 34.4812 35.9097 34.0881 35.6756V36.6923C34.0881 36.9647 33.9799 37.2259 33.7873 37.4185C33.5947 37.6111 33.3335 37.7193 33.0611 37.7193C32.7888 37.7193 32.5275 37.6111 32.3349 37.4185C32.1423 37.2259 32.0341 36.9647 32.0341 36.6923V35.6756L30.5964 36.754C30.4885 36.8349 30.3657 36.8938 30.235 36.9272C30.1044 36.9607 29.9684 36.9681 29.8349 36.949C29.7014 36.93 29.573 36.8848 29.4569 36.8161C29.3409 36.7474 29.2395 36.6565 29.1586 36.5486C29.0776 36.4407 29.0188 36.3179 28.9853 36.1872C28.9518 36.0566 28.9444 35.9206 28.9635 35.7871C28.9826 35.6536 29.0277 35.5252 29.0965 35.4091C29.1652 35.2931 29.2561 35.1917 29.364 35.1108L31.3461 33.6216L29.3639 32.1325C29.1521 31.9669 29.0136 31.7248 28.9782 31.4583C28.9429 31.1918 29.0134 30.922 29.1748 30.7069C29.3361 30.4918 29.5753 30.3485 29.8411 30.3078C30.1069 30.2671 30.378 30.3323 30.5963 30.4893L32.0341 31.5676V30.5304C32.0381 30.2606 32.148 30.0033 32.3402 29.814C32.5324 29.6246 32.7913 29.5185 33.0611 29.5185C33.3308 29.5185 33.5898 29.6246 33.7819 29.814C33.9741 30.0033 34.0841 30.2606 34.0881 30.5304V31.5676L35.5259 30.4893C35.7441 30.3322 36.0153 30.267 36.2812 30.3076C36.547 30.3483 36.7863 30.4916 36.9476 30.7067C37.109 30.9219 37.1795 31.1917 37.1441 31.4583C37.1086 31.7249 36.9701 31.9669 36.7582 32.1325L34.7762 33.6216L36.7583 35.1005ZM48.0552 35.1005C48.2237 35.2328 48.3472 35.4138 48.409 35.6189C48.4708 35.824 48.4677 36.0431 48.4003 36.2465C48.3329 36.4498 48.2045 36.6273 48.0324 36.7549C47.8604 36.8825 47.6531 36.9539 47.439 36.9594C46.9416 37.033 45.7781 35.9097 45.3851 35.6756V36.6923C45.3851 36.9647 45.2769 37.2259 45.0843 37.4185C44.8917 37.6111 44.6305 37.7193 44.3581 37.7193C44.0857 37.7193 43.8245 37.6111 43.6319 37.4185C43.4393 37.2259 43.3311 36.9647 43.3311 36.6923V35.6756L41.8933 36.754C41.6754 36.9174 41.4015 36.9876 41.1319 36.949C40.8622 36.9105 40.6189 36.7665 40.4555 36.5486C40.2921 36.3307 40.2219 36.0568 40.2604 35.7871C40.2989 35.5175 40.443 35.2742 40.6609 35.1108L42.643 33.6216L40.6608 32.1325C40.449 31.9669 40.3106 31.7248 40.2752 31.4583C40.2398 31.1918 40.3104 30.922 40.4717 30.7069C40.633 30.4918 40.8723 30.3485 41.138 30.3078C41.4038 30.2671 41.675 30.3323 41.8932 30.4893L43.331 31.5676V30.5304C43.335 30.2606 43.445 30.0033 43.6372 29.814C43.8293 29.6246 44.0883 29.5185 44.358 29.5185C44.6278 29.5185 44.8867 29.6246 45.0789 29.814C45.2711 30.0033 45.381 30.2606 45.385 30.5304V31.5676L46.8228 30.4893C47.0411 30.3322 47.3123 30.267 47.5781 30.3076C47.8439 30.3483 48.0832 30.4916 48.2446 30.7067C48.4059 30.9219 48.4764 31.1917 48.441 31.4583C48.4056 31.7249 48.267 31.9669 48.0551 32.1325L46.0731 33.6216L48.0552 35.1005Z" fill="#E5E5E5"/>
    <path d="M16.4232 43.7477C16.1476 43.7497 15.8725 43.7256 15.6016 43.6758V58.0743C15.6014 58.6138 15.7076 59.148 15.914 59.6465C16.1204 60.145 16.4229 60.5979 16.8044 60.9794C17.1859 61.3609 17.6388 61.6634 18.1373 61.8698C18.6358 62.0762 19.17 62.1824 19.7095 62.1822H46.4114C46.9509 62.1824 47.4852 62.0762 47.9837 61.8698C48.4821 61.6634 48.935 61.3609 49.3165 60.9794C49.698 60.5979 50.0006 60.145 50.207 59.6465C50.4134 59.148 50.5195 58.6138 50.5194 58.0743V43.6758C50.2484 43.7256 49.9733 43.7497 49.6978 43.7477H16.4232Z" fill="#D9D9D9"/>
    <path d="M49.6978 23.1055C49.9733 23.1035 50.2484 23.1275 50.5194 23.1774V8.77888C50.5196 8.23937 50.4134 7.70512 50.207 7.20664C50.0006 6.70817 49.698 6.25525 49.3165 5.87376C48.9351 5.49227 48.4821 5.18968 47.9837 4.98329C47.4852 4.7769 46.9509 4.67075 46.4114 4.6709H43.9774L43.0942 6.72489L41.0505 11.4799C40.9548 11.6177 40.8274 11.7307 40.6792 11.8093C40.5309 11.8879 40.3659 11.9299 40.1981 11.9318H25.9229C25.755 11.9299 25.5901 11.8879 25.4418 11.8093C25.2935 11.7307 25.1662 11.6177 25.0705 11.4799L23.0267 6.72489L22.1435 4.6709H19.7095C19.17 4.67075 18.6358 4.7769 18.1373 4.98329C17.6388 5.18968 17.1859 5.49227 16.8044 5.87376C16.4229 6.25525 16.1203 6.70817 15.914 7.20664C15.7076 7.70512 15.6014 8.23937 15.6016 8.77888V23.1774C15.8725 23.1275 16.1476 23.1035 16.4232 23.1055H49.6978Z" fill="#D9D9D9"/>
    </svg>
    