<svg width="154" height="154" viewBox="0 0 154 154" fill="none" xmlns="http://www.w3.org/2000/svg">
<path d="M2 77C2 35.5786 35.5786 2 77 2C118.421 2 152 35.5786 152 77C152 118.421 118.421 152 77 152C35.5786 152 2 118.421 2 77Z" fill="url(#paint0_linear_1087_2636)" fill-opacity="0.1"/>
<path d="M77 1.16699C118.882 1.16699 152.833 35.1184 152.833 77C152.833 118.882 118.882 152.833 77 152.833C35.1184 152.833 1.16699 118.882 1.16699 77C1.16699 35.1184 35.1184 1.16699 77 1.16699Z" stroke="#006978" stroke-opacity="0.1" stroke-width="1.66667"/>
<path d="M85.3597 47.1426C86.0037 45.5753 87.4842 42.0808 88.1071 40.541H65.8936C66.5192 42.0907 68.0036 45.5645 68.641 47.1426H85.3597Z" fill="#008193"/>
<path d="M99.1354 66.6608C98.7963 66.5659 98.4459 66.5177 98.0938 66.5176H55.9062C54.8709 66.5198 53.8787 66.9321 53.1466 67.6642C52.4145 68.3962 52.0022 69.3885 52 70.4238V83.5749C52.0022 84.6102 52.4145 85.6025 53.1466 86.3345C53.8787 87.0666 54.8709 87.4789 55.9062 87.4811H98.0938C99.1291 87.4789 100.121 87.0666 100.853 86.3345C101.585 85.6024 101.998 84.6102 102 83.5749V70.4238C102 69.5695 101.72 68.7387 101.203 68.0589C100.685 67.3791 99.959 66.8879 99.1354 66.6608ZM67.3646 79.1217C67.5782 79.2895 67.7348 79.519 67.8131 79.779C67.8914 80.039 67.8876 80.3169 67.8022 80.5747C67.7167 80.8324 67.5538 81.0576 67.3357 81.2193C67.1175 81.3811 66.8548 81.4716 66.5833 81.4785C65.9527 81.5719 64.4775 80.1477 63.9792 79.8509V81.14C63.9792 81.4853 63.8421 81.8165 63.5979 82.0607C63.3537 82.3049 63.0225 82.4421 62.6772 82.4421C62.3318 82.4421 62.0006 82.3049 61.7564 82.0607C61.5123 81.8165 61.3751 81.4853 61.3751 81.14V79.8509L59.5522 81.2181C59.4154 81.3207 59.2597 81.3953 59.0941 81.4378C58.9284 81.4802 58.756 81.4896 58.5868 81.4654C58.4175 81.4412 58.2546 81.384 58.1075 81.2968C57.9604 81.2097 57.8318 81.0945 57.7292 80.9577C57.6266 80.8209 57.552 80.6652 57.5096 80.4996C57.4671 80.3339 57.4577 80.1616 57.4819 79.9923C57.5061 79.823 57.5634 79.6602 57.6505 79.513C57.7376 79.3659 57.8529 79.2374 57.9897 79.1348L60.5027 77.2467L57.9896 75.3587C57.721 75.1488 57.5455 74.8419 57.5006 74.504C57.4558 74.166 57.5453 73.824 57.7498 73.5513C57.9543 73.2786 58.2576 73.0969 58.5946 73.0453C58.9316 72.9938 59.2753 73.0763 59.5521 73.2754L61.375 74.6426V73.3275C61.3801 72.9855 61.5195 72.6592 61.7631 72.4192C62.0068 72.1791 62.3351 72.0446 62.6771 72.0446C63.0191 72.0446 63.3474 72.1791 63.591 72.4192C63.8347 72.6592 63.9741 72.9855 63.9792 73.3275V74.6426L65.8021 73.2754C66.0788 73.0762 66.4226 72.9935 66.7597 73.0451C67.0967 73.0966 67.4001 73.2783 67.6047 73.5511C67.8092 73.8239 67.8987 74.166 67.8537 74.504C67.8088 74.8419 67.6331 75.1488 67.3644 75.3587L64.8516 77.2467L67.3646 79.1217ZM81.6875 79.1217C81.9011 79.2895 82.0577 79.519 82.136 79.779C82.2143 80.039 82.2105 80.3169 82.1251 80.5747C82.0396 80.8324 81.8767 81.0576 81.6586 81.2193C81.4405 81.3811 81.1777 81.4716 80.9062 81.4785C80.2756 81.5719 78.8005 80.1477 78.3022 79.8509V81.14C78.3022 81.4853 78.165 81.8165 77.9208 82.0607C77.6766 82.3049 77.3454 82.4421 77.0001 82.4421C76.6547 82.4421 76.3236 82.3049 76.0794 82.0607C75.8352 81.8165 75.698 81.4853 75.698 81.14V79.8509L73.8751 81.2181C73.7383 81.3207 73.5826 81.3953 73.417 81.4378C73.2513 81.4802 73.079 81.4896 72.9097 81.4654C72.7404 81.4412 72.5776 81.384 72.4304 81.2968C72.2833 81.2097 72.1548 81.0945 72.0522 80.9577C71.9496 80.8209 71.8749 80.6652 71.8325 80.4996C71.79 80.3339 71.7806 80.1616 71.8048 79.9923C71.829 79.823 71.8863 79.6602 71.9734 79.513C72.0605 79.3659 72.1758 79.2374 72.3126 79.1348L74.8256 77.2467L72.3125 75.3587C72.0439 75.1488 71.8684 74.8419 71.8236 74.504C71.7787 74.166 71.8682 73.824 72.0727 73.5513C72.2772 73.2786 72.5806 73.0969 72.9175 73.0453C73.2545 72.9938 73.5982 73.0763 73.875 73.2754L75.6979 74.6426V73.3275C75.703 72.9855 75.8424 72.6592 76.086 72.4192C76.3297 72.1791 76.658 72.0446 77 72.0446C77.342 72.0446 77.6703 72.1791 77.914 72.4192C78.1576 72.6592 78.297 72.9855 78.3021 73.3275V74.6426L80.125 73.2754C80.4017 73.0762 80.7456 72.9935 81.0826 73.0451C81.4196 73.0966 81.723 73.2783 81.9276 73.5511C82.1321 73.8239 82.2216 74.166 82.1767 74.504C82.1317 74.8419 81.9561 75.1488 81.6874 75.3587L79.1745 77.2467L81.6875 79.1217ZM96.0104 79.1217C96.224 79.2895 96.3806 79.519 96.459 79.779C96.5373 80.039 96.5334 80.3169 96.448 80.5747C96.3625 80.8324 96.1996 81.0576 95.9815 81.2193C95.7634 81.3811 95.5006 81.4716 95.2292 81.4785C94.5986 81.5719 93.1234 80.1477 92.6251 79.8509V81.14C92.6251 81.4853 92.4879 81.8165 92.2437 82.0607C91.9995 82.3049 91.6683 82.4421 91.323 82.4421C90.9777 82.4421 90.6465 82.3049 90.4023 82.0607C90.1581 81.8165 90.0209 81.4853 90.0209 81.14V79.8509L88.198 81.2181C87.9217 81.4253 87.5745 81.5143 87.2326 81.4654C86.8907 81.4166 86.5823 81.2339 86.3751 80.9577C86.1679 80.6814 86.0789 80.3342 86.1277 79.9923C86.1766 79.6504 86.3592 79.342 86.6355 79.1348L89.1485 77.2467L86.6354 75.3587C86.3668 75.1488 86.1913 74.8419 86.1465 74.504C86.1016 74.166 86.1911 73.824 86.3956 73.5513C86.6002 73.2786 86.9035 73.0969 87.2404 73.0453C87.5774 72.9938 87.9212 73.0763 88.1979 73.2754L90.0208 74.6426V73.3275C90.0259 72.9855 90.1653 72.6592 90.409 72.4192C90.6526 72.1791 90.9809 72.0446 91.3229 72.0446C91.6649 72.0446 91.9932 72.1791 92.2369 72.4192C92.4805 72.6592 92.6199 72.9855 92.625 73.3275V74.6426L94.4479 73.2754C94.7247 73.0762 95.0685 72.9935 95.4055 73.0451C95.7425 73.0966 96.0459 73.2783 96.2505 73.5511C96.4551 73.8239 96.5445 74.166 96.4996 74.504C96.4547 74.8419 96.279 75.1488 96.0103 75.3587L93.4974 77.2467L96.0104 79.1217Z" fill="#F4C63B"/>
<path d="M55.9059 90.0843C55.5566 90.0869 55.2078 90.0563 54.8643 89.9932V108.248C54.8641 108.932 54.9987 109.61 55.2603 110.242C55.522 110.874 55.9057 111.448 56.3893 111.932C56.873 112.415 57.4472 112.799 58.0792 113.061C58.7112 113.322 59.3886 113.457 60.0726 113.457H93.9268C94.6108 113.457 95.2881 113.322 95.9201 113.061C96.5521 112.799 97.1263 112.415 97.61 111.932C98.0937 111.448 98.4773 110.874 98.739 110.242C99.0007 109.61 99.1353 108.932 99.1351 108.248V89.9932C98.7915 90.0563 98.4427 90.0869 98.0934 90.0843H55.9059Z" fill="#009EB4"/>
<path d="M98.0934 63.9134C98.4427 63.9109 98.7915 63.9414 99.1351 64.0046V45.7493C99.1353 45.0653 99.0007 44.388 98.739 43.756C98.4773 43.124 98.0937 42.5497 97.61 42.0661C97.1264 41.5824 96.5521 41.1988 95.9201 40.9371C95.2881 40.6754 94.6108 40.5408 93.9268 40.541H90.8408L89.721 43.1452L87.1299 49.1738C87.0085 49.3486 86.8471 49.4918 86.6591 49.5915C86.4711 49.6911 86.2619 49.7444 86.0492 49.7467H67.9502C67.7374 49.7444 67.5283 49.6911 67.3403 49.5915C67.1523 49.4918 66.9908 49.3486 66.8695 49.1738L64.2783 43.1452L63.1585 40.541H60.0726C59.3886 40.5408 58.7112 40.6754 58.0792 40.9371C57.4472 41.1988 56.873 41.5824 56.3893 42.0661C55.9056 42.5497 55.522 43.124 55.2603 43.756C54.9986 44.388 54.8641 45.0653 54.8643 45.7493V64.0046C55.2078 63.9414 55.5566 63.9109 55.9059 63.9134H98.0934Z" fill="#009EB4"/>
<defs>
<linearGradient id="paint0_linear_1087_2636" x1="77" y1="77" x2="77" y2="152" gradientUnits="userSpaceOnUse">
<stop stop-color="#009EB4" stop-opacity="0.1"/>
<stop offset="1" stop-color="#009EB4" stop-opacity="0.8"/>
</linearGradient>
</defs>
</svg>
