<svg width="17" height="17" viewBox="0 0 17 17" fill="none" xmlns="http://www.w3.org/2000/svg">
<g clip-path="url(#clip0_997_35493)">
<path d="M1.1936 7.16714V3.37737C1.1936 3.17635 1.27346 2.98356 1.4156 2.84142C1.55775 2.69928 1.75053 2.61942 1.95156 2.61942H5.74132C5.94234 2.61942 6.13513 2.69928 6.27727 2.84142C6.41942 2.98356 6.49927 3.17635 6.49927 3.37737V6.40919C6.49927 6.61021 6.41942 6.803 6.27727 6.94514C6.13513 7.08728 5.94234 7.16714 5.74132 7.16714H4.22541C4.22541 8.77531 4.86426 10.3176 6.00141 11.4548C7.13856 12.5919 8.68086 13.2308 10.289 13.2308V11.7149C10.289 11.5138 10.3689 11.321 10.511 11.1789C10.6532 11.0368 10.846 10.9569 11.047 10.9569H14.0788C14.2798 10.9569 14.4726 11.0368 14.6148 11.1789C14.7569 11.321 14.8368 11.5138 14.8368 11.7149V15.5046C14.8368 15.7056 14.7569 15.8984 14.6148 16.0406C14.4726 16.1827 14.2798 16.2626 14.0788 16.2626H10.289C5.26608 16.2626 1.1936 12.1901 1.1936 7.16714Z" fill="#009EB4"/>
<path d="M16.3527 8.68304C16.3527 7.68769 16.1566 6.70207 15.7757 5.78248C15.3948 4.86289 14.8365 4.02733 14.1327 3.32351C13.4288 2.61968 12.5933 2.06138 11.6737 1.68047C10.7541 1.29957 9.76849 1.10352 8.77313 1.10352V2.61942C9.97235 2.61939 11.1447 2.97496 12.1418 3.64117C13.1389 4.30737 13.9162 5.25429 14.3752 6.36219C14.6799 7.09799 14.8368 7.88662 14.8368 8.68304H16.3527Z" fill="#F4C63B"/>
<path d="M12.977 6.94222C13.2056 7.49394 13.3233 8.08528 13.3234 8.68248H11.959C11.959 7.83819 11.6236 7.02848 11.0266 6.43148C10.4296 5.83447 9.61993 5.49908 8.77563 5.49908V4.13477C9.67506 4.13481 10.5543 4.40156 11.3021 4.90128C12.0499 5.40101 12.6328 6.11126 12.977 6.94222Z" fill="#F4C63B"/>
</g>
<defs>
<clipPath id="clip0_997_35493">
<rect width="15.6818" height="15.6818" fill="white" transform="translate(0.931885 0.841797)"/>
</clipPath>
</defs>
</svg>
