
<svg width="15" height="15" viewBox="0 0 15 15" fill="none" xmlns="http://www.w3.org/2000/svg">
<g clip-path="url(#clip0_1180_11043)">
<path d="M5.71289 10.7812C5.71289 8.15458 7.7214 5.98843 10.2832 5.73741V0.439453C10.2832 0.196758 10.0864 0 9.84375 0H0.439453C0.196758 0 0 0.196758 0 0.439453V13.5938C0 13.8364 0.196758 14.0332 0.439453 14.0332H6.89698C6.15832 13.1525 5.71289 12.018 5.71289 10.7812ZM1.9043 4.6875V2.34375C1.9043 2.10105 2.10105 1.9043 2.34375 1.9043H7.96875C8.21144 1.9043 8.4082 2.10105 8.4082 2.34375V4.6875C8.4082 4.9302 8.21144 5.12695 7.96875 5.12695H2.34375C2.10105 5.12695 1.9043 4.9302 1.9043 4.6875ZM3.04688 11.6895H2.57812C2.33543 11.6895 2.13867 11.4927 2.13867 11.25C2.13867 11.0073 2.33543 10.8105 2.57812 10.8105H3.04688C3.28957 10.8105 3.48633 11.0073 3.48633 11.25C3.48633 11.4927 3.28957 11.6895 3.04688 11.6895ZM3.04688 9.3457H2.57812C2.33543 9.3457 2.13867 9.14894 2.13867 8.90625C2.13867 8.66356 2.33543 8.4668 2.57812 8.4668H3.04688C3.28957 8.4668 3.48633 8.66356 3.48633 8.90625C3.48633 9.14894 3.28957 9.3457 3.04688 9.3457ZM3.04688 7.00195H2.57812C2.33543 7.00195 2.13867 6.8052 2.13867 6.5625C2.13867 6.3198 2.33543 6.12305 2.57812 6.12305H3.04688C3.28957 6.12305 3.48633 6.3198 3.48633 6.5625C3.48633 6.8052 3.28957 7.00195 3.04688 7.00195ZM5.39062 7.00195H4.92188C4.67918 7.00195 4.48242 6.8052 4.48242 6.5625C4.48242 6.3198 4.67918 6.12305 4.92188 6.12305H5.39062C5.63332 6.12305 5.83008 6.3198 5.83008 6.5625C5.83008 6.8052 5.63332 7.00195 5.39062 7.00195Z" fill="#009EB4"/>
<path d="M10.657 6.59379C8.40173 6.66023 6.5918 8.51516 6.5918 10.7812C6.5918 13.091 8.47201 15 10.7812 15C13.0913 15 15 13.0913 15 10.7812C15 8.41283 13.0017 6.5218 10.657 6.59379ZM11.2213 12.6838V12.7756C11.2213 13.0183 11.0245 13.2151 10.7818 13.2151C10.5391 13.2151 10.3424 13.0183 10.3424 12.7756V12.7335C10.1399 12.698 9.95493 12.6222 9.72123 12.4693C9.51812 12.3364 9.46119 12.0641 9.59405 11.861C9.72691 11.6579 9.99929 11.6009 10.2024 11.7338C10.4166 11.874 10.486 11.8849 10.7788 11.8828C11.0616 11.881 11.1742 11.659 11.1962 11.5282C11.216 11.4108 11.1938 11.2546 10.976 11.1777C10.6111 11.0487 10.237 10.9007 9.97192 10.6928C9.36838 10.2194 9.55058 9.13819 10.3424 8.85047V8.78683C10.3424 8.54414 10.5392 8.34738 10.7819 8.34738C11.0246 8.34738 11.2213 8.54414 11.2213 8.78683V8.81118C11.4379 8.87229 11.6122 8.98283 11.732 9.10465C11.9022 9.2777 11.8999 9.55593 11.7268 9.72609C11.5539 9.89619 11.2758 9.89393 11.1057 9.7212C11.0812 9.69726 10.9458 9.58438 10.6527 9.67265C10.5357 9.7079 10.5042 9.82924 10.4974 9.86557C10.4831 9.94145 10.5035 9.9926 10.5144 10.0012C10.6801 10.1312 10.9888 10.2499 11.2689 10.349C12.4271 10.7584 12.2861 12.2989 11.2213 12.6838Z" fill="#F4C63B"/>
<path d="M2.7832 2.7832H7.5293V4.24805H2.7832V2.7832Z" fill="#009EB4"/>
</g>
<defs>
<clipPath id="clip0_1180_11043">
<rect width="15" height="15" fill="white"/>
</clipPath>
</defs>
</svg>