<svg width="20" height="21" viewBox="0 0 20 21" fill="none" xmlns="http://www.w3.org/2000/svg">
    <path d="M10 0.106445C8.02219 0.106445 6.08879 0.692935 4.4443 1.79175C2.79981 2.89056 1.51809 4.45235 0.761209 6.27961C0.00433284 8.10687 -0.1937 10.1175 0.192152 12.0573C0.578004 13.9972 1.53041 15.779 2.92894 17.1775C4.32746 18.576 6.10929 19.5284 8.0491 19.9143C9.98891 20.3001 11.9996 20.1021 13.8268 19.3452C15.6541 18.5884 17.2159 17.3066 18.3147 15.6621C19.4135 14.0177 20 12.0843 20 10.1064C20 8.79322 19.7413 7.49286 19.2388 6.27961C18.7362 5.06635 17.9997 3.96396 17.0711 3.03538C16.1425 2.10679 15.0401 1.3702 13.8268 0.86765C12.6136 0.365103 11.3132 0.106445 10 0.106445ZM15.676 8.34344L9.676 13.8434C9.48604 14.0176 9.23615 14.1117 8.97848 14.1062C8.7208 14.1006 8.47524 13.9957 8.293 13.8134L5.293 10.8134C5.19749 10.7212 5.12131 10.6109 5.0689 10.4888C5.01649 10.3668 4.98891 10.2356 4.98775 10.1028C4.9866 9.97006 5.0119 9.83838 5.06218 9.71549C5.11246 9.59259 5.18672 9.48094 5.28061 9.38705C5.3745 9.29315 5.48615 9.2189 5.60905 9.16862C5.73195 9.11834 5.86363 9.09304 5.9964 9.09419C6.12918 9.09535 6.2604 9.12293 6.38241 9.17534C6.50441 9.22775 6.61476 9.30393 6.707 9.39944L9.03 11.7224L14.324 6.86944C14.5195 6.69016 14.7781 6.59586 15.0431 6.6073C15.3081 6.61874 15.5577 6.73498 15.737 6.93044C15.9163 7.12591 16.0106 7.38459 15.9991 7.64958C15.9877 7.91457 15.8715 8.16416 15.676 8.34344Z" fill="#009EB4"/>
    </svg>
    