<svg width="17" height="17" viewBox="0 0 17 17" fill="none" xmlns="http://www.w3.org/2000/svg">
<path d="M13.6842 13.0144L15.9072 15.2363C16.0109 15.3436 16.0683 15.4874 16.067 15.6366C16.0657 15.7858 16.0058 15.9286 15.9003 16.0341C15.7948 16.1396 15.652 16.1995 15.5028 16.2008C15.3536 16.2021 15.2098 16.1447 15.1025 16.041L12.8795 13.818C11.4268 15.0626 9.54847 15.6962 7.63871 15.5858C5.72894 15.4754 3.93616 14.6296 2.63656 13.2259C1.33695 11.8222 0.631548 9.96967 0.668364 8.05707C0.70518 6.14447 1.48135 4.32047 2.83402 2.96781C4.18668 1.61514 6.01068 0.838969 7.92328 0.802153C9.83588 0.765337 11.6884 1.47074 13.0921 2.77035C14.4958 4.06995 15.3416 5.86273 15.452 7.7725C15.5624 9.68226 14.9288 11.5606 13.6842 13.0133V13.0144ZM8.06577 14.46C9.72613 14.46 11.3185 13.8004 12.4926 12.6263C13.6666 11.4523 14.3262 9.85992 14.3262 8.19955C14.3262 6.53919 13.6666 4.94682 12.4926 3.77277C11.3185 2.59871 9.72613 1.93913 8.06577 1.93913C6.4054 1.93913 4.81304 2.59871 3.63898 3.77277C2.46492 4.94682 1.80534 6.53919 1.80534 8.19955C1.80534 9.85992 2.46492 11.4523 3.63898 12.6263C4.81304 13.8004 6.4054 14.46 8.06577 14.46Z" fill="#002A56"/>
</svg>
