<svg width="54" height="54" viewBox="0 0 54 54" fill="none" xmlns="http://www.w3.org/2000/svg">
<g clip-path="url(#clip0_1078_6535)">
<path d="M50.5286 26.9503V25.2322C50.5286 20.6192 46.7756 16.8662 42.1626 16.8662C37.5496 16.8662 33.7966 20.6192 33.7966 25.2322V26.9503H30.6593V37.9307C30.6593 44.2736 35.8197 49.434 42.1626 49.434C48.5055 49.434 53.6659 44.2736 53.6659 37.9307V26.9503H50.5286ZM36.9338 25.2322C36.9338 22.3491 39.2795 20.0035 42.1626 20.0035C45.0457 20.0035 47.3914 22.3491 47.3914 25.2322V26.9503H36.9338V25.2322ZM41.0601 41.6608L36.8705 37.4712L39.0888 35.2528L41.1737 37.3377L45.2963 33.6274L47.395 35.9593L41.0601 41.6608Z" fill="#F4C63B"/>
<path d="M9.74472 17.5381H13.4049V20.6753H9.74472V17.5381Z" fill="#009EB4"/>
<path d="M27.5229 30.0873H25.4314V26.95H27.5229V23.8128H30.6601H30.7476C31.4491 18.1371 36.3009 13.7287 42.1634 13.7287C42.8775 13.7287 43.5764 13.7947 44.2549 13.9199V9.18147C44.2549 6.86994 42.3743 4.98926 40.0627 4.98926H4.52552C2.21389 4.98926 0.333313 6.86983 0.333313 9.18147V32.1696C0.333313 34.4812 2.21389 36.3618 4.52552 36.3618H27.5229V30.0873ZM12.8823 30.0873H6.60782V26.95H12.8823V30.0873ZM13.6505 23.8128H9.49975C7.90508 23.8128 6.60782 22.5155 6.60782 20.9209V17.2929C6.60782 15.6983 7.90508 14.401 9.49975 14.401H13.6505C15.2452 14.401 16.5425 15.6983 16.5425 17.2929V20.9209C16.5425 22.5155 15.2452 23.8128 13.6505 23.8128ZM22.2941 30.0873H16.0196V26.95H22.2941V30.0873Z" fill="#009EB4"/>
</g>
<defs>
<clipPath id="clip0_1078_6535">
<rect width="53.3333" height="53.3333" fill="white" transform="translate(0.333344 0.544922)"/>
</clipPath>
</defs>
</svg>
