<svg width="82" height="83" viewBox="0 0 82 83" fill="none" xmlns="http://www.w3.org/2000/svg">
<rect x="1" y="1.21191" width="80" height="80" rx="10" fill="url(#paint0_linear_1087_6334)" fill-opacity="0.1"/>
<rect x="0.5" y="0.711914" width="81" height="81" rx="10.5" stroke="#006978" stroke-opacity="0.1"/>
<g clip-path="url(#clip0_1087_6334)">
<path d="M64.5286 40.9503V39.2322C64.5286 34.6192 60.7756 30.8662 56.1626 30.8662C51.5496 30.8662 47.7966 34.6192 47.7966 39.2322V40.9503H44.6593V51.9307C44.6593 58.2736 49.8197 63.434 56.1626 63.434C62.5055 63.434 67.6659 58.2736 67.6659 51.9307V40.9503H64.5286ZM50.9338 39.2322C50.9338 36.3491 53.2795 34.0035 56.1626 34.0035C59.0457 34.0035 61.3914 36.3491 61.3914 39.2322V40.9503H50.9338V39.2322ZM55.0601 55.6608L50.8705 51.4712L53.0888 49.2528L55.1737 51.3377L59.2963 47.6274L61.395 49.9593L55.0601 55.6608Z" fill="#F4C63B"/>
<path d="M23.7447 31.5381H27.4049V34.6753H23.7447V31.5381Z" fill="#009EB4"/>
<path d="M41.5229 44.0873H39.4314V40.95H41.5229V37.8128H44.6601H44.7476C45.4491 32.1371 50.3009 27.7287 56.1634 27.7287C56.8775 27.7287 57.5764 27.7947 58.2549 27.9199V23.1815C58.2549 20.8699 56.3743 18.9893 54.0627 18.9893H18.5255C16.2139 18.9893 14.3333 20.8698 14.3333 23.1815V46.1696C14.3333 48.4812 16.2139 50.3618 18.5255 50.3618H41.5229V44.0873ZM26.8823 44.0873H20.6078V40.95H26.8823V44.0873ZM27.6505 37.8128H23.4997C21.9051 37.8128 20.6078 36.5155 20.6078 34.9209V31.2929C20.6078 29.6983 21.9051 28.401 23.4997 28.401H27.6505C29.2452 28.401 30.5425 29.6983 30.5425 31.2929V34.9209C30.5425 36.5155 29.2452 37.8128 27.6505 37.8128ZM36.2941 44.0873H30.0196V40.95H36.2941V44.0873Z" fill="#009EB4"/>
</g>
<defs>
<linearGradient id="paint0_linear_1087_6334" x1="41" y1="41.2119" x2="41" y2="81.2119" gradientUnits="userSpaceOnUse">
<stop stop-color="#009EB4" stop-opacity="0.1"/>
<stop offset="1" stop-color="#009EB4" stop-opacity="0.8"/>
</linearGradient>
<clipPath id="clip0_1087_6334">
<rect width="53.3333" height="53.3333" fill="white" transform="translate(14.3333 14.5449)"/>
</clipPath>
</defs>
</svg>
