<svg width="53" height="53" viewBox="0 0 53 53" fill="none" xmlns="http://www.w3.org/2000/svg">
<g clip-path="url(#clip0_1823_15216)">
<path d="M31.4688 0H6.07292C2.71625 0 0 2.71625 0 6.07292V40.3021C0 43.6587 2.71625 46.375 6.07292 46.375H27.295C25.4621 44.7629 24.2917 42.4 24.2917 39.75C24.2917 34.8696 28.2446 30.9167 33.125 30.9167C34.0083 30.9167 34.8254 31.0933 35.6204 31.3142L37.5417 30.2321V6.07292C37.5417 2.71625 34.8254 0 31.4688 0Z" fill="#009EB4"/>
<path d="M28.7083 22.0807H8.83333C7.61433 22.0807 6.625 21.0914 6.625 19.8724C6.625 18.6534 7.61433 17.6641 8.83333 17.6641H28.7083C29.9273 17.6641 30.9167 18.6534 30.9167 19.8724C30.9167 21.0914 29.9273 22.0807 28.7083 22.0807Z" fill="white"/>
<path d="M19.875 30.9167H8.83333C7.61433 30.9167 6.625 29.9273 6.625 28.7083C6.625 27.4893 7.61433 26.5 8.83333 26.5H19.875C21.094 26.5 22.0833 27.4893 22.0833 28.7083C22.0833 29.9273 21.094 30.9167 19.875 30.9167Z" fill="white"/>
<path d="M17.6667 13.2487H8.83333C7.61433 13.2487 6.625 12.2594 6.625 11.0404C6.625 9.82136 7.61433 8.83203 8.83333 8.83203H17.6667C18.8857 8.83203 19.875 9.82136 19.875 11.0404C19.875 12.2594 18.8857 13.2487 17.6667 13.2487Z" fill="white"/>
<path d="M46.1921 48.865C45.9161 48.865 45.6378 48.7966 45.3795 48.6508L34.6602 42.6022C33.863 42.1517 33.5825 41.1425 34.0308 40.3453C34.4835 39.5503 35.4927 39.2698 36.2877 39.7159L47.007 45.7645C47.8042 46.215 48.0847 47.2242 47.6364 48.0215C47.3316 48.5625 46.7707 48.865 46.1921 48.865Z" fill="#FFD000"/>
<path d="M35.514 40.0357C34.9398 40.0357 34.3789 39.7353 34.0741 39.2009C33.6192 38.4059 33.8975 37.3945 34.6925 36.9418L45.3697 30.8534C46.1647 30.4029 47.1762 30.6767 47.6289 31.4717C48.0838 32.2667 47.8055 33.2782 47.0105 33.7309L36.3332 39.8192C36.0727 39.965 35.7922 40.0357 35.514 40.0357Z" fill="#FFD000"/>
<path d="M48.5837 35.3333C46.1479 35.3333 44.167 33.3525 44.167 30.9167C44.167 28.4809 46.1479 26.5 48.5837 26.5C51.0195 26.5 53.0003 28.4809 53.0003 30.9167C53.0003 33.3525 51.0195 35.3333 48.5837 35.3333Z" fill="#FFD000"/>
<path d="M48.5837 53.0013C46.1479 53.0013 44.167 51.0204 44.167 48.5846C44.167 46.1488 46.1479 44.168 48.5837 44.168C51.0195 44.168 53.0003 46.1488 53.0003 48.5846C53.0003 51.0204 51.0195 53.0013 48.5837 53.0013Z" fill="#FFD000"/>
<path d="M33.1247 44.1654C30.6889 44.1654 28.708 42.1845 28.708 39.7487C28.708 37.3129 30.6889 35.332 33.1247 35.332C35.5605 35.332 37.5413 37.3129 37.5413 39.7487C37.5413 42.1845 35.5605 44.1654 33.1247 44.1654Z" fill="#FFD000"/>
</g>
<defs>
<clipPath id="clip0_1823_15216">
<rect width="53" height="53" fill="white"/>
</clipPath>
</defs>
</svg>
