<svg width="53" height="53" viewBox="0 0 53 53" fill="none" xmlns="http://www.w3.org/2000/svg">
<g clip-path="url(#clip0_1823_9564)">
<path d="M5.72313 36.2341C4.22162 36.2341 3 34.969 3 33.4139C3 31.8589 4.22162 30.5938 5.72313 30.5938H46.625C48.1265 30.5938 49.3481 31.8589 49.3481 33.4139C49.3481 34.969 48.1265 36.2341 46.625 36.2341H5.72313Z" fill="#FFD000"/>
<path d="M5.81055 25.1289L8.37626 27.7862" stroke="#009EB4" stroke-width="2" stroke-miterlimit="10" stroke-linecap="round" stroke-linejoin="round"/>
<path d="M5.81055 27.7862L8.37626 25.1289" stroke="#009EB4" stroke-width="2" stroke-miterlimit="10" stroke-linecap="round" stroke-linejoin="round"/>
<path d="M13.9921 21.5055C23.5126 18.0612 26.0224 9.11317 24.621 6.98383C21.9343 2.9012 17.7974 16.8203 16.887 22.8494C15.6984 30.7196 14.7914 42.9325 7.04357 45.7509C1.18452 39.1747 18.4199 26.0223 24.8829 20.6939C24.6766 21.5459 25.5338 22.456 26.36 22.6552C27.1861 22.8544 28.0522 22.5308 28.7734 22.0681C30.2087 21.1475 31.284 19.6425 31.7147 17.9518C31.5486 19.3494 31.2678 23.7236 32.5592 24.1711C33.9728 24.6611 35.5135 21.3235 35.5863 19.1473C35.9541 19.6765 36.7098 23.4808 38.296 22.2022C38.8459 21.7588 38.6999 21.0609 39.7461 21.1756C41.0392 21.3174 41.619 21.4591 42.9121 21.6009" stroke="#009EB4" stroke-width="2" stroke-miterlimit="10" stroke-linecap="round" stroke-linejoin="round"/>
<path d="M39.0332 15.8491C40.5932 12.4135 43.1692 8.87989 46.2968 10.8607C49.6644 12.9935 49.6085 26.2361 42.1917 27.9013" stroke="#009EB4" stroke-width="2" stroke-miterlimit="10" stroke-linecap="round" stroke-linejoin="round"/>
</g>
<defs>
<clipPath id="clip0_1823_9564">
<rect width="46.3481" height="48" fill="white" transform="translate(3 2)"/>
</clipPath>
</defs>
</svg>
