<svg width="8" height="8" viewBox="0 0 8 8" fill="none" xmlns="http://www.w3.org/2000/svg">
<path d="M3.781 0.751982C3.90032 0.384756 4.41984 0.384756 4.53916 0.751981L5.14446 2.6149C5.19782 2.77913 5.35086 2.89032 5.52354 2.89032H7.48233C7.86845 2.89032 8.029 3.38442 7.71661 3.61137L6.13192 4.76272C5.99222 4.86422 5.93377 5.04413 5.98713 5.20836L6.59242 7.07127C6.71174 7.4385 6.29144 7.74387 5.97906 7.51691L4.39437 6.36557C4.25466 6.26407 4.0655 6.26407 3.92579 6.36557L2.3411 7.51691C2.02872 7.74387 1.60842 7.4385 1.72774 7.07128L2.33303 5.20836C2.38639 5.04413 2.32794 4.86422 2.18824 4.76272L0.603546 3.61137C0.291165 3.38442 0.451707 2.89032 0.837831 2.89032H2.79662C2.9693 2.89032 3.12234 2.77913 3.1757 2.6149L3.781 0.751982Z" fill="#FF9500"/>
</svg>
