<svg width="51" height="51" viewBox="0 0 51 51" fill="none" xmlns="http://www.w3.org/2000/svg">
<rect x="0.333252" y="0.211914" width="50" height="50" rx="10" fill="#F4C63B"/>
<path d="M14.564 37.7119C14.5639 37.8432 14.5918 37.9733 14.6459 38.0946C14.7 38.216 14.7793 38.3262 14.8793 38.4191C14.9793 38.512 15.098 38.5856 15.2287 38.6359C15.3594 38.6861 15.4995 38.7119 15.6409 38.7119H35.0255C35.1669 38.7119 35.307 38.6861 35.4377 38.6359C35.5683 38.5856 35.6871 38.512 35.7871 38.4191C35.8871 38.3262 35.9664 38.216 36.0205 38.0946C36.0746 37.9733 36.1025 37.8432 36.1024 37.7119V34.7119H14.564V37.7119Z" fill="black"/>
<path d="M38.9099 17.917C38.7495 17.8038 38.5581 17.7346 38.3576 17.717C38.157 17.6994 37.9551 17.7341 37.7746 17.8174L30.2062 21.331L26.3334 12.3408C26.2534 12.1552 26.1154 11.996 25.9372 11.8839C25.7589 11.7718 25.5485 11.7119 25.3332 11.7119C25.1179 11.7119 24.9075 11.7718 24.7293 11.8839C24.551 11.996 24.413 12.1552 24.3331 12.3408L20.4602 21.331L12.8918 17.8174C12.7115 17.7336 12.5094 17.6986 12.3087 17.7162C12.1079 17.7338 11.9166 17.8035 11.7563 17.9171C11.5961 18.0308 11.4735 18.184 11.4024 18.3592C11.3313 18.5344 11.3146 18.7246 11.3542 18.9082L14.3274 32.7119H36.3391L39.3122 18.9082C39.3518 18.7246 39.3352 18.5343 39.264 18.3591C39.1929 18.1838 39.0702 18.0306 38.9099 17.917ZM25.3332 28.7119C24.6939 28.6385 24.1108 28.336 23.7084 27.8689C23.306 27.4018 23.1162 26.8072 23.1794 26.2119C23.1161 25.6166 23.306 25.022 23.7084 24.5549C24.1108 24.0878 24.6939 23.7853 25.3332 23.7119C25.9725 23.7853 26.5556 24.0878 26.958 24.5549C27.3605 25.022 27.5503 25.6166 27.4871 26.2119C27.5503 26.8072 27.3604 27.4018 26.958 27.8689C26.5556 28.336 25.9725 28.6385 25.3332 28.7119Z" fill="black"/>
</svg>
