<svg width="23" height="16" viewBox="0 0 23 16" fill="none" xmlns="http://www.w3.org/2000/svg">
<path d="M19.667 4H16.667V0H2.66699C1.56699 0 0.666992 0.9 0.666992 2V13H2.66699C2.66699 14.66 4.00699 16 5.66699 16C7.32699 16 8.66699 14.66 8.66699 13H14.667C14.667 14.66 16.007 16 17.667 16C19.327 16 20.667 14.66 20.667 13H22.667V8L19.667 4ZM19.167 5.5L21.127 8H16.667V5.5H19.167ZM5.66699 14C5.11699 14 4.66699 13.55 4.66699 13C4.66699 12.45 5.11699 12 5.66699 12C6.21699 12 6.66699 12.45 6.66699 13C6.66699 13.55 6.21699 14 5.66699 14ZM7.88699 11C7.33699 10.39 6.55699 10 5.66699 10C4.77699 10 3.99699 10.39 3.44699 11H2.66699V2H14.667V11H7.88699ZM17.667 14C17.117 14 16.667 13.55 16.667 13C16.667 12.45 17.117 12 17.667 12C18.217 12 18.667 12.45 18.667 13C18.667 13.55 18.217 14 17.667 14Z" fill="#0C0C0C"/>
</svg>