<svg width="16" height="12" viewBox="0 0 16 12" fill="none" xmlns="http://www.w3.org/2000/svg">
<path d="M8.57143 12V8.57143H10.8571L8 5.14286L5.14286 8.57143H7.42857V12H4.57143V11.9714C4.47543 11.9771 4.384 12 4.28571 12C3.14907 12 2.05898 11.5485 1.25526 10.7447C0.451529 9.94102 0 8.85093 0 7.71429C0 5.51543 1.66286 3.72343 3.79657 3.47771C3.98365 2.49977 4.50566 1.61757 5.27281 0.982865C6.03997 0.348157 7.00432 0.000610305 8 0C8.99582 0.000550471 9.96034 0.348051 10.7277 0.982746C11.495 1.61744 12.0173 2.49967 12.2046 3.47771C14.3383 3.72343 15.9989 5.51543 15.9989 7.71429C15.9989 8.85093 15.5473 9.94102 14.7436 10.7447C13.9399 11.5485 12.8498 12 11.7131 12C11.6171 12 11.5246 11.9771 11.4274 11.9714V12H8.57143Z" fill="white"/>
</svg>
