<svg width="24" height="24" viewBox="0 0 24 24" fill="none" xmlns="http://www.w3.org/2000/svg">
<path d="M9.59797 10.5592C11.7188 10.5592 13.4381 8.83992 13.4381 6.71906C13.4381 4.5982 11.7188 2.87891 9.59797 2.87891C7.47711 2.87891 5.75781 4.5982 5.75781 6.71906C5.75781 8.83992 7.47711 10.5592 9.59797 10.5592Z" stroke="#414141" stroke-width="1.82407"/>
<path d="M15.3584 9.60008C16.9491 9.60008 18.2385 8.3106 18.2385 6.71996C18.2385 5.12932 16.9491 3.83984 15.3584 3.83984" stroke="#414141" stroke-width="1.82407" stroke-linecap="round"/>
<path d="M9.59918 21.1198C13.3107 21.1198 16.3194 19.4005 16.3194 17.2796C16.3194 15.1588 13.3107 13.4395 9.59918 13.4395C5.88767 13.4395 2.87891 15.1588 2.87891 17.2796C2.87891 19.4005 5.88767 21.1198 9.59918 21.1198Z" stroke="#414141" stroke-width="1.82407"/>
<path d="M18.2412 14.4004C19.9253 14.7697 21.1213 15.705 21.1213 16.8005C21.1213 17.7887 20.1481 18.6465 18.7212 19.0762" stroke="#414141" stroke-width="1.82407" stroke-linecap="round"/>
</svg>
