<svg width="24" height="24" viewBox="0 0 24 24" fill="none" xmlns="http://www.w3.org/2000/svg">
<path d="M20.3101 18.4066C19.239 16.5267 17.5665 15.0619 15.5617 14.248C16.5587 13.5003 17.2951 12.4579 17.6666 11.2684C18.0382 10.0789 18.0261 8.80267 17.632 7.62045C17.2379 6.43822 16.4819 5.40995 15.4709 4.6813C14.46 3.95264 13.2454 3.56055 11.9992 3.56055C10.753 3.56055 9.53844 3.95264 8.52749 4.6813C7.51654 5.40995 6.76048 6.43822 6.3664 7.62045C5.97233 8.80267 5.96022 10.0789 6.33179 11.2684C6.70336 12.4579 7.43977 13.5003 8.43671 14.248C6.43196 15.0619 4.7594 16.5267 3.68827 18.4066C3.6219 18.5134 3.57767 18.6323 3.5582 18.7565C3.53872 18.8807 3.54442 19.0075 3.57493 19.1294C3.60545 19.2513 3.66016 19.3658 3.73583 19.4662C3.81149 19.5665 3.90656 19.6506 4.01538 19.7135C4.1242 19.7764 4.24455 19.8167 4.36927 19.8322C4.494 19.8476 4.62055 19.8378 4.74141 19.8033C4.86227 19.7689 4.97497 19.7105 5.07281 19.6316C5.17065 19.5527 5.25162 19.4549 5.31093 19.3441C6.72655 16.8973 9.22655 15.4379 11.9992 15.4379C14.7719 15.4379 17.2719 16.898 18.6875 19.3441C18.816 19.5508 19.0199 19.6994 19.256 19.7585C19.492 19.8176 19.7419 19.7825 19.9526 19.6608C20.1633 19.539 20.3184 19.3401 20.3852 19.1061C20.4519 18.872 20.425 18.6212 20.3101 18.4066ZM7.93671 9.50039C7.93671 8.6969 8.17497 7.91146 8.62136 7.24339C9.06776 6.57531 9.70223 6.05461 10.4446 5.74713C11.1869 5.43965 12.0037 5.3592 12.7918 5.51595C13.5798 5.6727 14.3037 6.05962 14.8718 6.62777C15.44 7.19592 15.8269 7.91979 15.9837 8.70784C16.1404 9.49588 16.06 10.3127 15.7525 11.055C15.445 11.7974 14.9243 12.4318 14.2562 12.8782C13.5881 13.3246 12.8027 13.5629 11.9992 13.5629C10.9221 13.5617 9.88956 13.1332 9.12796 12.3716C8.36636 11.61 7.93795 10.5775 7.93671 9.50039Z" fill="#ACACAC"/>
</svg>
