<svg width="154" height="154" viewBox="0 0 154 154" fill="none" xmlns="http://www.w3.org/2000/svg">
<path d="M2 77C2 35.5786 35.5786 2 77 2C118.421 2 152 35.5786 152 77C152 118.421 118.421 152 77 152C35.5786 152 2 118.421 2 77Z" fill="url(#paint0_linear_1087_2815)" fill-opacity="0.1"/>
<path d="M77 1C118.974 1 153 35.0264 153 77C153 118.974 118.974 153 77 153C35.0264 153 1 118.974 1 77C1 35.0264 35.0264 1 77 1Z" stroke="#006978" stroke-opacity="0.1" stroke-width="2"/>
<path d="M106.49 107.882V111.028C106.49 113.531 105.496 115.932 103.726 117.702C101.956 119.472 99.5549 120.466 97.0517 120.466H62.4442C59.941 120.466 57.5403 119.472 55.7703 117.702C54.0003 115.932 53.0059 113.531 53.0059 111.028V48.1054C53.0059 45.6022 54.0003 43.2015 55.7703 41.4314C57.5403 39.6614 59.941 38.667 62.4442 38.667H97.0517C99.5549 38.667 101.956 39.6614 103.726 41.4314C105.496 43.2015 106.49 45.6022 106.49 48.1054V107.882Z" fill="#009EB4"/>
<rect x="57.0327" y="46.0498" width="46.311" height="61.748" rx="5.20297" fill="white"/>
<path d="M86.3549 120.466L57.3204 149.5H14.8477V136.916L43.8821 107.881V57.543H48.6013C49.8529 57.543 51.0533 58.0402 51.9383 58.9252C52.8233 59.8102 53.3205 61.0106 53.3205 62.2622V74.8467L54.8936 77.4737C56.9525 80.8986 58.0401 84.8194 58.0397 88.8155V91.0964C58.0374 94.238 57.1839 97.3203 55.57 100.016L53.3205 103.162V111.027C53.3205 113.53 54.3149 115.931 56.085 117.701C57.855 119.471 60.2557 120.466 62.7589 120.466H86.3549Z" fill="#FFE5C4"/>
<path d="M86.3298 41.3516H74.5172C73.7758 41.3516 73.1748 41.9526 73.1748 42.6939C73.1748 43.4353 73.7758 44.0363 74.5172 44.0363H86.3298C87.0712 44.0363 87.6722 43.4353 87.6722 42.6939C87.6722 41.9526 87.0712 41.3516 86.3298 41.3516Z" fill="white"/>
<path d="M111.524 98.4434C112.775 98.4434 113.976 98.9406 114.861 99.8256C115.746 100.711 116.243 101.911 116.243 103.163C116.243 104.414 115.746 105.615 114.861 106.5C113.976 107.385 112.775 107.882 111.524 107.882H105.231C103.98 107.882 102.779 107.385 101.894 106.5C101.009 105.615 100.512 104.414 100.512 103.163C100.512 101.911 101.009 100.711 101.894 99.8256C102.779 98.9406 103.98 98.4434 105.231 98.4434H111.524Z" fill="#FFE5C4"/>
<path d="M111.524 79.5664C112.775 79.5664 113.976 80.0636 114.861 80.9486C115.746 81.8336 116.243 83.034 116.243 84.2856C116.243 85.5372 115.746 86.7375 114.861 87.6226C113.976 88.5076 112.775 89.0048 111.524 89.0048H105.231C103.98 89.0048 102.779 88.5076 101.894 87.6226C101.009 86.7375 100.512 85.5372 100.512 84.2856C100.512 83.034 101.009 81.8336 101.894 80.9486C102.779 80.0636 103.98 79.5664 105.231 79.5664H111.524Z" fill="#FFE5C4"/>
<path d="M111.524 89.0049C112.775 89.0049 113.976 89.5021 114.861 90.3871C115.746 91.2721 116.243 92.4725 116.243 93.7241C116.243 94.9757 115.746 96.176 114.861 97.061C113.976 97.9461 112.775 98.4433 111.524 98.4433H105.231C103.98 98.4433 102.779 97.9461 101.894 97.061C101.009 96.176 100.512 94.9757 100.512 93.7241C100.512 92.4725 101.009 91.2721 101.894 90.3871C102.779 89.5021 103.98 89.0049 105.231 89.0049H111.524Z" fill="#FFE5C4"/>
<path d="M111.524 70.1279C112.775 70.1279 113.976 70.6251 114.861 71.5101C115.746 72.3952 116.243 73.5955 116.243 74.8471C116.243 76.0987 115.746 77.2991 114.861 78.1841C113.976 79.0691 112.775 79.5663 111.524 79.5663H105.231C103.98 79.5663 102.779 79.0691 101.894 78.1841C101.009 77.2991 100.512 76.0987 100.512 74.8471C100.512 73.5955 101.009 72.3952 101.894 71.5101C102.779 70.6251 103.98 70.1279 105.231 70.1279H111.524Z" fill="#FFE5C4"/>
<path d="M95.4721 71.7863V84.7989C95.4695 85.6609 95.126 86.4869 94.5164 87.0964C93.9069 87.7059 93.081 88.0495 92.219 88.052H82.4595L75.9533 94.5583V88.052H69.447C68.585 88.0495 67.759 87.7059 67.1495 87.0964C66.54 86.4869 66.1964 85.6609 66.1938 84.7989V71.7863C66.1964 70.9243 66.54 70.0984 67.1495 69.4889C67.759 68.8793 68.585 68.5358 69.447 68.5332H92.219C93.081 68.5358 93.9069 68.8793 94.5164 69.4889C95.126 70.0984 95.4695 70.9243 95.4721 71.7863Z" fill="#F4C63B"/>
<path d="M82.4592 76.665H79.2061V79.9182H82.4592V76.665Z" fill="black" fill-opacity="0.2"/>
<path d="M88.9655 76.665H85.7124V79.9182H88.9655V76.665Z" fill="black" fill-opacity="0.2"/>
<path d="M75.9533 76.665H72.7002V79.9182H75.9533V76.665Z" fill="black" fill-opacity="0.2"/>
<circle cx="95.0203" cy="136.609" r="3.62434" fill="white"/>
<defs>
<linearGradient id="paint0_linear_1087_2815" x1="77" y1="77" x2="77" y2="152" gradientUnits="userSpaceOnUse">
<stop stop-color="#009EB4" stop-opacity="0.1"/>
<stop offset="1" stop-color="#009EB4" stop-opacity="0.8"/>
</linearGradient>
</defs>
</svg>
