<svg width="126" height="111" viewBox="0 0 126 111" fill="none" xmlns="http://www.w3.org/2000/svg">
    <path d="M63.1664 22.2227C53.2105 22.2227 45.1108 30.6339 45.1108 40.9727C45.1108 51.3115 53.2105 59.7227 63.1664 59.7227C73.1223 59.7227 81.222 51.3115 81.222 40.9727C81.222 30.6339 73.1223 22.2227 63.1664 22.2227ZM72.3756 40.5615L62.2185 47.5933C61.6106 48.0142 60.9166 48.2202 60.2267 48.2202C59.2992 48.2202 58.3794 47.8483 57.6849 47.1271L53.4096 42.6873C52.0063 41.2301 52.0063 38.8677 53.4096 37.4105C54.8126 35.9533 57.0878 35.9533 58.491 37.4105L60.6835 39.6873L68.3896 34.3523C70.0406 33.2092 72.2717 33.6724 73.3724 35.3873C74.4731 37.1018 74.0268 39.4184 72.3756 40.5615Z" fill="#009EB4"/>
    <path d="M0.666504 86.0693C0.666504 91.314 4.93335 95.5806 10.1777 95.5806H44.7949V102.966H39.8816C37.8591 102.966 36.2195 104.605 36.2195 106.628C36.2195 108.65 37.8591 110.29 39.8816 110.29H86.4514C88.4739 110.29 90.1135 108.65 90.1135 106.628C90.1135 104.605 88.4739 102.966 86.4514 102.966H81.5381V95.5806H116.155C121.4 95.5806 125.666 91.3137 125.666 86.0693V80.8711H0.666504V86.0693Z" fill="#009EB4"/>
    <path d="M125.666 9.51123C125.666 4.2666 121.4 0 116.155 0H10.1777C4.93335 0 0.666504 4.26685 0.666504 9.51123V73.5474H125.666V9.51123ZM63.1665 66.1621C48.981 66.1621 37.4402 54.6213 37.4402 40.4358C37.4402 26.2502 48.981 14.7095 63.1665 14.7095C77.352 14.7095 88.8928 26.2502 88.8928 40.4358C88.8928 54.6213 77.352 66.1621 63.1665 66.1621Z" fill="#F4C63B"/>
    </svg>
    