<svg width="80" height="80" viewBox="0 0 80 80" fill="none" xmlns="http://www.w3.org/2000/svg">
    <path fill-rule="evenodd" clip-rule="evenodd" d="M0 8.57143C0 3.84 3.84 0 8.57143 0H17.1429C18.72 0 20 1.28 20 2.85714C20 4.43429 18.72 5.71429 17.1429 5.71429H8.57143C6.99429 5.71429 5.71429 6.99429 5.71429 8.57143V45.7143H74.2857V40C74.2857 38.4229 75.5657 37.1429 77.1429 37.1429C78.72 37.1429 80 38.4229 80 40V54.2857C80 59.0171 76.16 62.8571 71.4286 62.8571H51.4286C51.4486 67.9629 51.6429 70.6029 53.2486 74.2857H57.1429C58.72 74.2857 60 75.5657 60 77.1429C60 78.72 58.72 80 57.1429 80H22.8571C21.28 80 20 78.72 20 77.1429C20 75.5657 21.28 74.2857 22.8571 74.2857H26.7514C28.3571 70.6029 28.5514 67.9629 28.5714 62.8571H8.57143C3.84 62.8571 0 59.0171 0 54.2857V8.57143ZM74.2857 51.4286H5.71429V54.2857C5.71429 55.8629 6.99429 57.1429 8.57143 57.1429H71.4286C73.0057 57.1429 74.2857 55.8629 74.2857 54.2857V51.4286ZM45.7257 62.8571H34.2743C34.24 67.9514 34.0371 70.9657 32.9029 74.2857H47.0971C45.9629 70.9657 45.76 67.9514 45.7257 62.8571Z" fill="#009EB4"/>
    <path fill-rule="evenodd" clip-rule="evenodd" d="M32.8571 0C27.3371 0 22.8571 4.48 22.8571 10V24.2857C22.8571 29.8057 27.3371 34.2857 32.8571 34.2857H70C75.52 34.2857 80 29.8057 80 24.2857V10C80 4.48 75.52 0 70 0H32.8571ZM36.3057 12.2657C35.7486 11.7086 35.0171 11.4286 34.2857 11.4286C33.5543 11.4286 32.8229 11.7086 32.2657 12.2657C31.1486 13.38 31.1486 15.1914 32.2657 16.3057L33.1029 17.1429L32.2657 17.98C31.1486 19.0943 31.1486 20.9057 32.2657 22.02C33.38 23.1371 35.1914 23.1371 36.3057 22.02L37.1429 21.1829L37.98 22.02C39.0943 23.1371 40.9057 23.1371 42.02 22.02C43.1371 20.9057 43.1371 19.0943 42.02 17.98L41.1829 17.1429L42.02 16.3057C43.1371 15.1914 43.1371 13.38 42.02 12.2657C40.9057 11.1486 39.0943 11.1486 37.98 12.2657L37.1429 13.1029L36.3057 12.2657ZM50.5914 12.2657C50.0343 11.7086 49.3029 11.4286 48.5714 11.4286C47.84 11.4286 47.1086 11.7086 46.5514 12.2657C45.4343 13.38 45.4343 15.1914 46.5514 16.3057L47.3886 17.1429L46.5514 17.98C45.4343 19.0943 45.4343 20.9057 46.5514 22.02C47.6657 23.1371 49.4771 23.1371 50.5914 22.02L51.4286 21.1829L52.2657 22.02C53.38 23.1371 55.1914 23.1371 56.3057 22.02C57.4229 20.9057 57.4229 19.0943 56.3057 17.98L55.4686 17.1429L56.3057 16.3057C57.4229 15.1914 57.4229 13.38 56.3057 12.2657C55.1914 11.1486 53.38 11.1486 52.2657 12.2657L51.4286 13.1029L50.5914 12.2657ZM64.8771 12.2657C64.32 11.7086 63.5886 11.4286 62.8571 11.4286C62.1257 11.4286 61.3943 11.7086 60.8371 12.2657C59.72 13.38 59.72 15.1914 60.8371 16.3057L61.6743 17.1429L60.8371 17.98C59.72 19.0943 59.72 20.9057 60.8371 22.02C61.9514 23.1371 63.7629 23.1371 64.8771 22.02L65.7143 21.1829L66.5514 22.02C67.6657 23.1371 69.4771 23.1371 70.5914 22.02C71.7086 20.9057 71.7086 19.0943 70.5914 17.98L69.7543 17.1429L70.5914 16.3057C71.7086 15.1914 71.7086 13.38 70.5914 12.2657C69.4771 11.1486 67.6657 11.1486 66.5514 12.2657L65.7143 13.1029L64.8771 12.2657Z" fill="#F4C63B"/>
    </svg>
    