<svg width="23" height="9" viewBox="0 0 23 9" fill="none" xmlns="http://www.w3.org/2000/svg">
<path fill-rule="evenodd" clip-rule="evenodd" d="M16.7193 1.21237C16.3504 1.06282 15.7723 0.902344 15.0504 0.902344C13.2104 0.902344 11.9143 1.90352 11.9032 3.33832C11.8929 4.39897 12.8285 4.99062 13.5349 5.34374C14.2597 5.70553 14.5034 5.93629 14.4999 6.25936C14.4953 6.75414 13.9211 6.98019 13.3859 6.98019C12.6405 6.98019 12.2446 6.86832 11.633 6.59272L11.3931 6.47542L11.1317 8.12782C11.5666 8.33385 12.3709 8.51239 13.206 8.52163C15.1634 8.52163 16.4342 7.53195 16.4486 5.99975C16.4556 5.16003 15.9595 4.52102 14.8852 3.99423C14.2343 3.65276 13.8357 3.4249 13.8399 3.07913C13.8399 2.77231 14.1773 2.44423 14.9063 2.44423C15.5152 2.43401 15.9563 2.57749 16.3 2.72703L16.4669 2.81221L16.7193 1.21237Z" fill="#265697"/>
<path fill-rule="evenodd" clip-rule="evenodd" d="M21.4926 1.03809H20.0537C19.608 1.03809 19.2744 1.16953 19.0786 1.65021L16.313 8.41484H18.2684C18.2684 8.41484 18.5881 7.50529 18.6605 7.3056C18.8741 7.3056 20.7737 7.30876 21.0453 7.30876C21.101 7.56717 21.2718 8.41484 21.2718 8.41484H22.9997L21.4926 1.03809ZM19.1964 5.7958C19.3504 5.37051 19.9383 3.73235 19.9383 3.73235C19.9273 3.752 20.0911 3.30499 20.1852 3.02785L20.311 3.66426C20.311 3.66426 20.6676 5.42624 20.7421 5.79572L19.1964 5.7958Z" fill="#265697"/>
<path fill-rule="evenodd" clip-rule="evenodd" d="M8.10356 8.41272L9.26781 1.03125H11.13L9.96491 8.41272H8.10356Z" fill="#265697"/>
<path fill-rule="evenodd" clip-rule="evenodd" d="M6.5425 1.03613L4.7194 6.06974L4.52516 5.04681C4.18577 3.86762 3.12835 2.59001 1.9462 1.9504L3.61319 8.40584L5.58338 8.40343L8.51499 1.03613H6.5425Z" fill="#265697"/>
<path fill-rule="evenodd" clip-rule="evenodd" d="M3.02672 1.03125H0.0240253L0.000259399 1.18483C2.33633 1.79582 3.88209 3.27236 4.52373 5.04649L3.87081 1.65442C3.75809 1.18702 3.43116 1.04754 3.02672 1.03125Z" fill="#D97B16"/>
</svg>
