<svg width="21" height="21" viewBox="0 0 21 21" fill="none" xmlns="http://www.w3.org/2000/svg">
<path fill-rule="evenodd" clip-rule="evenodd" d="M18.9105 8.35869C18.8522 8.35598 18.7939 8.35498 18.7355 8.35569H16.3005C14.3085 8.35569 12.6025 9.93669 12.6025 11.9987C12.6025 14.0607 14.3085 15.6417 16.3015 15.6417H18.7345C18.7959 15.6424 18.8542 15.641 18.9095 15.6377C19.3206 15.611 19.7079 15.436 19.9996 15.1452C20.2914 14.8544 20.4676 14.4676 20.4955 14.0567C20.4995 13.9977 20.4995 13.9347 20.4995 13.8767V10.1207C20.4995 10.0627 20.4995 9.99969 20.4955 9.94069C20.4676 9.5299 20.2915 9.14322 20 8.85245C19.7085 8.56168 19.3214 8.38659 18.9105 8.35969M16.0875 12.9707C16.6005 12.9707 17.0175 12.5367 17.0175 11.9997C17.0175 11.4627 16.6005 11.0287 16.0875 11.0287C15.5745 11.0287 15.1585 11.4627 15.1585 11.9997C15.1585 12.5367 15.5735 12.9707 16.0875 12.9707Z" fill="#F4C63B"/>
<path fill-rule="evenodd" clip-rule="evenodd" d="M18.735 17.1C18.7685 17.0988 18.8018 17.1055 18.8322 17.1196C18.8626 17.1337 18.8894 17.1547 18.9102 17.1809C18.931 17.2072 18.9454 17.238 18.9521 17.2708C18.9588 17.3037 18.9578 17.3377 18.949 17.37C18.755 18.062 18.448 18.652 17.955 19.148C17.234 19.875 16.319 20.198 15.189 20.351C14.091 20.5 12.689 20.5 10.917 20.5H8.87998C7.10898 20.5 5.70598 20.5 4.60798 20.351C3.47798 20.198 2.56298 19.875 1.84198 19.148C1.12098 18.423 0.800977 17.5 0.648977 16.362C0.500977 15.254 0.500977 13.84 0.500977 12.055V11.945C0.500977 10.16 0.500977 8.745 0.648977 7.639C0.800977 6.5 1.12098 5.58 1.84098 4.851C2.56198 4.125 3.47698 3.801 4.60698 3.649C5.70598 3.5 7.10898 3.5 8.87998 3.5H10.917C12.688 3.5 14.091 3.5 15.189 3.649C16.319 3.802 17.234 4.125 17.955 4.851C18.448 5.348 18.755 5.938 18.949 6.631C18.9576 6.66328 18.9585 6.69714 18.9517 6.72984C18.9449 6.76255 18.9305 6.7932 18.9097 6.81935C18.8889 6.8455 18.8622 6.86641 18.8319 6.88042C18.8016 6.89442 18.7684 6.90113 18.735 6.9H16.302C13.568 6.9 11.159 9.077 11.159 12C11.159 14.923 13.569 17.1 16.303 17.1H18.735ZM4.11498 7.386C4.01977 7.38639 3.92557 7.40554 3.83776 7.44233C3.74995 7.47913 3.67024 7.53287 3.6032 7.60047C3.53616 7.66807 3.48308 7.74821 3.44701 7.83633C3.41094 7.92444 3.39258 8.01879 3.39298 8.114C3.39298 8.517 3.71598 8.843 4.11498 8.843H7.97098C8.37098 8.843 8.69398 8.517 8.69398 8.114C8.69451 7.92163 8.61866 7.7369 8.4831 7.60041C8.34754 7.46391 8.16335 7.38679 7.97098 7.386H4.11498Z" fill="#009EB4"/>
<path d="M6.27734 2.52434L8.23534 1.08134C8.74635 0.703759 9.36497 0.5 10.0003 0.5C10.6357 0.5 11.2543 0.703759 11.7653 1.08134L13.7343 2.53234C12.9103 2.50034 11.9903 2.50034 10.9833 2.50034H8.81334C7.89134 2.50034 7.04434 2.50034 6.27734 2.52434Z" fill="#F4C63B"/>
</svg>
