<svg width="30" height="30" viewBox="0 0 30 30" fill="none" xmlns="http://www.w3.org/2000/svg">
    <rect width="30" height="30" rx="6" fill="#F7F7F7"/>
    <path d="M5.37375 21.5942H7.27163C7.14965 20.8404 6.82838 20.1328 6.34107 19.5448C5.85376 18.9568 5.21813 18.5098 4.5 18.25V20.7156C4.4996 20.9479 4.59137 21.1709 4.75518 21.3356C4.91899 21.5003 5.14145 21.5934 5.37375 21.5942Z" fill="#009EB4"/>
    <path d="M14.9998 18.564C16.9677 18.564 18.563 16.9687 18.563 15.0008C18.563 13.0328 16.9677 11.4375 14.9998 11.4375C13.0318 11.4375 11.4365 13.0328 11.4365 15.0008C11.4365 16.9687 13.0318 18.564 14.9998 18.564Z" fill="#F4C63B"/>
    <path d="M7.27163 8.40625H5.37375C5.14145 8.40714 4.91899 8.50015 4.75518 8.66488C4.59137 8.8296 4.4996 9.05257 4.5 9.28487V11.7505C5.21813 11.4907 5.85376 11.0437 6.34107 10.4557C6.82838 9.86769 7.14965 9.16012 7.27163 8.40625Z" fill="#009EB4"/>
    <path d="M24.6219 8.40625H22.7285C22.8511 9.16032 23.1726 9.86806 23.6598 10.4565C24.147 11.045 24.7822 11.493 25.5001 11.7543V9.28487C25.4999 9.05197 25.4074 8.82867 25.2427 8.66394C25.0781 8.49922 24.8548 8.40655 24.6219 8.40625Z" fill="#009EB4"/>
    <path d="M22.7285 21.5909H24.6219C24.8548 21.5906 25.0781 21.498 25.2427 21.3332C25.4074 21.1685 25.4999 20.9452 25.5001 20.7123V18.2422C24.7816 18.5026 24.1457 18.9504 23.6584 19.5392C23.171 20.128 22.85 20.8364 22.7285 21.5909Z" fill="#009EB4"/>
    <path d="M21.972 8.40625H8.028C7.89706 9.35991 7.49496 10.2559 6.86952 10.9876C6.24409 11.7194 5.42164 12.2561 4.5 12.5339V17.4599C5.42164 17.7377 6.24409 18.2744 6.86952 19.0061C7.49496 19.7379 7.89706 20.6338 8.028 21.5875H21.972C22.1025 20.6332 22.5044 19.7364 23.1298 19.0039C23.7553 18.2714 24.5779 17.7339 25.5 17.4554V12.5376C24.5786 12.2581 23.7566 11.7205 23.1314 10.9883C22.5061 10.2561 22.1038 9.36003 21.972 8.40625ZM10.149 20.5371H9.59287C9.49342 20.5371 9.39804 20.4976 9.32771 20.4273C9.25738 20.357 9.21787 20.2616 9.21787 20.1621C9.21787 20.0627 9.25738 19.9673 9.32771 19.897C9.39804 19.8266 9.49342 19.7871 9.59287 19.7871H10.149C10.2485 19.7871 10.3438 19.8266 10.4142 19.897C10.4845 19.9673 10.524 20.0627 10.524 20.1621C10.524 20.2616 10.4845 20.357 10.4142 20.4273C10.3438 20.4976 10.2485 20.5371 10.149 20.5371ZM16.3673 20.5371H12.2797C12.1803 20.5371 12.0849 20.4976 12.0146 20.4273C11.9443 20.357 11.9047 20.2616 11.9047 20.1621C11.9047 20.0627 11.9443 19.9673 12.0146 19.897C12.0849 19.8266 12.1803 19.7871 12.2797 19.7871H16.3673C16.4667 19.7871 16.5621 19.8266 16.6324 19.897C16.7027 19.9673 16.7423 20.0627 16.7423 20.1621C16.7423 20.2616 16.7027 20.357 16.6324 20.4273C16.5621 20.4976 16.4667 20.5371 16.3673 20.5371ZM15 19.3094C14.1471 19.3094 13.3133 19.0565 12.6041 18.5826C11.8949 18.1087 11.3422 17.4352 11.0158 16.6472C10.6894 15.8592 10.604 14.9921 10.7704 14.1555C10.9368 13.319 11.3475 12.5506 11.9506 11.9475C12.5537 11.3444 13.3221 10.9336 14.1587 10.7672C14.9952 10.6008 15.8623 10.6862 16.6503 11.0126C17.4383 11.339 18.1118 11.8918 18.5857 12.601C19.0596 13.3102 19.3125 14.1439 19.3125 14.9969C19.3111 16.1402 18.8563 17.2363 18.0479 18.0447C17.2394 18.8532 16.1433 19.308 15 19.3094Z" fill="#009EB4"/>
    </svg>
    