<svg width="30" height="30" viewBox="0 0 30 30" fill="none" xmlns="http://www.w3.org/2000/svg">
    <rect width="30" height="30" rx="6" fill="#F7F7F7"/>
    <path fill-rule="evenodd" clip-rule="evenodd" d="M14.0849 5.57969C13.7685 5.66219 13.4685 5.78828 13.1919 5.95047C13.1254 5.98891 13.0499 5.99031 12.9805 5.95563L12.4597 5.69125C12.3735 5.64625 12.2722 5.66219 12.2047 5.73109L11.676 6.25844C11.608 6.32734 11.5921 6.42859 11.6361 6.51484L11.9005 7.03562C11.9366 7.10359 11.9338 7.17906 11.8954 7.24703C11.7332 7.52359 11.6085 7.82219 11.5246 8.14C11.5044 8.21453 11.4529 8.27031 11.3797 8.29422L10.8243 8.47375C10.7324 8.50422 10.6729 8.58672 10.6729 8.68375V9.43047C10.6729 9.5275 10.7329 9.61 10.8243 9.64047L11.3797 9.82094C11.4529 9.84484 11.5044 9.89922 11.5246 9.97375C11.6085 10.2911 11.7332 10.5916 11.8954 10.8681C11.9338 10.9347 11.9366 11.0102 11.9005 11.0795L11.6361 11.5989C11.5921 11.6852 11.608 11.7864 11.676 11.8553L12.2047 12.3827C12.2727 12.4516 12.3735 12.4675 12.4597 12.4239L12.9805 12.1581C13.0494 12.1234 13.1254 12.1248 13.1919 12.1647C13.4685 12.3255 13.7685 12.4516 14.0849 12.5341C14.1608 12.5542 14.2152 12.6058 14.2391 12.6803L14.4196 13.2344C14.4486 13.3272 14.5311 13.3872 14.6282 13.3872H15.3749C15.4719 13.3872 15.5558 13.3272 15.5849 13.2344L15.7658 12.6803C15.7897 12.6058 15.8441 12.5542 15.9186 12.5341C16.236 12.4516 16.5364 12.3255 16.813 12.1647C16.8796 12.1248 16.955 12.1234 17.0244 12.1581L17.5452 12.4239C17.6314 12.468 17.7313 12.452 17.8002 12.3827L18.3275 11.8553C18.3964 11.7864 18.4124 11.6852 18.3688 11.5989L18.103 11.0795C18.0683 11.0106 18.0711 10.9347 18.1096 10.8681C18.2704 10.5916 18.3964 10.2916 18.4804 9.97375C18.5005 9.89922 18.5521 9.84484 18.6252 9.82094L19.1807 9.64047C19.2725 9.61 19.3321 9.5275 19.3321 9.43047V8.68375C19.3321 8.58672 19.2721 8.50422 19.1807 8.47375L18.6252 8.29422C18.5521 8.27031 18.5005 8.21453 18.4804 8.14C18.3964 7.82266 18.2704 7.52359 18.1096 7.24703C18.0711 7.17906 18.0683 7.10359 18.103 7.03562L18.3688 6.51484C18.4129 6.42859 18.3969 6.32734 18.3275 6.25844L17.8002 5.73109C17.7313 5.66219 17.6314 5.64625 17.5452 5.69125L17.0244 5.95563C16.9555 5.99031 16.8796 5.98891 16.813 5.95047C16.5364 5.78828 16.2364 5.66219 15.9186 5.57969C15.8441 5.55953 15.7897 5.50797 15.7658 5.43484L15.5849 4.87938C15.5558 4.78656 15.4719 4.72656 15.3749 4.72656H14.6282C14.5311 4.72656 14.4486 4.78656 14.4196 4.87938L14.2391 5.43484C14.2152 5.50797 14.1604 5.55953 14.0849 5.57969Z" fill="#F4C63B"/>
    <path fill-rule="evenodd" clip-rule="evenodd" d="M14.0849 5.57969C13.8032 5.65422 13.5336 5.76156 13.2824 5.89844L13.3939 5.95563C13.4629 5.99031 13.5388 5.98891 13.6054 5.95047C13.8819 5.78828 14.1819 5.66219 14.4997 5.57969C14.5743 5.55953 14.6286 5.50797 14.6525 5.43484L14.8335 4.87938C14.8639 4.78656 14.9464 4.72656 15.0435 4.72656H14.6291C14.5321 4.72656 14.4496 4.78656 14.4205 4.87938L14.24 5.43484C14.2152 5.50797 14.1604 5.55953 14.0849 5.57969ZM12.5914 5.75734L12.4597 5.69078C12.3735 5.64578 12.2722 5.66172 12.2047 5.73063L11.676 6.25797C11.608 6.32688 11.5921 6.42813 11.6361 6.51438L11.9005 7.03516C11.9366 7.10313 11.9338 7.17859 11.8954 7.24656C11.7332 7.52312 11.6085 7.82172 11.5246 8.13953C11.5044 8.21406 11.4529 8.26984 11.3797 8.29375L10.8243 8.47328C10.7324 8.50375 10.6729 8.58625 10.6729 8.68328V9.43C10.6729 9.52703 10.7329 9.60953 10.8243 9.64L11.3797 9.82047C11.4529 9.84438 11.5044 9.89875 11.5246 9.97328C11.6085 10.2906 11.7332 10.5911 11.8954 10.8677C11.9338 10.9342 11.9366 11.0097 11.9005 11.0791L11.6361 11.5984C11.5921 11.6847 11.608 11.7859 11.676 11.8548L12.2047 12.3822C12.2727 12.4511 12.3735 12.467 12.4597 12.4234L12.5914 12.3555L12.0904 11.8544C12.0214 11.7855 12.0055 11.6842 12.0491 11.598L12.3149 11.0786C12.3496 11.0097 12.3468 10.9338 12.3083 10.8672C12.1475 10.5906 12.0214 10.2906 11.9375 9.97281C11.9188 9.89828 11.8658 9.84391 11.7927 9.82L11.2372 9.63953C11.1454 9.60906 11.0858 9.52656 11.0858 9.42953V8.68281C11.0858 8.58578 11.1458 8.50328 11.2372 8.47281L11.7927 8.29328C11.8658 8.26937 11.9174 8.21359 11.9375 8.13906C12.0214 7.82172 12.1475 7.52266 12.3083 7.24609C12.3468 7.17813 12.3496 7.10266 12.3149 7.03469L12.0491 6.51391C12.005 6.42766 12.021 6.32641 12.0904 6.2575L12.5914 5.75734ZM13.2824 12.2153C13.5336 12.3522 13.8032 12.4609 14.0849 12.5341C14.1608 12.5542 14.2152 12.6058 14.2391 12.6803L14.4196 13.2344C14.4486 13.3272 14.5311 13.3872 14.6282 13.3872H15.0425C14.9455 13.3872 14.863 13.3272 14.8325 13.2344L14.6516 12.6803C14.6277 12.6058 14.5733 12.5542 14.4988 12.5341C14.1814 12.4516 13.881 12.3255 13.6044 12.1647C13.5379 12.1248 13.4624 12.1234 13.393 12.1581L13.2824 12.2153Z" fill="#F4C63B"/>
    <path fill-rule="evenodd" clip-rule="evenodd" d="M17.1794 9.05922C17.1794 10.2616 16.2039 11.237 15.0016 11.237C13.7993 11.237 12.8252 10.2616 12.8252 9.05922C12.8252 7.85688 13.7993 6.88281 15.0016 6.88281C16.2039 6.88281 17.1794 7.85688 17.1794 9.05922Z" fill="#EAF6FF"/>
    <path fill-rule="evenodd" clip-rule="evenodd" d="M15.1929 11.2277C15.1305 11.2328 15.0668 11.237 15.0016 11.237C13.7993 11.237 12.8252 10.2616 12.8252 9.05922C12.8252 7.85688 13.7993 6.88281 15.0016 6.88281C15.0668 6.88281 15.1305 6.88562 15.1929 6.89078C14.0805 6.98781 13.2077 7.92203 13.2077 9.05922C13.2077 10.1964 14.0805 11.1306 15.1929 11.2277Z" fill="#D3DDE6"/>
    <path fill-rule="evenodd" clip-rule="evenodd" d="M4.65984 24.6056C6.29953 20.639 3.09188 20.699 3 17.2894C3.40266 10.979 12.7252 11.932 13.1902 17.0756C13.2661 17.9128 12.9525 18.3351 14.1666 19.8937C14.7633 20.8598 13.8623 20.865 13.4409 20.8772C13.8755 21.2517 13.4714 21.5812 13.2281 21.652C13.7091 21.8489 13.5684 22.29 13.1391 22.4372C13.8459 24.0965 12.5958 24.158 10.8337 23.7994L10.5652 24.9023C10.5122 25.1203 10.3233 25.2689 10.0988 25.2689H5.10375C4.93922 25.2689 4.79672 25.193 4.70531 25.0561C4.61203 24.9178 4.5975 24.7584 4.65984 24.6056Z" fill="#009EB4"/>
    <path fill-rule="evenodd" clip-rule="evenodd" d="M4.65984 24.6049C6.29953 20.6383 3.09187 20.6983 3 17.2886C3.20344 14.1114 5.66672 12.7764 8.12344 12.8894C5.86875 12.9944 3.75703 14.3575 3.57141 17.2886C3.66328 20.6983 6.86953 20.6383 5.23078 24.6049C5.16703 24.7577 5.18297 24.9171 5.27484 25.0553C5.36672 25.1922 5.50875 25.2682 5.67328 25.2682H5.10375C4.93922 25.2682 4.79672 25.1922 4.70531 25.0553C4.61344 24.9171 4.5975 24.7577 4.65984 24.6049ZM12.5114 23.9631C12.2658 23.9871 11.9733 23.9739 11.6503 23.935L11.6705 23.8488C11.9719 23.9046 12.255 23.9444 12.5114 23.9631Z" fill="#009EB4"/>
    <path fill-rule="evenodd" clip-rule="evenodd" d="M25.3399 24.6056C23.7017 20.6395 26.9079 20.699 26.9993 17.2894C26.5981 10.979 17.2756 11.932 16.8106 17.0756C16.7346 17.9128 17.0482 18.3351 15.8342 19.8937C15.2374 20.8598 16.137 20.865 16.5584 20.8772C16.1239 21.2517 16.5279 21.5812 16.7721 21.652C16.2898 21.8489 16.4304 22.29 16.8612 22.4372C16.1543 24.0965 17.4045 24.158 19.1665 23.7994L19.4337 24.9023C19.4867 25.1203 19.677 25.2689 19.9015 25.2689H24.8974C25.062 25.2689 25.2045 25.193 25.2959 25.0561C25.3878 24.9178 25.4037 24.7584 25.3399 24.6056Z" fill="#009EB4"/>
    <path fill-rule="evenodd" clip-rule="evenodd" d="M22.4201 12.8881C19.8289 12.7803 17.06 14.3309 16.8115 17.075C16.7356 17.9121 17.0492 18.3345 15.8351 19.8931C15.2384 20.8592 16.138 20.8643 16.5594 20.8765C16.1248 21.2511 16.5289 21.5806 16.7731 21.6514C16.2908 21.8482 16.4314 22.2893 16.8622 22.4365C16.3198 23.7068 16.9259 24.0401 18.0312 23.9661C17.27 23.9009 16.9283 23.4917 17.3773 22.4365C16.948 22.2889 16.8073 21.8478 17.2883 21.6514C17.045 21.5811 16.64 21.2515 17.0755 20.8765C16.6531 20.8648 15.7536 20.8592 16.3498 19.8931C17.5644 18.3345 17.2508 17.9121 17.3262 17.075C17.5597 14.5118 19.9897 12.9903 22.4201 12.8881ZM19.19 23.8887L19.4347 24.9012C19.4876 25.1192 19.678 25.2678 19.9025 25.2678H20.4181C20.1936 25.2678 20.0047 25.1192 19.9517 24.9012L19.6831 23.7982C19.5125 23.8329 19.348 23.8634 19.19 23.8887Z" fill="#009EB4"/>
    <path d="M14.5431 7.75935C14.6307 7.56529 14.8595 7.47763 15.0535 7.56529C15.249 7.65294 15.3353 7.88263 15.2476 8.07669L15.0137 8.59232H15.5903C15.804 8.59232 15.977 8.76529 15.977 8.97904C15.977 9.04419 15.961 9.10654 15.9329 9.15997L15.3896 10.3586C15.302 10.554 15.0732 10.6403 14.8782 10.5526C14.6842 10.465 14.5979 10.2362 14.6856 10.0412L14.9912 9.36622H14.4146C14.3617 9.36622 14.3068 9.35544 14.2553 9.33154C14.0612 9.24388 13.9749 9.01513 14.0626 8.82107L14.5431 7.75935Z" fill="#FFD23B"/>
    </svg>
    