<svg width="24" height="24" viewBox="0 0 24 24" fill="none" xmlns="http://www.w3.org/2000/svg">
    <path d="M6 6H14.25V9H6V6ZM18.75 3.75V22.5H3.75C3.15381 22.4982 2.58255 22.2606 2.16098 21.839C1.73941 21.4175 1.50178 20.8462 1.5 20.25V3.75C1.50178 3.15381 1.73941 2.58255 2.16098 2.16098C2.58255 1.73941 3.15381 1.50178 3.75 1.5H16.5C17.0962 1.50178 17.6675 1.73941 18.089 2.16098C18.5106 2.58255 18.7482 3.15381 18.75 3.75ZM15.75 12.75C15.75 12.5511 15.671 12.3603 15.5303 12.2197C15.3897 12.079 15.1989 12 15 12H5.25C5.05109 12 4.86032 12.079 4.71967 12.2197C4.57902 12.3603 4.5 12.5511 4.5 12.75C4.5 12.9489 4.57902 13.1397 4.71967 13.2803C4.86032 13.421 5.05109 13.5 5.25 13.5H15C15.1989 13.5 15.3897 13.421 15.5303 13.2803C15.671 13.1397 15.75 12.9489 15.75 12.75ZM15 15H5.25C5.05109 15 4.86032 15.079 4.71967 15.2197C4.57902 15.3603 4.5 15.5511 4.5 15.75C4.5 15.9489 4.57902 16.1397 4.71967 16.2803C4.86032 16.421 5.05109 16.5 5.25 16.5H15C15.1989 16.5 15.3897 16.421 15.5303 16.2803C15.671 16.1397 15.75 15.9489 15.75 15.75C15.75 15.5511 15.671 15.3603 15.5303 15.2197C15.3897 15.079 15.1989 15 15 15ZM15.75 9V6C15.7488 5.60254 15.5904 5.2217 15.3093 4.94065C15.0283 4.6596 14.6475 4.50119 14.25 4.5H6C5.60254 4.50119 5.2217 4.6596 4.94065 4.94065C4.6596 5.2217 4.50119 5.60254 4.5 6V9C4.50119 9.39746 4.6596 9.7783 4.94065 10.0593C5.2217 10.3404 5.60254 10.4988 6 10.5H14.25C14.6475 10.4988 15.0283 10.3404 15.3093 10.0593C15.5904 9.7783 15.7488 9.39746 15.75 9ZM4.5 18.75C4.5 18.9489 4.57902 19.1397 4.71967 19.2803C4.86032 19.421 5.05109 19.5 5.25 19.5H10.5C10.6989 19.5 10.8897 19.421 11.0303 19.2803C11.171 19.1397 11.25 18.9489 11.25 18.75C11.25 18.5511 11.171 18.3603 11.0303 18.2197C10.8897 18.079 10.6989 18 10.5 18H5.25C5.05109 18 4.86032 18.079 4.71967 18.2197C4.57902 18.3603 4.5 18.5511 4.5 18.75ZM20.25 6.75V22.5C20.8467 22.5 21.419 22.2629 21.841 21.841C22.2629 21.419 22.5 20.8467 22.5 20.25V9C22.5 8.40326 22.2629 7.83097 21.841 7.40901C21.419 6.98705 20.8467 6.75 20.25 6.75Z" fill="black"/>
    </svg>
    