<svg width="30" height="31" viewBox="0 0 30 31" fill="none" xmlns="http://www.w3.org/2000/svg">
    <path d="M0 5.60938C0 2.84795 2.23858 0.609375 5 0.609375H25C27.7614 0.609375 30 2.84795 30 5.60938V25.6094C30 28.3708 27.7614 30.6094 25 30.6094H5C2.23858 30.6094 0 28.3708 0 25.6094V5.60938Z" fill="#F7F7F7"/>
    <path d="M14.6511 16.3097C17.532 16.3097 19.8675 13.8024 19.8675 10.7096C19.8675 7.61666 17.532 5.10938 14.6511 5.10938C11.7701 5.10938 9.43457 7.61666 9.43457 10.7096C9.43457 13.8024 11.7701 16.3097 14.6511 16.3097Z" fill="#F4C63B"/>
    <path fill-rule="evenodd" clip-rule="evenodd" d="M14.6501 17.7031C9.86446 17.7031 5.93884 21.0918 5.55255 25.4039C5.51808 25.7888 5.81329 26.1034 6.17341 26.1034H23.1269C23.4871 26.1034 23.7822 25.7888 23.7478 25.4039C23.3615 21.0918 19.4359 17.7031 14.6501 17.7031Z" fill="#009EB4"/>
    </svg>
    