<svg width="30" height="30" viewBox="0 0 30 30" fill="none" xmlns="http://www.w3.org/2000/svg">
    <rect width="30" height="30" rx="6" fill="#F7F7F7"/>
    <path d="M20.4696 14.2969C20.3741 14.3891 20.2979 14.4995 20.2455 14.6215C20.1931 14.7435 20.1655 14.8747 20.1643 15.0075C20.1632 15.1403 20.1885 15.2719 20.2388 15.3948C20.2891 15.5177 20.3633 15.6294 20.4572 15.7233C20.5511 15.8172 20.6627 15.8914 20.7856 15.9417C20.9085 15.992 21.0402 16.0173 21.173 16.0161C21.3058 16.015 21.437 15.9874 21.559 15.935C21.681 15.8826 21.7913 15.8064 21.8836 15.7109L23.4276 14.1669C24.4152 13.1563 24.9646 11.7971 24.9565 10.3841C24.9484 8.97112 24.3835 7.61829 23.3843 6.61913C22.3852 5.61996 21.0324 5.05506 19.6194 5.04696C18.2063 5.03887 16.8471 5.58823 15.8366 6.57588L14.2926 8.11988C14.1971 8.21213 14.1209 8.32247 14.0685 8.44448C14.0161 8.56648 13.9885 8.6977 13.9873 8.83048C13.9862 8.96326 14.0115 9.09494 14.0618 9.21784C14.1121 9.34073 14.1863 9.45238 14.2802 9.54628C14.3741 9.64017 14.4857 9.71442 14.6086 9.7647C14.7315 9.81498 14.8632 9.84029 14.996 9.83913C15.1288 9.83798 15.26 9.81039 15.382 9.75798C15.504 9.70557 15.6143 9.62939 15.7066 9.53388L17.2506 7.98988C17.5627 7.67432 17.9341 7.42357 18.3435 7.25204C18.7528 7.08051 19.1921 6.99158 19.6359 6.99036C20.0798 6.98915 20.5195 7.07568 20.9297 7.24497C21.34 7.41426 21.7128 7.66297 22.0267 7.97682C22.3405 8.29066 22.5892 8.66344 22.7585 9.07373C22.9278 9.48402 23.0143 9.92373 23.0131 10.3676C23.0119 10.8114 22.923 11.2506 22.7514 11.66C22.5799 12.0693 22.3292 12.4408 22.0136 12.7529L20.4696 14.2969Z" fill="#009EB4"/>
    <path d="M9.52997 15.7037C9.62548 15.6114 9.70167 15.5011 9.75408 15.3791C9.80649 15.2571 9.83407 15.1258 9.83523 14.9931C9.83638 14.8603 9.81108 14.7286 9.7608 14.6057C9.71052 14.4828 9.63626 14.3712 9.54237 14.2773C9.44848 14.1834 9.33682 14.1091 9.21393 14.0588C9.09103 14.0086 8.95935 13.9833 8.82657 13.9844C8.69379 13.9856 8.56257 14.0132 8.44057 14.0656C8.31857 14.118 8.20822 14.1942 8.11597 14.2897L6.57197 15.8337C5.58433 16.8442 5.03496 18.2034 5.04306 19.6164C5.05115 21.0294 5.61606 22.3823 6.61522 23.3814C7.61438 24.3806 8.96721 24.9455 10.3802 24.9536C11.7932 24.9617 13.1524 24.4123 14.163 23.4247L15.707 21.8807C15.8891 21.6921 15.9899 21.4395 15.9876 21.1773C15.9854 20.9151 15.8802 20.6643 15.6948 20.4788C15.5094 20.2934 15.2586 20.1883 14.9964 20.186C14.7342 20.1837 14.4816 20.2845 14.293 20.4667L12.749 22.0107C12.1162 22.6366 11.2613 22.9866 10.3713 22.9841C9.48124 22.9817 8.62833 22.627 7.99897 21.9977C7.3696 21.3683 7.01495 20.5154 7.01252 19.6253C7.01008 18.7353 7.36006 17.8805 7.98597 17.2477L9.52997 15.7037Z" fill="#009EB4"/>
    <path d="M11.2055 18.7987C11.393 18.9862 11.6473 19.0915 11.9125 19.0915C12.1776 19.0915 12.4319 18.9862 12.6195 18.7987L18.8005 12.6177C18.896 12.5255 18.9721 12.4151 19.0246 12.2931C19.077 12.1711 19.1045 12.0399 19.1057 11.9071C19.1069 11.7743 19.0816 11.6427 19.0313 11.5198C18.981 11.3969 18.9067 11.2852 18.8128 11.1913C18.719 11.0974 18.6073 11.0232 18.4844 10.9729C18.3615 10.9226 18.2298 10.8973 18.097 10.8985C17.9643 10.8996 17.833 10.9272 17.711 10.9796C17.589 11.032 17.4787 11.1082 17.3865 11.2037L11.2055 17.3797C11.1119 17.4727 11.0376 17.5832 10.9869 17.705C10.9362 17.8267 10.9102 17.9573 10.9102 18.0892C10.9102 18.2211 10.9362 18.3517 10.9869 18.4735C11.0376 18.5952 11.1119 18.7058 11.2055 18.7987Z" fill="#F4C63B"/>
    </svg>
    