<svg width="30" height="30" viewBox="0 0 30 30" fill="none" xmlns="http://www.w3.org/2000/svg">
    <rect width="30" height="30" rx="6" fill="#F7F7F7"/>
    <path fill-rule="evenodd" clip-rule="evenodd" d="M17.2529 5.5C17.2529 5.4337 17.2266 5.37011 17.1797 5.32322C17.1328 5.27634 17.0692 5.25 17.0029 5.25H10.0029C9.27358 5.25 8.57411 5.53973 8.05839 6.05546C7.54266 6.57118 7.25293 7.27065 7.25293 8V22C7.25293 22.7293 7.54266 23.4288 8.05839 23.9445C8.57411 24.4603 9.27358 24.75 10.0029 24.75H20.0029C20.7323 24.75 21.4318 24.4603 21.9475 23.9445C22.4632 23.4288 22.7529 22.7293 22.7529 22V12.147C22.7529 12.0807 22.7266 12.0171 22.6797 11.9702C22.6328 11.9233 22.5692 11.897 22.5029 11.897H18.0029C17.804 11.897 17.6133 11.818 17.4726 11.6773C17.3319 11.5367 17.2529 11.3459 17.2529 11.147V5.5ZM18.0029 15.25C18.2018 15.25 18.3926 15.329 18.5333 15.4697C18.6739 15.6103 18.7529 15.8011 18.7529 16C18.7529 16.1989 18.6739 16.3897 18.5333 16.5303C18.3926 16.671 18.2018 16.75 18.0029 16.75H12.0029C11.804 16.75 11.6133 16.671 11.4726 16.5303C11.3319 16.3897 11.2529 16.1989 11.2529 16C11.2529 15.8011 11.3319 15.6103 11.4726 15.4697C11.6133 15.329 11.804 15.25 12.0029 15.25H18.0029ZM18.0029 19.25C18.2018 19.25 18.3926 19.329 18.5333 19.4697C18.6739 19.6103 18.7529 19.8011 18.7529 20C18.7529 20.1989 18.6739 20.3897 18.5333 20.5303C18.3926 20.671 18.2018 20.75 18.0029 20.75H12.0029C11.804 20.75 11.6133 20.671 11.4726 20.5303C11.3319 20.3897 11.2529 20.1989 11.2529 20C11.2529 19.8011 11.3319 19.6103 11.4726 19.4697C11.6133 19.329 11.804 19.25 12.0029 19.25H18.0029Z" fill="#009EB4"/>
    <path d="M18.75 5.82542C18.75 5.64142 18.943 5.52442 19.086 5.63942C19.2073 5.73742 19.315 5.85142 19.409 5.98142L22.422 10.1784C22.49 10.2744 22.416 10.3984 22.298 10.3984H19C18.9337 10.3984 18.8701 10.3721 18.8232 10.3252C18.7763 10.2783 18.75 10.2147 18.75 10.1484V5.82542Z" fill="#F4C63B"/>
    </svg>
    